<svg width="1024" height="1024" viewBox="0 0 1024 1024" xmlns="http://www.w3.org/2000/svg">
  <defs>
    <!-- Fondo degradado verde -->
    <linearGradient id="bgGradient" x1="0" y1="0" x2="1" y2="1">
      <stop offset="0%" stop-color="#34d058"/>
      <stop offset="100%" stop-color="#2c974b"/>
    </linearGradient>

    <!-- Líneas diagonales -->
    <pattern id="diagonalLines" patternUnits="userSpaceOnUse" width="40" height="40" patternTransform="rotate(45)">
      <rect width="20" height="40" fill="rgba(0,0,0,0.03)" />
    </pattern>

    <!-- Sombra para el ícono -->
    <filter id="shadow" x="-20%" y="-20%" width="140%" height="140%">
      <feDropShadow dx="6" dy="6" stdDeviation="10" flood-color="black" flood-opacity="0.3"/>
    </filter>
  </defs>

  <!-- Fondo verde con patrón -->
  <rect width="1024" height="1024" rx="220" fill="url(#bgGradient)"/>
  <rect width="1024" height="1024" rx="220" fill="url(#diagonalLines)"/>

  <!-- Lupa + balón con sombra -->
  <g filter="url(#shadow)">
    <!-- Círculo lupa -->
    <circle cx="500" cy="500" r="220" fill="white"/>

    <!-- Balón de fútbol simplificado -->
    <g transform="translate(415,415)">
      <circle cx="85" cy="85" r="85" fill="#2c974b" />
      <polygon points="85,40 105,75 85,110 60,110 40,75 60,40" fill="white" />
      <polygon points="85,15 95,35 75,35" fill="white" />
      <polygon points="125,60 145,70 125,80" fill="white" />
      <polygon points="125,110 145,120 125,130" fill="white" />
      <polygon points="85,145 95,165 75,165" fill="white" />
    </g>

    <!-- Mango lupa -->
    <rect x="600" y="600" width="60" height="160" rx="30" ry="30" transform="rotate(45 600 600)" fill="white" />
  </g>
</svg>