<svg version="1.1" id="Layer_1" xmlns="http://www.w3.org/2000/svg" xmlns:xlink="http://www.w3.org/1999/xlink" x="0px" y="0px"
	 width="100%" viewBox="0 0 1024 1024" enable-background="new 0 0 1024 1024" xml:space="preserve">
<path fill="none" opacity="1.000000" stroke="#000000" stroke-linecap="round" stroke-linejoin="round" stroke-width="10.000000"
	d="
M749.500000,688.500000 
	C750.892700,690.276794 751.241943,692.352478 750.982056,694.497803 
	C749.953796,702.985352 750.651123,711.500427 750.539978,720.000549 
	C750.468628,725.459351 751.648682,726.411499 756.999695,726.516418 
	C762.000916,726.614380 766.995789,726.299255 772.008667,726.931458 
	C776.735168,727.527405 778.920166,725.837769 778.905518,721.000305 
	C778.869690,709.168274 779.644592,697.320801 778.519287,685.498169 
	C778.377808,684.011658 778.500000,682.500000 778.500000,681.000000 
	C778.500000,653.333313 778.500000,625.666687 778.500000,598.000000 
	C778.500000,589.842896 776.374939,587.605347 767.999695,587.539673 
	C762.501343,587.496643 756.999207,587.994690 751.500183,587.967102 
	C739.166321,587.905273 726.828979,587.370178 714.500732,587.551514 
	C662.334595,588.319336 610.166565,587.934875 558.000122,587.875610 
	C552.111206,587.868958 548.476379,590.307190 548.487366,597.500000 
	C548.521851,619.999939 548.625977,642.500916 548.459106,664.999695 
	C548.331787,682.167908 547.823242,699.333130 547.515930,716.500305 
	C547.485962,718.172546 547.864807,719.894958 547.869202,721.500366 
	C547.880188,725.549805 550.413757,726.673279 553.505432,726.935974 
	C558.318176,727.344727 563.165833,727.428467 568.000244,727.473145 
	C572.793457,727.517456 574.396057,725.948059 574.470459,720.999573 
	C574.583313,713.501282 574.276917,705.991394 574.565674,698.502502 
	C574.829651,691.657288 574.995911,684.851318 574.586121,677.994873 
	C574.189026,671.351929 574.031433,664.623840 574.635925,658.012451 
	C575.205017,651.787842 574.409363,645.667358 574.484192,639.499817 
	C574.557007,633.500671 574.472961,627.499817 574.507996,621.500061 
	C574.539795,616.060059 575.060059,615.534424 580.500061,615.508606 
	C587.833191,615.473877 595.203308,615.047729 602.488831,615.638062 
	C608.709595,616.142029 614.833008,615.442627 621.000061,615.489685 
	C627.166382,615.536743 633.333313,615.500000 639.500000,615.500000 
	C651.000000,615.500000 662.530273,615.000854 673.988098,615.695923 
	C680.387512,616.084106 686.666565,615.463440 693.000061,615.493408 
	C699.333191,615.523376 705.704773,615.070862 711.988586,615.628662 
	C717.543091,616.121704 722.999939,615.524170 728.500000,615.504211 
	C733.833252,615.484802 739.166870,615.472778 744.499939,615.507568 
	C749.939941,615.542969 750.465576,616.060059 750.491394,621.500061 
	C750.526123,628.833191 750.886719,636.191711 750.414368,643.494446 
	C749.592590,656.198120 751.906799,668.816467 751.031982,681.502197 
	C750.879333,683.715820 751.074646,685.947388 750.000000,688.000000 
"/>
<path fill="none" opacity="1.000000" stroke="#000000" stroke-linecap="round" stroke-linejoin="round" stroke-width="10.000000"
	d="
M434.500000,805.000000 
	C437.547424,809.859497 436.361877,815.279968 436.466766,820.500671 
	C436.609680,827.615845 436.891785,828.000000 444.000000,828.000000 
	C448.666656,828.000000 453.334015,828.049194 457.999817,827.986511 
	C462.865814,827.921143 464.273956,826.470764 464.494812,821.499756 
	C464.531738,820.668091 464.500000,819.833313 464.500000,819.000000 
	C464.500000,778.500000 464.387329,737.999329 464.624695,697.500732 
	C464.659271,691.604065 461.368195,688.187927 455.005341,687.886963 
	C430.658783,686.735107 406.327972,688.009949 382.001556,688.198975 
	C358.834442,688.378967 335.665283,688.177002 312.500153,688.510803 
	C292.999390,688.791687 273.499786,689.154541 254.000320,689.517151 
	C251.831299,689.557434 249.629181,689.638855 247.509125,690.047363 
	C244.611954,690.605591 242.389450,691.914795 242.454651,695.500854 
	C242.509125,698.496826 242.024750,701.499878 242.021729,704.500000 
	C241.987473,738.500000 241.997040,772.500000 242.003006,806.500000 
	C242.003967,812.000000 241.049835,817.446350 241.877884,823.018127 
	C242.467194,826.983459 244.662659,828.334106 248.001724,828.450378 
	C253.328598,828.635864 258.666718,828.483887 263.999969,828.505493 
	C267.710449,828.520569 269.201874,826.442810 269.518677,823.001709 
	C270.026611,817.484497 267.994171,811.679321 271.418762,806.446838 
	C271.700623,806.016174 270.768951,804.852417 270.514954,803.995544 
	C270.124756,802.679077 269.711456,801.350525 269.520569,799.997070 
	C268.560303,793.188354 270.789215,786.380066 269.113068,779.472534 
	C267.491211,772.788635 268.117828,765.776001 268.664276,759.013245 
	C269.406097,749.832153 269.438293,740.675232 269.473236,731.499878 
	C269.482758,729.000549 268.997894,726.497559 269.034271,724.000488 
	C269.116180,718.382507 271.023590,716.251282 276.495209,716.579956 
	C283.497131,717.000366 290.689087,714.852661 297.500000,718.000000 
	C306.177795,714.752258 315.175903,717.195007 324.004608,716.564697 
	C327.193817,716.336975 330.361877,716.338440 333.593231,717.792847 
	C335.408752,718.609924 338.156921,717.165100 340.501709,717.029358 
	C350.175629,716.469299 359.833527,716.843506 369.510071,717.070862 
	C376.885803,717.244141 384.499603,716.707153 392.001068,716.551880 
	C403.165649,716.320801 414.341980,716.785156 425.500427,716.006165 
	C428.968506,715.763977 432.305206,716.375000 436.140686,718.021912 
	C435.314758,728.333069 437.307953,738.961609 434.948669,749.488525 
	C434.539246,751.315308 436.049927,752.460571 435.972351,753.998596 
	C435.518646,762.994934 437.234924,772.097900 434.880188,780.968201 
	C434.492615,782.428284 435.372101,783.028503 435.441254,784.004150 
	C435.927460,790.864258 437.287506,797.786377 434.500000,804.500000 
"/>
<path fill="none" opacity="1.000000" stroke="#000000" stroke-linecap="round" stroke-linejoin="round" stroke-width="11.000000"
	d="
M304.000000,970.500000 
	C310.798492,969.864441 315.775543,966.381714 318.947815,960.471985 
	C320.450989,957.671692 322.611450,956.957275 325.500153,956.979065 
	C344.693329,957.123962 363.804138,954.430420 382.997742,955.067749 
	C396.997894,955.532715 411.036987,955.391907 424.982544,956.275635 
	C434.012268,956.847839 443.004242,956.550171 452.000153,956.997192 
	C455.904114,957.191223 458.782166,957.700012 460.744476,962.397888 
	C464.143097,970.534241 474.711548,971.959900 480.479309,965.481567 
	C483.275726,962.340515 482.303436,958.124878 482.807434,954.473450 
	C483.552429,949.076233 483.219696,943.488708 482.937531,938.003235 
	C482.661407,932.635132 478.574860,929.518005 472.000092,929.535461 
	C463.166382,929.559021 454.333527,929.964478 445.499969,929.977173 
	C408.000031,930.030884 370.494904,929.654846 333.003082,930.209229 
	C321.669678,930.376709 310.317932,929.015686 298.997711,930.482300 
	C294.690094,931.040405 292.996033,932.628174 293.030029,936.999756 
	C293.087036,944.333923 293.056976,951.686707 293.586060,958.993774 
	C294.021698,965.010681 297.552216,968.940125 303.500000,970.500000 
"/>
<path fill="none" opacity="1.000000" stroke="#000000" stroke-linecap="round" stroke-linejoin="round" stroke-width="12.000000"
	d="
M923.000000,1024.500000 
	C923.000000,1006.333313 922.836975,988.164429 923.085754,970.001160 
	C923.176453,963.378357 919.803955,960.555847 913.499939,960.544434 
	C867.833374,960.461731 822.164734,960.267151 776.501221,960.644897 
	C763.171143,960.755127 749.832886,960.789551 736.499756,960.984863 
	C727.917603,961.110657 726.948364,961.962280 727.010742,970.499939 
	C727.142212,988.500183 727.333374,1006.500000 727.500061,1024.500000 
"/>
<path fill="none" opacity="1.000000" stroke="#000000" stroke-linecap="round" stroke-linejoin="round" stroke-width="10.000000"
	d="
M467.000000,549.500000 
	C469.235962,545.970642 471.316406,542.406921 474.975159,539.962769 
	C493.383911,527.665344 496.072815,512.882751 489.306854,493.065948 
	C483.352966,475.627441 471.467346,461.827423 457.958130,449.546051 
	C454.306793,446.226532 449.978241,447.321655 448.639038,452.535706 
	C443.127960,473.992218 426.395050,480.482574 407.506989,484.532562 
	C399.575531,486.233215 392.064240,485.120453 384.472076,482.583527 
	C378.023926,480.428833 373.966888,476.399231 371.985199,470.004578 
	C370.361755,464.766083 368.357208,459.724731 363.499664,456.500519 
	C358.848938,453.413544 350.829407,452.527954 345.421234,457.412781 
	C337.347687,464.705078 329.943726,472.737305 322.843933,480.802765 
	C317.415192,486.969971 309.857513,489.330139 304.445068,494.947052 
	C301.415680,498.090851 297.706940,500.620270 295.598755,504.552948 
	C295.277039,505.153137 294.939209,505.821564 294.486511,505.953827 
	C286.170807,508.383728 280.743134,514.683044 275.051239,520.549683 
	C273.148804,522.510559 270.498688,522.176392 268.509827,523.514587 
	C256.879974,531.339355 243.296295,535.082336 231.012680,541.524170 
	C222.039001,546.230286 213.774750,551.968933 208.040848,560.527344 
	C199.847855,572.756287 202.056061,585.242798 213.450684,594.560303 
	C220.983536,600.720032 229.625473,603.086426 239.002213,603.441406 
	C242.869156,603.587830 246.664658,604.364624 250.472534,604.762756 
	C253.741486,605.104553 257.327667,606.952881 259.448242,610.035583 
	C260.876038,612.111267 259.688049,614.677063 260.000000,617.000000 
"/>
<path fill="none" opacity="1.000000" stroke="#000000" stroke-linecap="round" stroke-linejoin="round" stroke-width="10.000000"
	d="
M808.499939,774.499939 
	C806.499939,778.499939 804.565247,782.534241 802.486267,786.492798 
	C798.249146,794.560852 798.855103,803.014038 800.525757,811.494934 
	C803.457336,826.377075 809.713074,839.466675 821.487793,849.514282 
	C824.910583,852.435059 830.010315,852.177795 833.027710,854.759766 
	C836.057922,857.352844 836.985229,862.081055 840.421448,865.089661 
	C848.539612,872.197876 858.392395,874.450256 868.489685,876.549500 
	C882.728210,879.509644 896.712402,878.808411 909.931274,872.847534 
	C918.311279,869.068542 927.252686,865.487854 932.050415,856.526978 
	C932.828796,855.073181 934.156616,853.980225 935.987061,853.454956 
	C943.902283,851.183411 948.335022,844.999756 952.513672,838.508789 
	C962.682495,822.713013 965.299866,805.347168 963.531250,786.997009 
	C963.125549,782.787598 961.781128,778.863403 959.400757,775.571777 
	C956.718689,771.862793 955.178650,768.123962 954.322510,763.533081 
	C951.996399,751.059692 943.995056,741.826477 934.968506,733.534302 
	C924.888123,724.273926 913.683777,717.286987 899.515137,715.850830 
	C894.452637,715.337708 890.025330,716.449768 885.514160,718.040222 
	C883.993896,718.576172 882.867737,719.378540 880.965942,718.581177 
	C872.230042,714.918518 863.418213,715.843323 855.028992,719.565369 
	C840.019531,726.224548 826.249084,734.775391 816.025757,748.019836 
	C810.142273,755.641968 806.955017,764.166504 808.500000,774.000000 
"/>
<path fill="none" opacity="1.000000" stroke="#000000" stroke-linecap="round" stroke-linejoin="round" stroke-width="10.000000"
	d="
M556.500000,151.500000 
	C552.678650,150.119720 550.485657,146.826828 548.047668,143.959442 
	C542.344116,137.251190 536.351196,131.360260 527.014954,129.904144 
	C520.197876,128.840912 516.161926,130.712280 514.552917,137.512512 
	C512.004089,148.284576 513.902283,158.713608 517.473389,169.009216 
	C526.263611,194.351349 537.262329,218.833069 546.620850,243.954971 
	C547.491760,246.292862 547.939148,247.792953 546.565674,250.040146 
	C542.925781,255.995300 541.443604,262.806732 540.101624,269.520325 
	C538.783569,276.114136 542.929749,281.045685 551.513550,283.451691 
	C562.146545,286.432098 573.044983,288.047028 583.979187,289.642792 
	C596.126343,291.415680 608.351318,292.348328 620.514587,293.884521 
	C625.928223,294.568237 631.507996,294.175934 636.996704,293.926880 
	C639.804565,293.799469 641.061096,291.594635 642.061340,289.023865 
	C645.084595,281.253326 645.737549,273.207336 645.512390,264.999664 
	C645.467041,263.348785 645.796692,262.015442 646.897949,260.429169 
	C669.775696,227.476120 684.766113,190.934052 695.471375,152.492020 
	C697.558655,144.996643 699.348389,137.433960 698.527954,129.497116 
	C697.465332,119.216995 690.087524,115.119453 679.953491,117.282181 
	C666.820740,120.084900 665.166565,130.905304 661.589661,140.533310 
	C660.053833,144.667587 659.513306,149.169800 658.494019,153.498596 
	C658.029053,155.473450 657.058655,157.168533 655.500000,158.500000 
"/>
<path fill="none" opacity="1.000000" stroke="#000000" stroke-linecap="round" stroke-linejoin="round" stroke-width="10.000000"
	d="
M871.000000,457.500000 
	C867.811218,455.355408 865.079102,452.887054 862.889832,449.572784 
	C860.703369,446.262909 857.916199,443.214539 854.484192,441.024780 
	C850.053284,438.197723 845.379883,437.586487 840.496033,439.992004 
	C835.043762,442.677490 831.170227,446.267914 830.928223,452.997406 
	C830.580566,462.666626 833.642151,471.673126 836.686829,480.435059 
	C843.419678,499.810394 851.167053,518.833191 858.493103,538.002625 
	C858.548706,538.148071 858.447327,538.355896 858.507568,538.496765 
	C860.565796,543.306091 865.335449,547.091858 864.445862,552.991821 
	C863.711121,557.865112 862.284485,562.635132 861.571228,567.510437 
	C861.042603,571.124146 861.067810,574.832092 861.022400,578.500305 
	C860.947815,584.514282 861.926575,585.815552 868.004517,586.457031 
	C884.646179,588.213562 901.279602,590.039307 917.994690,591.084961 
	C925.665405,591.564819 933.287842,592.897705 941.000183,592.985168 
	C947.387573,593.057617 951.257996,589.126404 951.501038,582.500061 
	C951.764099,575.330139 953.625854,568.236206 952.532959,560.995056 
	C952.492371,560.726379 952.606689,560.355957 952.910583,559.935364 
	C960.113098,549.967407 963.134705,538.059998 967.984192,526.993103 
	C977.225220,505.904358 985.261719,484.364166 992.620728,462.540710 
	C996.007446,452.497253 997.047546,442.372955 996.393127,432.006744 
	C996.146606,428.102692 994.839783,424.226257 991.508972,421.489075 
	C988.363953,418.904541 984.702637,418.708405 981.597900,420.656036 
	C979.300659,422.097076 976.957153,423.080994 974.500000,424.000000 
"/>
<path fill="none" opacity="1.000000" stroke="#000000" stroke-linecap="round" stroke-linejoin="round" stroke-width="10.000000"
	d="
M742.500000,450.500000 
	C748.599854,443.985168 748.518433,435.706818 747.294922,428.032684 
	C744.435608,410.097839 736.286743,394.718384 721.996338,383.004456 
	C719.599304,381.039642 717.031616,379.369598 714.006165,378.479126 
	C712.939880,378.165344 711.758850,378.057892 710.990784,377.006744 
	C703.077393,366.175812 690.894104,363.603058 678.968323,361.698364 
	C663.788574,359.273956 648.645447,360.868500 633.989990,365.971222 
	C631.007874,367.009552 628.483032,368.550690 626.491882,370.993378 
	C626.047424,371.538635 625.581909,372.289551 624.988037,372.457489 
	C611.499878,376.271851 603.579773,387.111664 594.492310,396.492554 
	C587.713074,403.490662 583.843994,411.711700 582.887024,421.488953 
	C582.524841,425.189545 582.538452,428.607452 584.000000,432.000000 
"/>
<path fill="none" opacity="1.000000" stroke="#000000" stroke-linecap="round" stroke-linejoin="round" stroke-width="9.000000"
	d="
M49.500000,873.500000 
	C46.552914,874.317505 43.652786,875.054626 40.500996,875.089661 
	C35.598644,875.143982 31.858841,879.677673 31.441040,884.494873 
	C30.479355,895.583252 35.812714,904.341492 41.509304,912.993896 
	C59.914513,940.948975 80.207970,967.296936 105.911987,989.103760 
	C107.531570,990.477783 108.451096,991.167847 110.512032,990.539490 
	C127.397552,985.391418 143.516830,978.205627 159.964066,971.906189 
	C169.495117,968.255737 178.611969,963.535950 188.038422,959.591858 
	C190.397446,958.604858 190.964584,957.298157 191.609146,955.031006 
	C194.222458,945.838989 194.690552,936.308838 196.374908,926.977417 
	C198.554398,914.903320 200.306686,902.706238 201.328552,890.485657 
	C201.976974,882.731201 202.211380,874.791260 200.954910,867.007263 
	C199.961838,860.854980 195.234818,857.137207 189.950546,856.319580 
	C184.655792,855.500183 179.262024,857.382874 175.387955,862.413696 
	C171.789276,867.086914 169.428391,872.334717 167.182312,877.578125 
	C165.931274,880.498535 163.987869,882.396118 162.000000,884.500000 
"/>
<path fill="none" opacity="1.000000" stroke="#000000" stroke-linecap="round" stroke-linejoin="round" stroke-width="9.000000"
	d="
M62.000000,393.000000 
	C58.196232,388.464203 57.068241,382.633087 54.492405,377.503815 
	C51.203320,370.954285 48.325401,364.162811 43.500488,358.499573 
	C41.072250,355.649445 31.327093,353.743408 27.015749,355.537842 
	C22.155144,357.560791 21.683228,361.904541 21.449879,366.497467 
	C21.020105,374.956421 25.119297,382.077789 28.066622,389.473450 
	C38.335976,415.242249 51.295155,439.597168 66.933167,462.545532 
	C71.043114,468.576813 74.308670,475.181183 78.023407,481.486206 
	C78.669937,482.583557 78.011612,483.599335 78.123169,484.484467 
	C79.125923,492.440765 79.433929,500.612640 83.049393,507.975739 
	C85.753052,513.481934 87.061409,513.534973 93.509781,512.565063 
	C112.435249,509.718353 130.923721,504.906555 149.487701,500.448792 
	C159.390366,498.070862 169.118317,494.962219 179.028091,492.618774 
	C182.192581,491.870453 183.048691,490.044739 184.049698,487.519714 
	C187.273773,479.387268 183.946304,471.731171 182.356522,464.029633 
	C181.716415,460.928802 180.432770,457.733582 178.198257,455.131622 
	C184.973801,444.669922 188.993378,433.238037 193.580658,422.033020 
	C198.786636,409.316803 205.302582,397.100189 209.338715,383.950500 
	C211.437408,377.112946 213.607712,370.137360 211.643433,362.463287 
	C208.729553,351.079163 200.707047,347.915253 191.054672,352.125336 
	C185.707138,354.457825 181.164291,358.350128 178.003403,363.502106 
	C175.938110,366.868347 174.066025,370.388367 170.500000,372.500000 
"/>
<path fill="none" opacity="1.000000" stroke="#000000" stroke-linecap="round" stroke-linejoin="round" stroke-width="9.000000"
	d="
M191.000000,959.000000 
	C197.871201,965.918213 200.323303,974.622986 200.972229,984.001892 
	C201.237854,987.840942 198.912918,989.783752 195.511108,991.030334 
	C181.151535,996.292053 166.892914,1001.834717 152.480164,1006.944031 
	C141.950317,1010.676758 131.676605,1015.228394 120.517113,1017.101929 
	C117.568901,1017.596924 116.110397,1017.010681 114.417702,1014.556763 
	C109.572220,1007.532043 107.962349,999.828674 108.500000,991.500000 
"/>
<path fill="none" opacity="1.000000" stroke="#000000" stroke-linecap="round" stroke-linejoin="round" stroke-width="10.000000"
	d="
M769.500000,274.500000 
	C761.037354,267.286072 757.325989,257.843689 757.037537,246.999008 
	C756.601685,230.611221 759.914734,215.174408 769.504089,201.502884 
	C773.467529,195.852234 777.182373,189.992767 783.478699,186.461975 
	C785.711121,185.210114 785.219482,182.179214 787.387329,180.365326 
	C793.359802,175.367935 800.031311,171.800888 806.970215,168.438553 
	C821.274719,161.507202 836.406006,159.826843 852.000183,160.496353 
	C852.665588,160.524918 853.509338,160.233002 853.974060,160.539368 
	C863.595947,166.882538 876.138977,164.663956 885.657349,172.303940 
	C897.212402,181.578568 908.062012,191.348785 916.412354,203.559937 
	C921.813110,211.457855 925.077820,220.150803 921.577881,230.027603 
	C921.241699,230.976242 921.337036,232.271027 921.938171,233.529541 
	C927.604736,245.393875 924.942139,257.459076 921.306763,268.938812 
	C916.031067,285.598358 905.283142,298.854431 890.316711,307.689545 
	C884.755920,310.972321 879.376038,314.482269 873.858459,317.761902 
	C864.872498,323.103180 854.424072,327.089539 844.064697,325.153870 
	C831.071045,322.726044 817.418091,325.212006 804.921936,318.648621 
	C789.132629,310.355560 775.449280,300.484650 770.046509,282.486053 
	C768.043335,275.812927 768.727356,275.678711 774.435791,271.414032 
	C782.686707,265.249908 790.266602,258.177826 798.601624,252.140274 
	C802.580383,249.258179 803.951355,246.518661 804.246582,241.514542 
	C804.991943,228.882782 807.837830,216.509979 812.000000,204.500000 
"/>
<path fill="none" opacity="1.000000" stroke="#000000" stroke-linecap="round" stroke-linejoin="round" stroke-width="10.000000"
	d="
M56.500000,80.000000 
	C65.090729,75.319016 72.952415,69.462990 82.919144,67.151390 
	C87.070564,66.188545 90.475403,61.601681 94.454979,58.932873 
	C100.753731,54.708759 106.863419,50.242416 113.424004,46.371208 
	C117.593033,43.911186 121.968994,42.884880 126.508713,42.047211 
	C128.283813,41.719669 129.981079,42.120731 131.531601,43.463520 
	C137.369553,48.519348 140.298370,54.758049 139.461929,62.495884 
	C139.009033,66.685654 138.579605,70.952148 137.421448,74.977402 
	C134.137665,86.390381 137.877319,95.565193 147.106354,101.843666 
	C158.630524,109.683495 170.446335,117.141182 183.453354,122.610924 
	C198.040283,128.745056 211.616013,126.574265 224.989670,119.480515 
	C227.561661,118.116257 230.013947,116.522652 232.496490,114.994308 
	C235.638550,113.059952 238.274673,113.025940 240.527222,116.482254 
	C245.414185,123.980858 248.359299,132.259857 249.399399,141.011963 
	C251.068146,155.053879 250.119019,168.995209 245.485031,182.494858 
	C241.677017,193.588318 236.694885,203.713379 224.518829,208.052826 
	C220.587265,209.454010 216.474747,209.620148 212.469971,210.330795 
	C209.585541,210.842636 206.956970,211.486649 204.498001,212.996750 
	C202.841827,214.013840 199.808243,214.930313 199.752701,216.012985 
	C199.580505,219.368500 196.601608,222.486786 198.750000,226.000000 
"/>
<path fill="none" opacity="1.000000" stroke="#000000" stroke-linecap="round" stroke-linejoin="round" stroke-width="10.000000"
	d="
M719.500000,805.000000 
	C728.860962,818.932434 733.123535,834.794373 735.287598,851.028320 
	C737.303223,866.149048 734.825684,880.964722 727.012695,894.507324 
	C723.432434,900.713135 718.577087,904.354065 710.995300,903.544006 
	C706.689880,903.083984 702.334534,903.408508 697.990784,903.164124 
	C693.542236,902.913818 689.908447,906.113586 686.000000,908.000000 
"/>
<path fill="none" opacity="1.000000" stroke="#000000" stroke-linecap="round" stroke-linejoin="round" stroke-width="11.000000"
	d="
M889.000000,51.499996 
	C886.833313,51.666664 884.667053,51.971642 882.499939,51.977741 
	C867.500061,52.019985 852.499695,52.058304 837.500061,51.986851 
	C812.666504,51.868553 787.833313,51.666668 763.000000,51.500000 
"/>
<path fill="none" opacity="1.000000" stroke="#000000" stroke-linecap="round" stroke-linejoin="round" stroke-width="12.000000"
	d="
M727.500000,6.500000 
	C727.333313,25.000000 727.184448,43.500195 726.981079,61.999790 
	C726.949890,64.834618 726.395264,67.682533 726.559814,70.496506 
	C726.850037,75.459869 728.852539,77.676895 733.503174,77.944801 
	C740.157410,78.328140 746.835815,78.524384 753.499207,78.437531 
	C758.525574,78.372017 759.198364,77.146355 760.078796,72.013512 
	C760.804871,67.780708 761.600220,63.667339 760.007019,59.497314 
	C759.951477,59.351875 759.944031,59.140499 760.007996,59.003746 
	C764.028564,50.407200 759.060608,41.668251 760.392578,32.983521 
	C760.846252,30.025530 760.694641,26.953979 761.476013,23.993668 
	C761.732117,23.023388 762.725281,22.223585 762.018005,20.989691 
	C759.385986,16.398180 760.883484,11.345389 760.500000,6.500000 
"/>
<path fill="none" opacity="1.000000" stroke="#000000" stroke-linecap="round" stroke-linejoin="round" stroke-width="11.000000"
	d="
M923.500000,6.500000 
	C922.561890,25.659958 923.170410,44.833366 923.001160,64.000008 
	C922.992310,64.999931 922.946838,66.003273 923.008118,66.999496 
	C923.633118,77.152588 922.407837,78.500000 912.500000,78.500000 
	C908.500000,78.500008 904.497437,78.590515 900.500671,78.477333 
	C895.377686,78.332268 892.366699,75.924377 891.563354,70.989685 
	C891.056885,67.878334 891.420410,64.628716 890.953552,61.506947 
	C889.405396,51.155224 891.659424,40.834751 891.016541,30.498972 
	C890.859131,27.967680 891.437683,25.294128 889.945251,23.036207 
	C889.349548,22.135078 889.246826,21.088051 889.566223,20.538515 
	C892.275452,15.878321 890.455811,10.828760 891.000000,6.000000 
"/>
<path fill="none" opacity="1.000000" stroke="#000000" stroke-linecap="round" stroke-linejoin="round" stroke-width="12.000000"
	d="
M806.000000,992.000000 
	C805.333313,991.666687 804.683411,991.082825 803.997498,991.037048 
	C791.000916,990.168457 777.997742,990.133545 765.002747,991.039368 
	C763.306458,991.157593 761.739990,991.330261 761.396790,993.986694 
	C760.225830,1003.051270 759.524109,1012.023071 761.953918,1021.012451 
	C762.712646,1023.819092 764.088745,1024.588257 767.000244,1024.578979 
	C804.666565,1024.459839 842.333313,1024.500000 880.000000,1024.500000 
	C882.666687,1024.500000 885.333313,1024.500000 887.979309,1024.500000 
	C890.996033,1020.627258 891.192810,1016.143311 891.036377,1011.498779 
	C890.873718,1006.670959 891.055237,1001.832520 890.985413,997.000183 
	C890.905884,991.495300 889.931152,990.527222 884.499939,990.509216 
	C874.666748,990.476624 864.823486,990.232239 855.003357,990.591614 
	C848.152649,990.842285 841.341125,990.819641 834.497803,990.557312 
	C827.674500,990.295776 820.832275,990.568237 814.000549,990.465149 
	C811.418884,990.426147 808.935547,990.683350 806.500000,991.500000 
"/>
<path fill="none" opacity="1.000000" stroke="#000000" stroke-linecap="round" stroke-linejoin="round" stroke-width="9.000000"
	d="
M431.500000,565.250000 
	C428.453491,564.280762 426.239471,562.441467 423.759216,560.275757 
	C418.985443,556.107300 412.756989,556.457947 406.467743,558.395325 
	C391.663818,562.955383 377.511871,569.204590 363.040649,574.608887 
	C349.682922,579.597168 336.695923,585.571716 323.485870,590.965393 
	C318.038788,593.189575 313.825012,596.751587 310.500000,601.500000 
"/>
<path fill="none" opacity="1.000000" stroke="#000000" stroke-linecap="round" stroke-linejoin="round" stroke-width="10.000000"
	d="
M1024.500000,89.000000 
	C1014.901733,88.266418 1005.400208,88.153343 995.977966,90.925011 
	C988.422180,93.147614 981.474304,96.358627 976.066589,102.063148 
	C971.293335,107.098457 969.746033,114.548836 973.394836,123.542664 
	C976.862793,132.090546 982.946655,138.138351 990.019165,143.474564 
	C993.744019,146.285019 997.621460,148.901520 1001.512390,151.481323 
	C1005.619385,154.204407 1007.828491,158.302567 1010.064026,162.465637 
	C1010.555725,163.381271 1010.772034,164.526962 1010.431213,164.943771 
	C1007.326965,168.740005 1008.939636,172.682358 1010.073547,176.478027 
	C1010.785706,178.862137 1010.216125,181.175034 1010.500000,183.500000 
"/>
<path fill="none" opacity="1.000000" stroke="#000000" stroke-linecap="round" stroke-linejoin="round" stroke-width="10.000000"
	d="
M464.500000,341.500000 
	C464.013550,347.641327 461.868591,353.194824 457.459869,357.458527 
	C438.729034,375.573120 416.434723,383.091766 390.497437,379.518707 
	C382.912933,378.473907 376.531311,374.923309 370.487549,370.517090 
	C369.408447,369.730316 368.161102,368.578491 367.000854,368.589447 
	C352.761841,368.724091 342.567474,361.103668 334.083130,350.930695 
	C325.272064,340.365906 318.545868,328.546631 317.042480,314.495453 
	C316.188568,306.514496 316.806458,298.637695 321.029053,291.517242 
	C323.449768,287.435272 322.314087,282.872467 321.718353,279.043823 
	C320.079468,268.510864 323.791565,259.517273 328.673584,251.100693 
	C334.097534,241.749893 341.770844,234.136581 350.392853,227.363586 
	C356.858398,222.284576 364.262573,222.624298 371.506744,221.545303 
	C374.465912,221.104553 377.500885,221.042282 380.499542,221.063904 
	C381.629883,221.072067 382.427551,220.602966 382.961456,219.967621 
	C385.800659,216.589035 389.988220,215.315186 393.483063,212.974701 
	C398.857758,209.375244 404.879456,210.738113 410.483307,211.201752 
	C417.076141,211.747223 423.675293,213.040512 430.024445,215.435196 
	C443.741333,220.608734 454.115051,229.837921 462.429993,241.549698 
	C465.089233,245.295273 464.544464,250.843948 466.846863,254.266663 
	C469.546326,258.279724 474.313599,260.982880 477.053253,265.467468 
	C480.652771,271.359650 482.411041,277.707275 483.012726,284.498871 
	C484.226624,298.201416 484.240723,311.808563 477.921722,324.460907 
	C474.716858,330.877930 470.783051,336.958862 464.500000,341.000000 
"/>
<path fill="none" opacity="1.000000" stroke="#000000" stroke-linecap="round" stroke-linejoin="round" stroke-width="10.000000"
	d="
M593.000000,142.000000 
	C595.666687,125.833336 598.475037,109.687813 600.893433,93.484100 
	C601.449463,89.758629 601.826172,85.241982 600.240356,82.132385 
	C597.562500,76.881561 593.861877,71.770912 587.496338,70.013222 
	C581.632141,68.393944 577.652283,70.771896 573.881104,75.403206 
	C568.522766,81.983696 567.787720,89.751480 566.497742,97.499626 
	C563.926514,112.943283 563.770264,128.822861 559.679565,143.913132 
	C557.664673,151.345917 558.075073,158.301788 558.657898,165.487198 
	C558.798889,167.225449 558.414795,168.527573 558.000000,170.000000 
"/>
<path fill="none" opacity="1.000000" stroke="#000000" stroke-linecap="round" stroke-linejoin="round" stroke-width="10.000000"
	d="
M1.500000,728.500000 
	C3.272732,732.827026 4.393166,737.820435 8.556466,740.409180 
	C18.008635,746.286499 27.070192,753.182068 38.998100,753.559998 
	C44.275047,753.727173 49.495949,753.615112 54.471920,751.917664 
	C57.554352,750.866150 60.221828,752.051025 62.990803,752.550964 
	C82.262520,756.030334 97.574516,747.745911 111.428581,735.916382 
	C119.948051,728.642029 127.850868,720.121826 131.157883,709.394531 
	C133.864365,700.615112 139.386200,692.937012 140.857285,683.976562 
	C143.833160,665.850403 140.273392,648.471436 132.414215,632.041016 
	C129.306717,625.544495 125.553406,619.388306 120.635834,613.878784 
	C117.143105,609.965515 112.967209,607.663208 108.483765,605.534180 
	C107.805298,605.212097 106.999451,605.740784 106.441193,604.527039 
	C101.941498,594.743835 92.403084,591.865234 83.462990,588.601379 
	C72.218590,584.496216 60.304665,583.535828 48.514244,584.650635 
	C33.701221,586.051208 19.668245,589.847473 10.933723,603.708252 
	C10.621670,604.203430 9.333332,604.083313 8.499999,604.250000 
"/>
<path fill="none" opacity="1.000000" stroke="#000000" stroke-linecap="round" stroke-linejoin="round" stroke-width="9.000000"
	d="
M120.750000,872.000000 
	C116.000000,861.000000 111.213150,850.015686 106.525894,838.989014 
	C105.352730,836.229309 104.056190,833.404541 103.587608,830.485962 
	C102.428459,823.266235 95.631844,821.370178 91.447350,817.051025 
	C88.404877,813.910400 84.320251,813.293579 79.998055,813.444214 
	C75.447350,813.602783 73.000710,815.815552 71.423393,819.970947 
	C69.543327,824.923889 69.836784,829.990662 70.146408,834.990906 
	C70.304413,837.542664 70.494835,840.000000 70.000000,842.500000 
"/>
<path fill="none" opacity="1.000000" stroke="#000000" stroke-linecap="round" stroke-linejoin="round" stroke-width="9.000000"
	d="
M178.000000,455.500000 
	C158.912155,459.341644 140.359268,465.277527 121.480934,469.922516 
	C107.110001,473.458496 92.752945,476.926697 79.000000,482.500000 
"/>
<path fill="none" opacity="1.000000" stroke="#000000" stroke-linecap="round" stroke-linejoin="round" stroke-width="9.000000"
	d="
M907.500000,444.000000 
	C904.473389,436.833344 906.515869,429.638367 907.553162,422.507721 
	C908.649170,414.973206 909.450134,407.277039 911.695435,400.060791 
	C914.085693,392.378326 909.981384,388.073303 905.491394,383.508453 
	C897.358459,375.239838 891.067383,378.653687 885.489380,388.994263 
	C880.095154,398.994110 878.530334,410.027039 877.089233,421.011719 
	C875.828369,430.622284 875.332581,440.333282 874.503662,450.000305 
	C874.475281,450.331238 874.634094,450.755554 874.480591,450.987122 
	C869.631470,458.301056 872.964844,465.961395 873.500000,473.500000 
"/>
<path fill="none" opacity="1.000000" stroke="#000000" stroke-linecap="round" stroke-linejoin="round" stroke-width="10.000000"
	d="
M687.000000,921.500000 
	C686.354553,917.693787 685.945801,913.890442 685.909973,910.000854 
	C685.878235,906.548157 679.698303,902.747742 674.500061,902.498901 
	C660.008240,901.805176 645.516113,901.359192 630.999634,901.430542 
	C622.168213,901.473938 613.326599,900.462891 604.502197,900.622620 
	C597.976318,900.740662 591.331299,901.596924 586.500000,907.000000 
"/>
<path fill="none" opacity="1.000000" stroke="#000000" stroke-linecap="round" stroke-linejoin="round" stroke-width="10.000000"
	d="
M645.000000,262.000000 
	C643.178162,261.457886 641.543762,260.516693 639.501831,260.446320 
	C626.520264,259.999084 613.769653,257.841278 600.974548,255.648560 
	C585.633057,253.019470 570.216187,250.848740 554.991272,247.540070 
	C552.887756,247.082916 550.666687,247.166672 548.500000,247.000000 
"/>
<path fill="none" opacity="1.000000" stroke="#000000" stroke-linecap="round" stroke-linejoin="round" stroke-width="11.000000"
	d="
M445.500000,1024.500000 
	C443.333344,1024.500000 441.166656,1024.500000 439.582520,1024.500000 
	C433.397614,1012.844788 424.266510,1005.266968 411.981506,1001.561279 
	C408.277130,1000.443909 404.518341,999.134583 400.497620,999.471802 
	C400.014984,999.512207 399.366364,999.307861 399.019440,998.979492 
	C388.755890,989.265869 376.467865,988.843933 363.492737,990.955383 
	C355.243713,992.297729 347.105530,994.053528 339.526703,997.557800 
	C327.738403,1003.008545 316.520538,1009.211182 314.860199,1024.500000 
	C310.179474,1024.500000 305.839752,1024.500000 301.500000,1024.500000 
"/>
<path fill="none" opacity="1.000000" stroke="#000000" stroke-linecap="round" stroke-linejoin="round" stroke-width="9.000000"
	d="
M162.500000,896.500000 
	C162.166672,893.000000 161.827789,889.500488 161.506302,885.999451 
	C161.460770,885.503601 161.713501,884.735779 161.469086,884.538269 
	C153.007996,877.702209 152.716660,866.889648 148.513214,857.993774 
	C143.762527,847.939819 140.700577,837.150818 135.059418,827.465393 
	C133.044861,824.006592 130.853424,820.832520 128.045517,817.955566 
	C123.191963,812.982605 114.152245,812.083984 107.997131,818.997437 
	C106.349670,820.847900 104.666641,822.666626 102.999977,824.500000 
"/>
<path fill="none" opacity="1.000000" stroke="#000000" stroke-linecap="round" stroke-linejoin="round" stroke-width="10.000000"
	d="
M581.000000,839.000000 
	C576.492432,836.713196 573.884155,832.602234 571.607300,828.441284 
	C570.163330,825.802551 568.907227,825.297180 565.977356,825.887756 
	C558.565369,827.381592 551.944519,830.844604 544.999939,833.499878 
	C531.849548,838.527954 519.767761,845.375854 508.984100,854.481140 
	C506.337677,856.715637 503.559204,858.772827 501.997803,861.998962 
	C499.162933,867.856262 498.315063,873.533386 502.959137,879.034485 
	C504.468079,880.821777 505.452454,882.766785 505.685822,885.484070 
	C506.158936,890.992981 510.570038,893.864868 514.980530,896.532166 
	C520.248108,899.717773 526.202209,900.930176 532.032593,901.775269 
	C536.019592,902.353210 539.302551,903.915955 541.112244,904.828613 
	C556.878113,902.210632 571.047485,898.434509 584.000000,909.000000 
"/>
<path fill="none" opacity="1.000000" stroke="#000000" stroke-linecap="round" stroke-linejoin="round" stroke-width="10.000000"
	d="
M1024.500000,600.500000 
	C1024.500000,603.000000 1024.500000,605.500000 1024.502563,608.002441 
	C1017.664917,611.717102 1013.427551,618.015686 1009.062500,624.045288 
	C1002.576477,633.004700 998.777954,643.191650 996.466614,653.992859 
	C994.597961,662.725220 996.471802,670.971619 999.584534,678.967102 
	C1001.493958,683.871704 1002.772095,688.422424 1002.898193,693.990967 
	C1003.126038,704.055847 1005.979492,713.999329 1013.013611,721.987976 
	C1015.428040,724.729980 1017.641357,727.860107 1020.590210,729.867493 
	C1024.328491,732.412537 1025.028442,735.549377 1024.500000,739.500000 
"/>
<path fill="none" opacity="1.000000" stroke="#000000" stroke-linecap="round" stroke-linejoin="round" stroke-width="10.000000"
	d="
M613.000000,507.000000 
	C619.449829,494.126434 627.031006,481.869507 633.757019,469.135742 
	C636.708801,463.547485 637.258972,458.873322 634.963440,453.515656 
	C633.144958,449.271240 630.996582,445.168304 629.001099,440.999481 
	C627.588196,438.047760 625.035522,437.687469 622.067200,436.780121 
	C610.071045,433.113220 597.549622,434.968567 585.495361,432.522980 
	C582.838562,431.983948 582.363647,434.483124 581.549377,436.026062 
	C576.452087,445.685577 575.942078,455.542206 579.342590,466.050934 
	C581.640076,473.150940 583.639099,480.305573 586.996887,487.001556 
	C591.896973,496.772858 599.247009,503.732239 610.025818,506.395599 
	C612.310547,506.960144 614.180359,508.042786 615.424194,509.562042 
	C625.052673,521.323242 638.536194,524.524353 652.513062,525.863464 
	C665.577148,527.115051 678.472534,525.687195 689.445312,517.427307 
	C693.726257,514.204712 698.345459,513.028992 703.437439,511.750824 
	C714.452271,508.986084 722.914307,501.730103 729.977722,492.982025 
	C735.471375,486.178009 739.531738,478.492279 742.975403,470.489410 
	C744.403809,467.169983 744.873413,463.542664 744.924255,459.998901 
	C745.012817,453.825348 743.063782,450.958893 736.978333,449.069794 
	C726.121948,445.699646 716.665588,439.251007 706.017090,435.452026 
	C702.875793,434.331329 699.816040,433.026978 696.500000,432.500000 
"/>
<path fill="none" opacity="1.000000" stroke="#000000" stroke-linecap="round" stroke-linejoin="round" stroke-width="10.000000"
	d="
M952.000000,560.500000 
	C947.172180,557.749451 941.600098,558.093506 936.484131,557.713196 
	C915.571960,556.158752 894.852051,552.981140 873.994446,551.060364 
	C871.370361,550.818604 868.616333,550.528442 866.000000,551.500000 
"/>
<path fill="none" opacity="1.000000" stroke="#000000" stroke-linecap="round" stroke-linejoin="round" stroke-width="10.000000"
	d="
M72.500000,191.500000 
	C80.733200,185.198257 89.714668,187.626373 98.487480,189.556900 
	C114.005547,192.971741 129.624939,195.913666 145.040863,199.839539 
	C149.551239,200.988159 152.645721,203.290237 155.500000,206.500000 
"/>
<path fill="none" opacity="1.000000" stroke="#000000" stroke-linecap="round" stroke-linejoin="round" stroke-width="9.000000"
	d="
M570.500000,826.000000 
	C572.585083,821.912903 576.895691,821.001526 580.554138,819.646118 
	C585.128418,817.951477 589.365662,815.027832 594.500000,815.020508 
	C595.195312,815.019531 595.722351,813.945618 596.500000,814.750000 
	C603.162292,807.001099 612.764648,804.233398 621.507446,800.015442 
	C622.396912,799.586365 623.374207,799.469727 624.019409,798.513123 
	C630.141602,789.436462 638.590942,782.401184 645.568787,774.057495 
	C650.579224,768.066345 653.614075,768.470764 660.438538,772.601562 
	C667.032349,776.592712 669.953064,783.548523 672.472107,790.510071 
	C673.475159,793.281982 674.303223,796.134583 674.977600,799.005249 
	C678.976440,816.028809 692.421021,820.913330 707.978394,812.460266 
	C711.782593,810.393250 715.026001,807.272034 719.500000,806.500000 
"/>
<path fill="none" opacity="1.000000" stroke="#000000" stroke-linecap="round" stroke-linejoin="round" stroke-width="9.000000"
	d="
M127.000008,299.000000 
	C130.166672,297.500000 133.243866,295.751312 136.525406,294.570618 
	C139.742004,293.413239 142.733643,293.836670 145.552933,296.442719 
	C153.351974,303.651917 155.480682,313.297974 157.473114,323.005524 
	C160.410568,337.317474 163.094040,351.681885 166.092285,365.980652 
	C166.465332,367.759674 167.033279,369.844238 168.961044,371.061707 
	C169.616135,371.475403 170.247040,372.343018 170.026047,373.504944 
	C168.896042,379.446442 170.181763,385.598480 168.500000,391.500000 
"/>
<path fill="none" opacity="1.000000" stroke="#000000" stroke-linecap="round" stroke-linejoin="round" stroke-width="8.000000"
	d="
M135.000000,364.000000 
	C134.169815,351.553619 132.028244,339.281830 129.964462,327.005981 
	C129.005920,321.304321 127.721352,315.654633 126.478561,310.004730 
	C125.783730,306.845886 124.935173,303.759399 125.911446,300.473694 
	C126.053169,299.996735 126.633362,299.368378 126.051697,298.466644 
	C122.738350,293.330139 120.516960,287.275635 115.438461,283.584686 
	C109.250603,279.087494 102.867668,279.970276 96.467514,283.947723 
	C86.248199,290.298676 75.326683,295.586395 66.519447,304.020325 
	C64.223640,306.218781 61.732262,308.399261 60.095264,311.058624 
	C57.167484,315.814941 54.683399,319.986786 58.108585,326.699707 
	C62.290604,334.895966 66.409103,343.222656 70.609207,351.444214 
	C75.082947,360.201355 78.970886,369.295349 84.464470,377.523712 
	C84.900688,378.177094 84.833328,379.166656 85.000000,380.000000 
"/>
<path fill="none" opacity="1.000000" stroke="#000000" stroke-linecap="round" stroke-linejoin="round" stroke-width="8.000000"
	d="
M381.500000,221.500000 
	C388.081146,234.736679 389.540375,249.314819 392.319794,263.307068 
	C404.505890,267.729126 416.536774,271.894867 428.043060,277.745941 
	C430.071472,287.228394 429.098297,297.211273 430.467529,307.004547 
	C430.999573,310.810089 431.061035,314.680328 431.554382,318.492950 
	C431.739838,319.926270 432.526703,321.056793 433.932922,322.091187 
	C438.369995,325.355011 442.458740,328.828064 447.943420,330.668579 
	C453.896362,332.666260 459.208954,336.299042 464.000000,340.500000 
"/>
<path fill="none" opacity="1.000000" stroke="#000000" stroke-linecap="round" stroke-linejoin="round" stroke-width="10.000000"
	d="
M315.500000,1.500000 
	C307.708954,2.925450 301.853638,6.804931 298.999268,14.499724 
	C294.742493,25.975147 290.024231,37.309044 290.937897,50.004471 
	C291.293182,54.941669 291.598480,59.675625 294.427612,64.046852 
	C296.716187,67.582947 297.540070,71.556099 297.678131,75.994461 
	C297.950073,84.737564 302.855103,91.671875 307.912018,98.564545 
	C314.700348,107.817184 322.652893,115.581703 332.474426,121.542137 
	C338.839142,125.404739 345.762726,126.672302 353.000000,127.000000 
"/>
<path fill="none" opacity="1.000000" stroke="#000000" stroke-linecap="round" stroke-linejoin="round" stroke-width="10.000000"
	d="
M672.000000,119.500000 
	C670.013733,113.371132 672.038208,107.428505 673.079834,101.514061 
	C674.275757,94.723846 670.974182,85.346107 665.506165,81.491219 
	C660.615479,78.043289 655.791443,78.501282 651.011169,81.517746 
	C647.518127,83.721977 644.792847,87.419006 640.000000,87.000000 
"/>
<path fill="none" opacity="1.000000" stroke="#000000" stroke-linecap="round" stroke-linejoin="round" stroke-width="9.000000"
	d="
M628.000000,147.000000 
	C629.500000,139.166656 631.026794,131.338333 632.493469,123.498772 
	C634.519409,112.670288 636.842651,101.881821 638.384888,90.983704 
	C639.494141,83.144417 638.314636,75.145760 634.854980,68.070923 
	C630.483765,59.132133 615.907837,59.483868 610.042175,66.535065 
	C608.431580,68.471100 607.230774,70.778091 606.026062,73.014046 
	C604.533203,75.784882 602.984009,78.477150 600.500000,80.500000 
"/>
<path fill="none" opacity="1.000000" stroke="#000000" stroke-linecap="round" stroke-linejoin="round" stroke-width="9.000000"
	d="
M962.500000,462.500000 
	C966.425293,450.792450 969.892944,438.951965 973.083313,427.022278 
	C973.615906,425.030731 973.997803,423.395386 973.025574,421.486969 
	C971.034424,417.578186 972.351501,413.036774 970.604919,408.955078 
	C969.269714,405.834625 967.966919,402.790741 966.030273,399.979156 
	C963.157043,395.807983 958.738770,394.351135 954.579163,395.737549 
	C950.152527,397.213043 944.732910,398.480682 943.934326,404.991943 
	C942.500061,416.687103 940.645813,428.330383 939.009460,440.001343 
	C938.286194,445.160034 937.667053,450.333405 936.999573,455.499939 
	C936.839722,456.737213 936.221375,457.610443 935.000000,458.000000 
"/>
<path fill="none" opacity="1.000000" stroke="#000000" stroke-linecap="round" stroke-linejoin="round" stroke-width="11.000000"
	d="
M435.500000,2.500000 
	C443.076477,4.689285 444.969727,11.866227 448.430420,17.542431 
	C451.744049,22.977446 453.688354,28.915710 452.560760,35.510387 
	C452.375854,36.591805 452.123169,37.830383 452.969269,39.021832 
	C457.461365,45.347542 455.117065,52.154739 454.681274,59.011520 
	C454.188293,66.768188 451.536804,73.614983 448.518585,80.508133 
	C446.773956,84.492622 444.692047,88.117859 440.500000,90.000000 
"/>
<path fill="none" opacity="1.000000" stroke="#000000" stroke-linecap="round" stroke-linejoin="round" stroke-width="8.000000"
	d="
M558.500000,857.750000 
	C542.038696,863.282837 526.964844,871.813416 511.495880,879.491699 
	C509.693054,880.386536 507.833344,881.166687 506.000000,882.000000 
"/>
<path fill="none" opacity="1.000000" stroke="#000000" stroke-linecap="round" stroke-linejoin="round" stroke-width="11.000000"
	d="
M431.500000,57.499996 
	C432.833344,65.500000 434.316437,73.479897 435.394897,81.514107 
	C435.665009,83.526215 436.349274,85.333595 437.578583,86.410286 
	C441.078278,89.475601 439.827667,92.802917 438.445343,95.976189 
	C435.418427,102.924744 430.389587,108.311523 424.517059,113.021263 
	C416.958405,119.083191 409.090790,124.391632 398.998962,124.982056 
	C397.873291,125.047905 396.911621,125.007385 395.966370,125.966881 
	C391.708740,130.288696 386.180420,131.025238 380.500214,130.974838 
	C373.832611,130.915680 367.167358,130.609375 360.499664,130.527130 
	C357.684845,130.492432 355.840454,128.483398 353.500000,127.500000 
"/>
<path fill="none" opacity="1.000000" stroke="#000000" stroke-linecap="round" stroke-linejoin="round" stroke-width="8.000000"
	d="
M921.000000,232.000000 
	C905.121399,232.026794 889.331848,230.349472 873.509521,229.349762 
	C872.577332,229.290863 870.678223,229.849411 869.981201,228.007111 
	C867.081726,220.342773 860.625305,215.412628 855.442627,209.550705 
	C847.124512,200.142395 847.251282,200.402863 852.397644,188.455917 
	C855.680542,180.834976 859.319397,173.415710 863.000000,166.000000 
"/>
<path fill="none" opacity="1.000000" stroke="#000000" stroke-linecap="round" stroke-linejoin="round" stroke-width="9.000000"
	d="
M672.000000,463.000000 
	C678.500000,476.000000 685.076050,488.962921 691.444946,502.026855 
	C692.981934,505.179657 693.833313,508.666656 695.000000,512.000000 
"/>
<path fill="none" opacity="1.000000" stroke="#000000" stroke-linecap="round" stroke-linejoin="round" stroke-width="10.000000"
	d="
M311.000000,610.000000 
	C311.166687,608.833313 311.299042,607.660522 311.506897,606.501221 
	C311.982941,603.846924 311.145142,601.811707 308.490570,601.032104 
	C303.589813,599.592773 298.653595,598.514282 293.493591,599.977478 
	C286.472015,601.968384 279.343506,603.349182 272.000793,603.531616 
	C267.682861,603.638794 264.416809,606.053284 261.500000,609.000000 
"/>
<path fill="none" opacity="1.000000" stroke="#000000" stroke-linecap="round" stroke-linejoin="round" stroke-width="8.000000"
	d="
M95.500000,323.750000 
	C99.287384,325.944275 98.987366,330.120117 99.908714,333.524689 
	C102.941742,344.732422 105.817291,355.981018 109.535774,366.987915 
	C109.932899,368.163391 109.759819,369.827301 111.500000,370.250000 
"/>
<path fill="none" opacity="1.000000" stroke="#000000" stroke-linecap="round" stroke-linejoin="round" stroke-width="8.000000"
	d="
M884.500000,762.000000 
	C876.084351,769.602966 865.859680,774.823792 857.503113,782.503418 
	C856.595703,783.337341 855.445496,783.218872 854.511597,782.958374 
	C846.058594,780.600647 837.747986,777.813110 829.017456,776.392700 
	C822.361633,775.309875 815.774719,773.968872 809.000000,774.000000 
"/>
<path fill="none" opacity="1.000000" stroke="#000000" stroke-linecap="round" stroke-linejoin="round" stroke-width="8.000000"
	d="
M432.000000,321.000000 
	C422.741638,325.761566 412.667633,327.225067 402.509735,328.573395 
	C396.789032,329.332764 391.166656,330.833344 385.500000,332.000000 
"/>
<path fill="none" opacity="1.000000" stroke="#000000" stroke-linecap="round" stroke-linejoin="round" stroke-width="9.000000"
	d="
M95.000000,885.500000 
	C90.070244,874.602295 83.386581,864.651367 77.983208,854.008545 
	C77.611641,853.276611 76.696663,852.726746 76.550766,851.989929 
	C75.783844,848.117065 73.542610,844.245850 70.407188,843.311401 
	C65.766518,841.928406 60.555866,841.224670 55.497982,842.491943 
	C50.780689,843.673889 49.041882,847.367310 48.030846,851.507507 
	C46.250393,858.798645 48.878231,865.842590 49.558914,872.994385 
	C49.610565,873.537048 50.517040,873.984192 50.997437,874.502380 
	C58.814777,882.934814 65.136543,892.487976 71.461494,902.025513 
	C73.220596,904.678101 75.354103,905.958435 78.500000,905.500000 
"/>
<path fill="none" opacity="1.000000" stroke="#000000" stroke-linecap="round" stroke-linejoin="round" stroke-width="10.000000"
	d="
M70.250000,202.500000 
	C69.383781,198.602722 70.299393,194.988922 71.997795,191.774704 
	C67.412796,184.436722 59.866192,183.132523 52.498184,181.508240 
	C48.508373,180.628693 44.445194,180.029953 40.518063,178.935226 
	C37.593090,178.119858 34.920738,178.301788 31.976282,178.879013 
	C28.810099,179.499680 26.949490,180.824402 26.503717,184.000519 
	C26.013155,187.495773 24.041512,189.183151 20.500000,189.000000 
"/>
<path fill="none" opacity="1.000000" stroke="#000000" stroke-linecap="round" stroke-linejoin="round" stroke-width="9.000000"
	d="
M60.500000,705.500000 
	C59.812931,714.347107 58.213005,723.082581 57.828526,731.992615 
	C57.561916,738.170959 58.072582,744.344299 57.500000,750.500000 
"/>
<path fill="none" opacity="1.000000" stroke="#000000" stroke-linecap="round" stroke-linejoin="round" stroke-width="9.000000"
	d="
M466.250000,559.000000 
	C465.545074,557.487610 466.311920,556.226257 467.012451,555.007141 
	C468.873260,551.768982 467.597076,549.567139 464.479980,548.562012 
	C459.954498,547.102783 455.505341,545.669495 450.452362,547.357422 
	C446.353668,548.726562 441.841370,548.892090 437.498108,549.486206 
	C431.018127,550.372620 426.989655,554.217346 424.500000,560.000000 
"/>
<path fill="none" opacity="1.000000" stroke="#000000" stroke-linecap="round" stroke-linejoin="round" stroke-width="8.000000"
	d="
M323.000000,288.500000 
	C330.885895,290.412933 339.008514,290.447327 346.993652,291.546082 
	C353.857574,292.490540 360.666656,293.833344 367.500000,295.000000 
"/>
<path fill="none" opacity="1.000000" stroke="#000000" stroke-linecap="round" stroke-linejoin="round" stroke-width="10.000000"
	d="
M889.000000,21.500000 
	C877.000000,21.500000 864.963318,22.077948 853.011475,21.319118 
	C843.259460,20.699959 833.653687,23.254898 824.013184,21.905832 
	C818.681946,21.159782 813.077881,22.730696 807.994385,20.010448 
	C807.536377,19.765352 806.913147,19.405018 806.512634,19.537973 
	C794.016174,23.685913 781.149353,20.501381 768.499634,21.495029 
	C766.663818,21.639235 764.771790,21.156641 763.000000,22.000000 
"/>
<path fill="none" opacity="1.000000" stroke="#000000" stroke-linecap="round" stroke-linejoin="round" stroke-width="10.000000"
	d="
M197.500000,214.000000 
	C193.475708,208.253448 186.932083,207.979187 180.987396,206.552536 
	C177.053955,205.608536 172.987640,205.232666 169.002563,204.486359 
	C160.562454,202.905716 152.935135,205.049255 153.475723,216.501144 
	C153.498917,216.992188 153.166656,217.500000 152.999985,218.000000 
"/>
<path fill="none" opacity="1.000000" stroke="#000000" stroke-linecap="round" stroke-linejoin="round" stroke-width="9.000000"
	d="
M649.000000,394.000000 
	C645.365356,402.174591 639.893188,409.269501 635.415955,416.951019 
	C631.606262,423.487366 628.815125,430.365997 626.500000,437.500000 
"/>
<path fill="none" opacity="1.000000" stroke="#000000" stroke-linecap="round" stroke-linejoin="round" stroke-width="8.000000"
	d="
M106.500000,606.000000 
	C98.390549,614.689392 93.402023,625.388489 87.494385,635.496704 
	C86.337112,637.476868 86.900909,639.050781 87.920174,641.040894 
	C93.229065,651.406433 97.579720,662.058594 98.202728,673.989441 
	C98.323334,676.298950 96.967041,678.764282 98.500000,681.000000 
"/>
<path fill="none" opacity="1.000000" stroke="#000000" stroke-linecap="round" stroke-linejoin="round" stroke-width="10.000000"
	d="
M945.500000,400.000000 
	C942.250610,395.836029 941.348999,390.587646 939.040100,385.979919 
	C936.344910,380.601135 933.981750,378.943268 929.000061,378.937775 
	C926.323181,378.934814 924.696045,380.304657 922.980896,381.980469 
	C919.692871,385.192902 917.329102,389.381531 913.000000,391.500000 
"/>
<path fill="none" opacity="1.000000" stroke="#000000" stroke-linecap="round" stroke-linejoin="round" stroke-width="8.000000"
	d="
M882.500000,720.000000 
	C883.166687,732.833313 883.825256,745.667114 884.511230,758.499390 
	C884.589233,759.959778 884.747498,761.181580 886.468079,762.062317 
	C897.844360,767.885803 907.141968,776.581665 917.000000,784.500000 
"/>
<path fill="none" opacity="1.000000" stroke="#000000" stroke-linecap="round" stroke-linejoin="round" stroke-width="10.000000"
	d="
M856.500000,784.000000 
	C858.500000,793.166687 860.651917,802.304077 862.425293,811.514404 
	C863.135498,815.203247 864.815430,817.210266 868.490295,818.042786 
	C878.872742,820.395081 889.332520,821.914185 899.999207,821.480469 
	C906.860901,821.201538 906.411926,821.451599 908.485229,814.495605 
	C911.212036,805.346863 913.956177,796.199585 916.422791,786.979370 
	C917.132874,784.325256 918.916138,783.910034 920.956726,782.911499 
	C930.632263,778.177002 940.996582,775.324402 950.997620,771.493774 
	C952.182007,771.040039 953.333313,770.500000 954.500000,770.000000 
"/>
<path fill="none" opacity="1.000000" stroke="#000000" stroke-linecap="round" stroke-linejoin="round" stroke-width="9.000000"
	d="
M86.250000,638.000000 
	C75.877739,636.639526 65.506790,635.635620 54.997372,635.892578 
	C49.164318,636.035278 44.858253,637.213440 42.915318,643.473694 
	C41.237762,648.878967 37.925407,653.617981 35.770641,658.906555 
	C34.131813,662.928772 34.619534,667.058960 33.255402,671.086487 
	C31.248053,677.013245 27.249222,678.694519 22.001093,679.507080 
	C16.829376,680.307800 11.660782,681.132446 6.503408,682.019775 
	C4.853984,682.303528 3.738735,683.355835 3.250000,685.000000 
"/>
<path fill="none" opacity="1.000000" stroke="#000000" stroke-linecap="round" stroke-linejoin="round" stroke-width="8.000000"
	d="
M134.000000,697.000000 
	C123.363495,690.420532 111.597137,686.411316 100.030724,681.920837 
	C98.183632,681.203796 97.580437,682.150146 96.484566,682.979614 
	C86.835808,690.283203 76.250336,696.131470 65.987732,702.480164 
	C64.409431,703.456543 62.667580,704.168457 60.738758,705.134216 
	C50.667854,699.640015 43.838348,690.537292 36.541714,681.964478 
	C34.891541,680.025757 33.332146,678.117981 31.000000,677.000000 
"/>
<path fill="none" opacity="1.000000" stroke="#000000" stroke-linecap="round" stroke-linejoin="round" stroke-width="2.000000"
	d="
M803.500000,3.000000 
	C802.385864,2.377384 801.442566,1.445954 799.999634,1.486671 
	C788.502258,1.811099 776.986145,0.879168 765.500000,2.000000 
"/>
<path fill="none" opacity="1.000000" stroke="#000000" stroke-linecap="round" stroke-linejoin="round" stroke-width="8.000000"
	d="
M863.500000,817.000000 
	C857.458862,822.791016 854.052185,830.484741 849.154785,837.114380 
	C844.680786,843.170898 840.320618,849.175415 834.500000,854.000000 
"/>
<path fill="none" opacity="1.000000" stroke="#000000" stroke-linecap="round" stroke-linejoin="round" stroke-width="10.000000"
	d="
M576.500000,687.999939 
	C588.166687,687.833313 599.843567,687.290039 611.497070,687.607239 
	C622.843811,687.916138 634.124146,688.240234 645.511963,687.901611 
	C656.938477,687.561829 668.473755,688.454651 680.003296,688.110046 
	C691.321533,687.771851 702.666199,688.400208 714.000122,688.481384 
	C725.666199,688.565002 737.333313,688.500000 749.000000,688.500000 
"/>
<path fill="none" opacity="1.000000" stroke="#000000" stroke-linecap="round" stroke-linejoin="round" stroke-width="9.000000"
	d="
M365.000000,81.500000 
	C377.344513,73.093712 388.795746,63.750183 396.977020,51.775402 
	C392.240570,41.071259 386.726074,31.590034 380.584534,22.443251 
	C379.172180,20.339821 378.357880,19.589270 375.485474,19.816648 
	C366.692566,20.512690 357.828156,19.613657 348.997223,20.471420 
	C339.179596,21.425024 340.790955,20.983755 338.213470,30.557470 
	C335.727295,39.791962 335.000000,49.500000 333.500000,59.000000 
"/>
<path fill="none" opacity="1.000000" stroke="#000000" stroke-linecap="round" stroke-linejoin="round" stroke-width="8.000000"
	d="
M870.500000,229.500000 
	C861.382751,241.803024 853.580811,255.147293 842.000000,265.500000 
"/>
<path fill="none" opacity="1.000000" stroke="#000000" stroke-linecap="round" stroke-linejoin="round" stroke-width="7.000000"
	d="
M466.000000,255.500000 
	C457.350769,261.777008 446.754089,264.416779 437.997589,270.496552 
	C434.845917,272.684784 431.666656,274.833313 428.500000,277.000000 
"/>
<path fill="none" opacity="1.000000" stroke="#000000" stroke-linecap="round" stroke-linejoin="round" stroke-width="9.000000"
	d="
M804.000000,249.000000 
	C814.069397,255.440125 824.984619,259.921417 836.501648,262.993744 
	C840.948853,264.180084 843.607788,267.035889 844.484070,271.503113 
	C845.246521,275.390198 846.968933,278.900269 848.477539,282.509399 
	C850.486450,287.315430 852.190735,292.152557 852.607239,297.491638 
	C853.052856,303.205383 855.009705,304.593018 861.000427,304.994049 
	C863.998108,305.194733 867.000244,305.328888 869.999939,305.501190 
	C873.518066,305.703247 876.244873,307.407837 878.500000,310.000000 
"/>
<path fill="none" opacity="1.000000" stroke="#000000" stroke-linecap="round" stroke-linejoin="round" stroke-width="9.000000"
	d="
M55.000000,320.500000 
	C47.335915,324.057129 45.192047,331.021210 44.023636,338.503693 
	C43.114674,344.324646 43.166721,350.285736 41.500000,356.000000 
"/>
<path fill="none" opacity="1.000000" stroke="#000000" stroke-linecap="round" stroke-linejoin="round" stroke-width="2.000000"
	d="
M886.500000,2.000000 
	C874.166687,1.179513 861.833313,1.179513 849.500000,2.000000 
"/>
<path fill="none" opacity="1.000000" stroke="#000000" stroke-linecap="round" stroke-linejoin="round" stroke-width="8.000000"
	d="
M391.500000,264.000000 
	C384.297546,271.904694 378.202240,280.704041 371.396484,288.914185 
	C366.472656,294.854095 369.621582,300.036865 371.524506,305.491455 
	C374.444458,313.861176 379.554047,321.144165 383.649780,328.921112 
	C385.395264,332.235443 384.610779,334.365082 383.019348,337.011627 
	C377.029510,346.972473 372.303101,357.525757 368.500000,368.500000 
"/>
<path fill="none" opacity="1.000000" stroke="#000000" stroke-linecap="round" stroke-linejoin="round" stroke-width="9.000000"
	d="
M748.500000,651.499939 
	C746.000000,651.333313 743.500366,651.028687 740.999939,651.022217 
	C724.333374,650.979309 707.666016,650.925049 691.000610,651.072388 
	C688.162781,651.097473 685.333313,649.630066 682.500000,651.000000 
"/>
<path fill="none" opacity="1.000000" stroke="#000000" stroke-linecap="round" stroke-linejoin="round" stroke-width="10.000000"
	d="
M576.500000,650.500000 
	C586.484924,649.428040 596.505859,649.995728 606.497742,650.148438 
	C609.973022,650.201477 613.501831,650.458862 617.000122,650.470459 
	C635.833191,650.532959 654.666687,650.503845 673.500000,650.494934 
	C675.712036,650.493896 677.976685,650.765320 680.000000,649.500000 
"/>
<path fill="none" opacity="1.000000" stroke="#000000" stroke-linecap="round" stroke-linejoin="round" stroke-width="8.000000"
	d="
M11.000000,604.500000 
	C19.632475,612.019775 28.878546,618.856934 36.505260,627.495361 
	C39.473160,630.856995 42.499996,634.166687 45.499996,637.500000 
"/>
<path fill="none" opacity="1.000000" stroke="#000000" stroke-linecap="round" stroke-linejoin="round" stroke-width="8.000000"
	d="
M906.499939,821.000000 
	C915.499939,832.000000 924.499939,843.000000 933.499939,854.000000 
"/>
<path fill="none" opacity="1.000000" stroke="#000000" stroke-linecap="round" stroke-linejoin="round" stroke-width="11.000000"
	d="
M272.000000,806.000000 
	C280.330200,805.588257 288.780212,805.228088 296.987518,805.453796 
	C306.643005,805.719360 316.336548,805.773132 326.001251,805.913879 
	C338.662811,806.098328 351.332977,805.622803 364.000122,805.514893 
	C372.999481,805.438232 382.000031,805.486328 390.999969,805.507263 
	C394.254028,805.514832 397.381348,804.672424 400.532928,804.239929 
	C405.071930,803.617065 409.791168,804.969971 414.494568,805.145386 
	C421.016144,805.388611 427.500000,805.821777 434.000000,805.000000 
"/>
<path fill="none" opacity="1.000000" stroke="#000000" stroke-linecap="round" stroke-linejoin="round" stroke-width="10.000000"
	d="
M627.000000,374.000000 
	C633.168579,381.462769 641.749817,386.171265 648.701904,392.787872 
	C650.529968,394.527710 654.838013,393.627502 657.999084,394.007355 
	C667.155090,395.107574 676.495667,394.511871 685.500000,397.000000 
"/>
<path fill="none" opacity="1.000000" stroke="#000000" stroke-linecap="round" stroke-linejoin="round" stroke-width="9.000000"
	d="
M719.500000,617.500000 
	C719.500000,623.333313 719.455139,629.167114 719.508728,634.999939 
	C719.649658,650.333496 719.817566,665.666870 720.019287,680.999756 
	C720.045593,683.001587 720.333313,685.000000 720.500000,687.000000 
"/>
<path fill="none" opacity="1.000000" stroke="#000000" stroke-linecap="round" stroke-linejoin="round" stroke-width="8.000000"
	d="
M647.500000,651.000000 
	C647.262390,662.832336 647.974243,674.678040 647.000000,686.500000 
"/>
<path fill="none" opacity="1.000000" stroke="#000000" stroke-linecap="round" stroke-linejoin="round" stroke-width="9.000000"
	d="
M610.500000,617.500000 
	C610.333313,619.166687 609.966064,620.841125 610.030457,622.498840 
	C610.858765,643.842102 609.447693,665.164978 609.500000,686.500000 
"/>
<path fill="none" opacity="1.000000" stroke="#000000" stroke-linecap="round" stroke-linejoin="round" stroke-width="9.000000"
	d="
M682.000000,617.500000 
	C680.743835,623.616760 681.183167,629.822205 680.965820,635.998779 
	C680.536743,648.193604 682.788452,660.296936 682.032104,672.502014 
	C681.743713,677.156433 680.885254,681.833313 682.000000,686.500000 
"/>
<path fill="none" opacity="1.000000" stroke="#000000" stroke-linecap="round" stroke-linejoin="round" stroke-width="9.000000"
	d="
M397.000000,124.500000 
	C394.011810,119.668549 389.002289,118.309341 383.985657,117.601784 
	C378.390137,116.812592 373.341217,114.472023 368.342560,113.059181 
	C364.337891,104.605331 365.616364,95.736130 365.496582,87.000046 
	C365.453003,83.823174 364.637207,81.383057 361.565521,79.398598 
	C353.252625,74.028069 344.351257,69.439163 337.455841,62.041164 
	C335.508881,59.952301 333.100647,59.939522 329.975739,60.272308 
	C318.701813,61.472919 308.678802,66.543106 298.000000,69.500000 
"/>
<path fill="none" opacity="1.000000" stroke="#000000" stroke-linecap="round" stroke-linejoin="round" stroke-width="10.000000"
	d="
M711.500000,378.000000 
	C708.333252,381.233246 704.466187,383.391846 700.542725,385.576752 
	C697.006653,387.545990 693.891113,390.255127 690.486389,392.479156 
	C685.476379,395.751709 685.890686,400.185455 687.491455,405.002838 
	C690.134827,412.957397 693.004395,420.826996 695.207886,428.943573 
	C695.955688,431.698456 695.680054,433.320435 693.975769,434.975067 
	C690.869568,437.990753 689.138672,441.917145 687.097900,445.554901 
	C683.513184,451.945068 678.807556,457.131378 673.081665,461.604553 
	C672.129578,462.348297 671.380981,462.585480 670.504639,462.466034 
	C659.711426,460.994690 648.811523,461.972870 638.000000,461.000000 
"/>
<path fill="none" opacity="1.000000" stroke="#000000" stroke-linecap="round" stroke-linejoin="round" stroke-width="9.000000"
	d="
M333.500000,752.000000 
	C321.831970,752.070801 310.156097,751.593811 298.500000,752.500000 
"/>
<path fill="none" opacity="1.000000" stroke="#000000" stroke-linecap="round" stroke-linejoin="round" stroke-width="9.000000"
	d="
M785.000000,186.500000 
	C792.671021,193.003525 801.932007,197.104980 809.961304,203.052231 
	C811.407471,204.123413 812.536377,204.015915 814.005249,203.515396 
	C824.706665,199.868820 835.586182,197.465256 847.000000,199.000000 
"/>
<path fill="none" opacity="1.000000" stroke="#000000" stroke-linecap="round" stroke-linejoin="round" stroke-width="9.000000"
	d="
M370.000000,718.000000 
	C370.252716,730.332153 370.082092,742.666016 370.327026,755.003418 
	C370.591461,768.321594 369.450409,781.665161 369.038086,795.001160 
	C368.945587,797.993164 369.333344,801.000000 369.500000,804.000000 
"/>
<path fill="none" opacity="1.000000" stroke="#000000" stroke-linecap="round" stroke-linejoin="round" stroke-width="9.000000"
	d="
M333.000000,783.000000 
	C322.350616,784.272278 311.681824,784.520630 301.001678,783.482849 
	C297.461212,783.138855 296.935791,785.037170 296.946533,788.000183 
	C296.966492,793.499512 296.666687,799.000000 296.500000,804.500000 
"/>
<path fill="none" opacity="1.000000" stroke="#000000" stroke-linecap="round" stroke-linejoin="round" stroke-width="9.000000"
	d="
M397.500000,51.000000 
	C407.943298,50.979294 418.068420,53.165569 427.950684,56.162647 
	C431.618835,57.275124 433.818085,56.063053 435.946289,53.946014 
	C437.867340,52.035091 439.448883,49.744644 440.974976,47.483116 
	C443.798859,43.298344 446.885925,39.490719 452.000000,38.000000 
"/>
<path fill="none" opacity="1.000000" stroke="#000000" stroke-linecap="round" stroke-linejoin="round" stroke-width="8.000000"
	d="
M647.000000,617.000000 
	C647.943604,627.988220 647.322266,639.000183 647.500000,650.000000 
"/>
<path fill="none" opacity="1.000000" stroke="#000000" stroke-linecap="round" stroke-linejoin="round" stroke-width="8.000000"
	d="
M297.500000,718.500000 
	C297.500000,729.500000 297.500000,740.500000 297.500000,751.500000 
"/>
<path fill="none" opacity="1.000000" stroke="#000000" stroke-linecap="round" stroke-linejoin="round" stroke-width="8.000000"
	d="
M403.000000,718.000000 
	C403.971710,728.850830 403.718414,739.682861 402.500000,750.500000 
"/>
<path fill="none" opacity="1.000000" stroke="#000000" stroke-linecap="round" stroke-linejoin="round" stroke-width="9.000000"
	d="
M334.500000,719.000000 
	C333.871765,729.666687 333.608490,740.333313 334.500000,751.000000 
"/>
<path fill="none" opacity="1.000000" stroke="#000000" stroke-linecap="round" stroke-linejoin="round" stroke-width="10.000000"
	d="
M334.000000,783.000000 
	C365.666656,782.833374 397.333374,782.673828 428.999878,782.479797 
	C430.667480,782.469604 432.333313,782.166626 434.000000,781.999939 
"/>
<path fill="none" opacity="1.000000" stroke="#000000" stroke-linecap="round" stroke-linejoin="round" stroke-width="9.000000"
	d="
M434.000000,750.500000 
	C418.843628,751.603699 403.665710,750.734680 388.499817,750.988159 
	C382.461761,751.089111 376.378632,750.543518 370.500000,752.500000 
"/>
<path fill="none" opacity="1.000000" stroke="#000000" stroke-linecap="round" stroke-linejoin="round" stroke-width="10.000000"
	d="
M806.000000,992.500000 
	C806.807434,997.478638 806.383972,1002.498108 806.507141,1007.499817 
	C806.642639,1013.000610 806.833313,1018.500000 807.000000,1024.000000 
"/>
<path fill="none" opacity="1.000000" stroke="#000000" stroke-linecap="round" stroke-linejoin="round" stroke-width="10.000000"
	d="
M845.000000,992.500000 
	C846.070923,1002.985657 845.240784,1013.501465 845.500000,1024.000000 
"/>
<path fill="none" opacity="1.000000" stroke="#000000" stroke-linecap="round" stroke-linejoin="round" stroke-width="2.000000"
	d="
M840.500000,2.000000 
	C831.350830,0.869938 822.163696,1.816874 813.000427,1.487899 
	C811.557129,1.436082 810.614136,2.377384 809.500000,3.000000 
"/>
<path fill="none" opacity="1.000000" stroke="#000000" stroke-linecap="round" stroke-linejoin="round" stroke-width="9.000000"
	d="
M402.500000,751.500000 
	C402.333344,761.666687 402.166656,771.833313 402.000000,782.000000 
"/>
<path fill="none" opacity="1.000000" stroke="#000000" stroke-linecap="round" stroke-linejoin="round" stroke-width="10.000000"
	d="
M2.000000,160.500000 
	C3.763444,166.837357 9.264865,168.520630 14.503625,170.490356 
	C19.835596,172.495102 25.297447,174.279068 28.000000,180.000000 
"/>
<path fill="none" opacity="1.000000" stroke="#000000" stroke-linecap="round" stroke-linejoin="round" stroke-width="8.000000"
	d="
M399.500000,1000.000000 
	C396.411499,1006.896729 394.418121,1014.219055 391.110138,1021.053284 
	C389.796875,1023.766479 388.402893,1025.014038 385.500000,1024.500000 
"/>
<path fill="none" opacity="1.000000" stroke="#000000" stroke-linecap="round" stroke-linejoin="round" stroke-width="8.000000"
	d="
M341.000000,22.000000 
	C335.813354,18.444435 332.252594,13.327455 328.598297,8.426702 
	C325.680756,4.514008 322.138702,2.305867 317.500000,1.500000 
"/>
<path fill="none" opacity="1.000000" stroke="#000000" stroke-linecap="round" stroke-linejoin="round" stroke-width="10.000000"
	d="
M76.000000,104.500000 
	C73.876205,98.975609 69.019585,95.806816 64.930260,92.076454 
	C61.453194,88.904610 58.114716,85.702133 56.065243,81.468414 
	C55.067268,79.406845 53.716076,80.155632 52.512669,80.539696 
	C45.985970,82.622704 39.331604,84.445236 33.070297,87.162010 
	C29.889435,88.542191 26.940374,89.763901 23.500778,89.490211 
	C17.645527,89.024300 11.881305,91.512329 6.000000,90.000000 
"/>
<path fill="none" opacity="1.000000" stroke="#000000" stroke-linecap="round" stroke-linejoin="round" stroke-width="9.000000"
	d="
M297.000000,785.000000 
	C288.393646,783.098755 279.665619,784.360352 271.000000,784.000000 
"/>
<path fill="none" opacity="1.000000" stroke="#000000" stroke-linecap="round" stroke-linejoin="round" stroke-width="8.000000"
	d="
M295.500000,506.000000 
	C301.269745,512.320679 309.112396,515.301453 316.530487,518.937805 
	C317.303772,519.316895 318.500000,518.833313 319.500000,518.750000 
"/>
<path fill="none" opacity="1.000000" stroke="#000000" stroke-linecap="round" stroke-linejoin="round" stroke-width="8.000000"
	d="
M853.500000,303.000000 
	C848.833313,307.333344 844.033997,311.535797 839.566589,316.065704 
	C837.825989,317.830688 836.833313,320.333344 835.500000,322.500000 
"/>
<path fill="none" opacity="1.000000" stroke="#000000" stroke-linecap="round" stroke-linejoin="round" stroke-width="8.000000"
	d="
M274.500000,522.000000 
	C279.801178,528.434082 285.965179,533.540771 294.500000,535.000000 
"/>
<path fill="none" opacity="1.000000" stroke="#000000" stroke-linecap="round" stroke-linejoin="round" stroke-width="8.000000"
	d="
M1024.250000,683.500000 
	C1017.681335,685.751343 1010.786804,686.352966 1004.000000,687.500000 
"/>
<path fill="none" opacity="1.000000" stroke="#000000" stroke-linecap="round" stroke-linejoin="round" stroke-width="10.000000"
	d="
M84.000000,68.000000 
	C88.049362,74.631531 94.096252,79.647057 98.548691,85.965691 
	C99.642204,87.517540 101.641426,87.639687 103.500000,87.500000 
"/>
<path fill="none" opacity="1.000000" stroke="#000000" stroke-linecap="round" stroke-linejoin="round" stroke-width="8.000000"
	d="
M390.500000,2.500000 
	C385.408997,5.605998 385.054443,11.859108 381.540283,16.033911 
	C380.606903,17.142736 380.166687,18.666670 379.500000,20.000004 
"/>
<path fill="none" opacity="1.000000" stroke="#000000" stroke-linecap="round" stroke-linejoin="round" stroke-width="9.000000"
	d="
M29.000000,90.000000 
	C29.929569,93.588928 32.400517,96.094131 35.003017,98.496735 
	C37.949043,101.216469 40.480087,104.233971 42.000000,108.000000 
"/>
<path fill="none" opacity="1.000000" stroke="#000000" stroke-linecap="round" stroke-linejoin="round" stroke-width="10.000000"
	d="
M321.000000,485.500000 
	C325.000000,489.500000 328.989960,493.510101 333.003876,497.496094 
	C335.354919,499.830780 337.927216,501.738007 341.500000,501.500000 
"/>
<path fill="none" opacity="1.000000" stroke="#000000" stroke-linecap="round" stroke-linejoin="round" stroke-width="8.000000"
	d="
M624.000000,800.000000 
	C628.847107,804.933228 636.026489,806.262024 641.000000,811.000000 
"/>
<path fill="none" opacity="1.000000" stroke="#000000" stroke-linecap="round" stroke-linejoin="round" stroke-width="8.000000"
	d="
M596.000000,815.000000 
	C600.253052,820.809937 605.454468,825.606140 611.500000,829.500000 
"/>
<path fill="none" opacity="1.000000" stroke="#000000" stroke-linecap="round" stroke-linejoin="round" stroke-width="9.000000"
	d="
M402.000000,783.000000 
	C402.000000,789.666687 402.000000,796.333313 402.000000,803.000000 
"/>
</svg>