<svg version="1.1" id="Layer_1" xmlns="http://www.w3.org/2000/svg" xmlns:xlink="http://www.w3.org/1999/xlink" x="0px" y="0px"
	 width="100%" viewBox="0 0 1024 1024" enable-background="new 0 0 1024 1024" xml:space="preserve">
<path fill="none" opacity="1.000000" stroke="#000000" stroke-linecap="round" stroke-linejoin="round" stroke-width="10.000000"
	d="
M377.500000,740.000000 
	C381.080017,726.307068 380.057495,712.270874 379.244843,698.515076 
	C377.895386,675.673706 379.620941,652.791931 377.515167,629.998596 
	C377.137726,625.912964 375.760803,624.509277 371.500000,624.507751 
	C334.833344,624.494263 298.163788,624.225342 261.501099,624.606567 
	C240.669220,624.823120 219.830948,625.192261 199.004471,625.687866 
	C191.354172,625.869934 183.677795,626.380859 176.000626,626.531982 
	C172.135345,626.608093 170.441956,628.491394 170.520416,632.499573 
	C170.771622,645.332214 170.475388,658.161194 170.856308,671.004272 
	C171.414444,689.821045 170.922577,708.667236 171.054886,727.499634 
	C171.087616,732.160522 169.230316,736.856873 171.396774,741.547668 
	C171.824646,742.474121 169.689835,743.486145 170.000000,745.000000 
"/>
<path fill="none" opacity="1.000000" stroke="#000000" stroke-linecap="round" stroke-linejoin="round" stroke-width="10.000000"
	d="
M1024.500000,347.500000 
	C1009.833313,347.500000 995.166443,347.553375 980.500061,347.488739 
	C951.333191,347.360199 922.159790,347.489807 893.002747,346.870026 
	C877.330139,346.536896 861.666138,346.728058 845.999756,346.516785 
	C840.593018,346.443878 839.506348,347.595978 839.503967,353.000000 
	C839.494446,374.333344 839.188416,395.672791 839.608337,416.997864 
	C839.893921,431.497101 840.086060,446.016693 840.804138,460.484894 
	C841.053711,465.513275 840.882751,470.498352 841.000000,475.500000 
"/>
<path fill="none" opacity="1.000000" stroke="#000000" stroke-linecap="round" stroke-linejoin="round" stroke-width="9.000000"
	d="
M233.000000,469.000000 
	C235.867096,473.643463 238.404221,478.458832 240.497696,483.500946 
	C246.697815,498.434052 242.907822,512.121887 235.544281,525.524353 
	C229.419479,536.672119 218.831238,541.704773 207.975937,546.444885 
	C206.079926,547.272827 204.840515,548.469116 203.421707,549.923645 
	C186.745407,567.019287 172.934525,572.844604 148.482529,565.558594 
	C140.140610,563.072937 132.985397,559.157043 128.553909,551.468933 
	C125.781937,546.659851 120.978287,544.785889 116.449707,543.138245 
	C100.549316,537.353333 88.454842,514.940063 89.835587,497.526611 
	C90.336174,491.213348 93.386658,484.777008 95.669029,478.562073 
	C96.803490,475.472870 97.411179,472.469666 96.906158,469.516052 
	C94.771896,457.033661 98.970314,446.588715 107.072777,437.565338 
	C111.712013,432.398834 116.603325,427.408203 122.460457,423.441620 
	C127.844727,419.795197 133.358200,416.702362 140.000931,416.537170 
	C145.280960,416.405792 149.581451,413.187134 154.962952,412.637360 
	C161.857895,411.932922 168.754379,411.661499 175.481995,412.217743 
	C185.240631,413.024567 194.008530,417.940674 202.938309,421.648560 
	C213.275192,425.940674 220.924408,434.123016 227.851730,442.620850 
	C230.880493,446.336243 231.482056,451.627289 231.955353,456.504333 
	C232.341461,460.483032 232.333328,464.500000 232.500000,468.500000 
"/>
<path fill="none" opacity="1.000000" stroke="#000000" stroke-linecap="round" stroke-linejoin="round" stroke-width="10.000000"
	d="
M278.000000,925.500000 
	C279.076294,921.144165 276.189301,917.313782 276.394012,912.994995 
	C276.527740,910.173523 277.520508,908.736145 279.946625,907.402832 
	C282.684723,905.898132 285.760193,904.927856 288.516602,904.708740 
	C295.887665,904.123047 302.832336,901.767395 310.019928,900.625366 
	C316.269989,899.632446 321.815460,897.292847 326.969147,893.952393 
	C333.900055,889.460144 335.247925,883.599670 332.037720,875.984131 
	C326.803223,863.566345 316.284698,857.188171 304.427002,853.751892 
	C291.098938,849.889648 278.927917,843.750610 266.513153,837.971741 
	C265.910919,837.691406 265.549408,836.629456 264.992645,836.555176 
	C255.579803,835.300232 249.785721,826.813599 241.409866,824.300354 
	C231.586075,821.352539 226.151352,812.391663 217.000000,809.000000 
	C214.566940,803.531616 209.030518,801.287476 204.928375,797.579224 
	C201.709213,794.669189 198.382416,794.726135 196.517792,797.014526 
	C187.228607,808.414490 174.508301,814.192627 160.976624,818.425293 
	C153.228409,820.848755 145.127716,821.645691 137.003082,820.963318 
	C127.606735,820.174194 120.474861,814.430115 112.999329,809.501038 
	C109.212166,807.003845 106.219002,803.628845 102.990631,800.509705 
	C101.209602,798.788879 99.586365,796.581482 97.434669,795.651062 
	C94.862930,794.539001 92.200012,793.428772 89.373260,796.896667 
	C78.217445,810.582825 70.200073,825.694275 66.514687,843.003113 
	C64.407631,852.899170 63.615307,862.712891 67.422325,872.530151 
	C69.752892,878.539917 72.690300,883.261292 79.458290,885.149475 
	C83.040031,886.148743 86.669876,887.911438 89.000000,891.780884 
	C89.000000,896.499634 89.000000,901.999817 89.000000,907.500000 
"/>
<path fill="none" opacity="1.000000" stroke="#000000" stroke-linecap="round" stroke-linejoin="round" stroke-width="10.000000"
	d="
M696.000000,764.500000 
	C698.617798,761.365723 702.100159,759.954224 705.982910,758.934998 
	C712.441711,757.239685 718.750122,754.882507 724.458984,751.432129 
	C733.595642,745.910217 736.266052,739.000732 733.850098,729.538269 
	C732.136658,722.827515 726.559448,719.102478 720.550354,715.905396 
	C714.191711,712.522217 707.232971,711.013184 700.454834,709.740540 
	C689.292053,707.644714 679.046692,702.685974 667.990601,700.548523 
	C660.041748,699.011841 653.193420,695.305359 646.442627,691.091980 
	C644.179932,689.679749 641.403137,688.712891 638.500305,689.002869 
	C637.343262,689.118408 636.471924,688.761841 635.463562,688.051697 
	C630.079407,684.259705 625.940186,678.471802 618.516052,677.817810 
	C617.315369,677.712036 616.777161,674.931885 615.036377,673.936340 
	C612.559875,672.520020 610.456360,670.451355 607.979370,669.036072 
	C595.040833,661.642883 592.863708,663.380493 584.335022,671.833557 
	C572.852905,683.213989 559.762939,692.669983 543.501160,696.504822 
	C532.733582,699.043945 522.967590,696.246582 514.051331,690.421448 
	C507.785706,686.328003 502.041321,681.443481 495.986847,677.018005 
	C491.194489,673.515015 485.450806,674.312073 483.118439,679.552734 
	C477.986420,691.083923 471.826477,702.176758 468.437439,714.482788 
	C464.725555,727.960815 466.609955,741.096191 470.682983,753.941956 
	C472.325928,759.123596 477.340729,762.284729 482.536255,763.882019 
	C486.431915,765.079773 490.173920,766.242737 493.000000,769.362793 
	C493.000000,770.664307 493.000000,772.332153 493.000000,774.000000 
"/>
<path fill="none" opacity="1.000000" stroke="#000000" stroke-linecap="round" stroke-linejoin="round" stroke-width="10.000000"
	d="
M247.500000,340.500000 
	C247.500000,330.071808 247.527496,330.161896 257.990204,326.967896 
	C264.802612,324.888245 271.812897,323.842255 278.126099,319.691803 
	C285.794830,314.650146 286.218506,304.325348 281.482208,298.013336 
	C276.048187,290.771393 268.841034,285.899139 260.511780,282.471344 
	C250.433899,278.323853 240.581055,273.482178 230.388733,269.808716 
	C222.243210,266.872925 215.040939,262.025024 206.588684,259.680328 
	C202.411255,258.521454 199.157120,254.011536 195.508133,250.990189 
	C194.785126,250.391571 194.246948,249.202011 193.487762,249.070831 
	C184.461365,247.511261 178.121918,239.712784 168.990295,238.578171 
	C167.407913,238.381561 167.261688,237.307739 166.457397,236.544922 
	C161.096710,231.460510 154.325592,228.539017 147.929611,225.132141 
	C145.349365,223.757736 142.847305,226.221695 141.049225,228.048447 
	C135.546768,233.638474 129.183121,238.006546 122.505051,242.008423 
	C103.359100,253.481720 79.678101,250.659836 64.505875,235.993927 
	C61.964184,233.537048 59.450809,231.046936 57.010529,228.489944 
	C52.348728,223.605103 50.051281,223.706497 46.031063,229.521469 
	C42.118767,235.180405 39.172955,241.406403 35.963982,247.480972 
	C30.161573,258.464905 26.296854,269.956848 26.545301,282.499115 
	C26.715803,291.106415 28.719250,299.193817 34.460075,306.033508 
	C36.199493,308.105865 37.655041,310.281677 40.494919,311.019562 
	C46.721817,312.637451 50.093227,316.129242 48.000000,323.000000 
"/>
<path fill="none" opacity="1.000000" stroke="#000000" stroke-linecap="round" stroke-linejoin="round" stroke-width="10.000000"
	d="
M606.500000,567.500000 
	C612.406128,561.884949 620.095337,561.104187 627.510681,560.692566 
	C633.610291,560.353943 640.018250,557.333740 646.045044,561.433777 
	C646.537231,561.768555 648.017700,561.461426 648.444336,560.953247 
	C651.759949,557.004700 656.541504,555.588257 661.036621,554.111511 
	C670.707764,550.934387 673.572998,543.002991 675.424561,534.483582 
	C677.785217,523.621643 673.724182,513.274597 671.246704,503.061432 
	C668.349670,491.118805 661.828430,480.562805 653.980042,471.016418 
	C650.185608,466.401154 645.907593,466.112488 642.059265,470.551392 
	C637.245605,476.103851 631.943726,481.128876 626.467651,485.963379 
	C618.084351,493.364563 608.196777,497.778564 596.998901,497.874725 
	C586.265808,497.966888 575.906860,495.544617 566.505005,489.991486 
	C563.403015,488.159302 559.589539,489.372253 556.494568,487.509033 
	C548.989197,482.990723 541.637390,478.258667 535.000000,472.500000 
"/>
<path fill="none" opacity="1.000000" stroke="#000000" stroke-linecap="round" stroke-linejoin="round" stroke-width="8.000000"
	d="
M511.500000,951.000000 
	C510.563904,944.984558 514.352600,940.631104 517.125732,936.076538 
	C518.462036,933.881897 521.665039,934.068909 523.981750,934.582214 
	C532.015320,936.362183 536.790039,931.511719 540.368958,925.916199 
	C547.212769,915.216064 551.095825,903.230469 551.374939,890.497253 
	C551.598450,880.303345 548.738831,870.836365 540.974121,863.527527 
	C539.890198,862.507202 539.152344,861.325684 539.042053,859.996521 
	C537.716248,844.024902 527.934326,833.596985 515.402344,825.654114 
	C505.873260,819.614502 494.907623,817.322449 483.506287,816.848450 
	C478.469147,816.639038 474.478607,821.171814 468.918762,818.681396 
	C464.442749,816.676392 459.244598,818.010315 454.512604,819.057007 
	C435.982880,823.155579 421.165405,832.631287 412.667267,850.081482 
	C410.724243,854.071228 409.752441,858.728821 409.215332,863.467712 
	C408.725769,867.786743 406.316315,872.141602 403.896027,875.933655 
	C399.335052,883.079529 399.897736,890.941589 400.674500,898.481995 
	C402.291992,914.183228 408.840576,927.498230 422.504791,936.492737 
	C423.605255,937.217102 424.812347,937.582764 425.547028,938.975220 
	C435.401123,957.650879 452.673126,963.225586 472.002228,964.975281 
	C481.289948,965.815918 490.108093,963.006104 498.991577,960.963440 
	C504.812042,959.625122 507.569153,952.705566 513.048035,951.786255 
	C519.609253,950.685425 523.247742,946.450195 527.511292,942.512207 
	C529.585449,940.596436 530.304321,938.178040 530.500000,935.500000 
"/>
<path fill="none" opacity="1.000000" stroke="#000000" stroke-linecap="round" stroke-linejoin="round" stroke-width="9.000000"
	d="
M588.000000,225.500000 
	C593.659790,221.230331 598.663452,216.484314 602.079407,210.042114 
	C606.287048,202.107147 606.825989,193.618958 606.976013,184.999588 
	C607.082703,178.867477 604.713257,173.235153 602.955200,167.513763 
	C601.501831,162.783676 598.860657,158.736633 595.014404,155.482956 
	C588.792053,150.219269 582.775024,144.687592 579.540588,136.982956 
	C575.883728,128.272263 568.876282,123.629921 560.496338,120.509789 
	C553.881775,118.046959 546.990051,115.677849 540.017761,116.225883 
	C532.818420,116.791733 525.520386,118.756767 519.111206,122.206573 
	C515.878296,123.946693 512.974365,124.419159 510.033264,123.403648 
	C501.339996,120.401947 493.527954,123.568512 487.190552,128.257538 
	C478.891968,134.397690 471.511719,141.910614 465.873383,150.920761 
	C464.025574,153.873550 462.996460,156.802841 463.067932,159.998474 
	C463.353943,172.784424 460.454987,185.115005 457.942139,197.488251 
	C456.620453,203.996277 457.464020,210.019547 461.052948,215.465103 
	C464.973602,221.414001 468.335083,227.689545 472.404358,233.566223 
	C478.830078,242.845825 487.307465,248.043671 498.498047,249.022171 
	C501.255157,249.263260 503.848236,249.638885 506.051697,251.950714 
	C519.821228,266.397766 536.657959,266.023987 553.960205,260.866425 
	C563.370361,258.061371 572.611206,254.303726 578.513733,245.509232 
	C582.654297,239.340073 585.131958,232.451035 587.500000,225.500000 
"/>
<path fill="none" opacity="1.000000" stroke="#000000" stroke-linecap="round" stroke-linejoin="round" stroke-width="9.000000"
	d="
M756.500000,634.000000 
	C752.471191,629.911316 747.681213,626.390137 746.016968,620.495239 
	C744.865540,616.416870 743.943542,612.257935 744.029419,608.000610 
	C744.187500,600.167236 743.616028,592.332825 744.420532,584.491821 
	C744.801758,580.776917 746.013428,577.533264 748.548157,575.049133 
	C755.077026,568.650574 760.364990,561.837524 762.692932,552.548340 
	C765.158203,542.710999 773.126099,536.902039 781.514526,532.025024 
	C789.482910,527.392212 797.933777,523.901245 806.997803,521.989502 
	C811.776978,520.981506 816.462585,521.102783 820.993408,523.015686 
	C824.709656,524.584656 828.414856,524.791931 832.505005,524.676331 
	C844.555847,524.335693 855.853760,526.474243 865.616150,534.864868 
	C874.323792,542.348938 882.135803,550.211548 886.476318,561.009521 
	C886.984070,562.272705 887.637085,563.748657 887.421387,564.986328 
	C886.276001,571.558350 889.765686,576.675110 892.525574,581.986694 
	C898.365173,593.225464 896.904358,604.908508 894.364197,616.470154 
	C893.154236,621.977051 890.603455,627.208557 888.467346,632.486755 
	C886.760132,636.705139 883.797791,640.192017 879.939331,642.393677 
	C875.629150,644.853027 872.783875,648.033752 870.332336,652.406006 
	C866.083557,659.983704 859.036377,664.812012 850.988281,667.970154 
	C844.990662,670.323669 838.879822,672.333679 832.511414,673.559387 
	C829.279541,674.181396 826.124390,674.242310 823.009277,673.463013 
	C817.401062,672.060181 811.935059,669.861450 805.990784,671.974121 
	C801.367859,673.617188 797.095398,671.608887 793.026978,669.934387 
	C779.148376,664.222107 766.427063,656.859131 759.074219,642.960754 
	C757.720825,640.402588 757.333313,637.333313 756.500000,634.500000 
"/>
<path fill="none" opacity="1.000000" stroke="#000000" stroke-linecap="round" stroke-linejoin="round" stroke-width="9.000000"
	d="
M586.500000,1024.500000 
	C586.500000,1016.666687 586.374939,1008.830505 586.551636,1001.001160 
	C586.643188,996.943420 585.054810,995.393738 580.999329,995.447021 
	C569.501282,995.598145 557.954468,994.860901 546.512512,995.675598 
	C534.504150,996.530640 522.470581,996.323608 510.513000,997.181335 
	C494.644867,998.319641 478.826782,997.349792 463.003174,997.661499 
	C434.830902,998.216492 406.664581,997.612305 378.500824,998.053223 
	C371.021515,998.170349 369.223602,1000.101440 370.664215,1007.467896 
	C371.793488,1013.242310 370.955475,1018.829712 371.000000,1024.500000 
"/>
<path fill="none" opacity="1.000000" stroke="#000000" stroke-linecap="round" stroke-linejoin="round" stroke-width="10.000000"
	d="
M676.500000,303.500000 
	C676.581726,290.988922 676.856628,278.476746 675.547058,265.995056 
	C675.309021,263.726379 675.512939,260.398712 673.904419,259.729950 
	C670.159790,258.173187 667.643066,254.046875 662.999512,254.495010 
	C654.010193,255.362534 646.127563,261.992737 646.299561,271.003815 
	C646.729248,293.517242 647.742310,316.005524 648.649841,338.493958 
	C648.951172,345.960052 651.429138,353.249573 653.451660,360.513458 
	C655.544434,368.029877 656.005371,376.202728 654.471313,383.387115 
	C653.235474,389.174500 651.728271,395.090393 650.459534,400.991302 
	C649.040894,407.588989 649.889343,409.590149 656.512512,410.938690 
	C669.803772,413.645050 683.152649,416.078522 696.505188,418.471222 
	C704.810730,419.959534 713.159851,421.211670 721.502563,422.483002 
	C726.458252,423.238190 728.593262,421.568024 728.972290,416.497925 
	C729.557800,408.666443 731.506104,400.777710 728.693054,393.020660 
	C728.029785,391.191528 729.496460,390.509705 730.077576,389.546814 
	C737.423401,377.375397 746.204895,366.261230 756.048462,356.046722 
	C764.350098,347.432281 773.075012,339.167999 779.414795,328.947174 
	C783.329407,322.636322 786.340942,315.805847 783.504761,307.998260 
	C779.797485,297.792908 771.739380,295.523499 763.528870,302.533813 
	C760.951843,304.734070 758.212219,306.273865 755.154419,307.807770 
	C749.907166,310.439911 748.142212,316.509949 746.566467,322.019012 
	C745.912537,324.304993 745.393433,326.116302 742.500000,325.500000 
"/>
<path fill="none" opacity="1.000000" stroke="#000000" stroke-linecap="round" stroke-linejoin="round" stroke-width="10.000000"
	d="
M565.000000,488.000000 
	C567.326843,480.666656 565.428528,473.308411 564.821838,466.014832 
	C564.633667,463.752899 562.627319,461.396942 560.938660,459.556305 
	C557.448303,455.751892 551.876587,455.132111 548.084473,458.592560 
	C543.570984,462.711304 538.521912,466.170410 534.724915,471.296234 
	C532.547241,474.236145 527.863770,475.511078 525.006836,478.506531 
	C519.430969,484.352753 512.412964,488.119659 505.478363,491.960907 
	C500.523895,494.705261 496.150146,498.544189 490.505341,500.020386 
	C489.799713,500.204895 488.939087,500.493561 488.534149,501.025940 
	C482.473694,508.993561 472.562775,509.794403 464.474609,513.950623 
	C449.009521,521.897461 432.103058,526.176331 416.036987,532.592590 
	C408.684143,535.529114 402.457062,540.323792 398.505005,547.502747 
	C392.954407,557.585388 399.460693,568.398315 407.962036,571.118652 
	C414.736053,573.286316 421.546387,575.106079 428.497101,576.514221 
	C432.378876,577.300659 435.787598,579.037720 438.386108,581.881775 
	C449.720978,577.846497 461.206665,578.852783 472.462158,581.182800 
	C479.007904,582.537781 480.376984,584.207886 479.250000,591.000000 
"/>
<path fill="none" opacity="1.000000" stroke="#000000" stroke-linecap="round" stroke-linejoin="round" stroke-width="9.000000"
	d="
M731.000000,43.500000 
	C729.779175,34.747589 728.579041,25.915115 725.845398,17.550535 
	C722.945801,8.678275 711.265137,7.599126 703.906616,14.398960 
	C698.478821,19.414646 697.821106,24.836536 699.429932,31.516874 
	C702.023926,42.287441 703.886658,53.236813 706.578125,63.980423 
	C709.315735,74.908234 711.213623,86.006714 713.766174,96.937843 
	C715.553772,104.593208 719.717834,111.720284 723.078735,118.963455 
	C723.952393,120.846207 724.942383,122.248154 724.060059,124.523285 
	C721.151550,132.023102 722.402222,139.826920 723.109863,147.489853 
	C723.444275,151.111328 725.855774,153.087418 730.000366,153.063354 
	C752.832886,152.930786 775.666687,152.983475 798.500000,153.013351 
	C803.310303,153.019653 806.018982,151.092880 805.530701,145.997055 
	C804.857849,138.975098 804.543030,131.917984 803.028748,124.993706 
	C802.820068,124.039345 802.606262,122.750824 803.058105,122.036781 
	C812.393005,107.285782 817.174561,90.289116 826.377869,75.424377 
	C833.530884,63.871109 839.042236,51.282448 841.745728,37.948448 
	C843.155945,30.993212 842.343750,23.562040 838.087219,16.943890 
	C834.118408,10.773041 828.119385,8.482707 821.943481,14.441434 
	C818.639771,17.628967 816.250793,21.959225 811.500000,23.500000 
"/>
<path fill="none" opacity="1.000000" stroke="#000000" stroke-linecap="round" stroke-linejoin="round" stroke-width="10.000000"
	d="
M894.000000,825.500000 
	C897.758545,824.785461 899.449768,821.687500 901.501526,819.001160 
	C903.160706,816.828796 904.668640,814.512146 906.530090,812.528259 
	C912.742188,805.907593 921.515686,805.658142 928.527222,811.467163 
	C934.218750,816.182434 932.127747,821.968811 930.933472,827.485596 
	C929.028931,836.283203 924.093750,843.888123 920.397278,851.952942 
	C912.754578,868.627441 904.317932,884.992188 892.803528,899.342346 
	C888.829285,904.295471 889.792786,908.932556 890.016113,913.999268 
	C890.280762,920.002319 890.807983,925.996704 890.947632,932.001221 
	C891.033142,935.679749 888.486633,937.773987 884.501770,937.476013 
	C867.850281,936.230896 851.171692,936.625732 834.500488,936.453247 
	C828.331909,936.389404 822.206421,935.026123 816.001343,935.517029 
	C814.042236,935.671997 812.877319,934.614563 812.545227,932.990723 
	C810.742676,924.176880 808.592224,915.333313 812.500000,906.500000 
"/>
<path fill="none" opacity="1.000000" stroke="#000000" stroke-linecap="round" stroke-linejoin="round" stroke-width="10.000000"
	d="
M68.500000,1024.250000 
	C70.998535,1024.369629 73.497070,1024.489380 76.168312,1024.617310 
	C80.544792,1009.565002 78.479462,995.593750 70.020409,982.486816 
	C66.944687,977.721130 62.944443,973.719482 58.405216,970.639709 
	C52.603600,966.703613 48.022808,961.983093 44.473145,956.015991 
	C38.180820,945.438416 27.523754,943.023621 16.494938,941.537537 
	C13.196707,941.093140 9.838074,941.097046 6.493204,940.894714 
	C5.382432,942.643250 4.316217,944.321594 3.250003,946.000000 
"/>
<path fill="none" opacity="1.000000" stroke="#000000" stroke-linecap="round" stroke-linejoin="round" stroke-width="9.000000"
	d="
M813.500000,827.500000 
	C810.861389,819.589050 810.342529,811.118225 806.699524,803.405762 
	C805.624817,801.130310 804.759827,800.060303 802.519104,799.431885 
	C800.757263,798.937866 799.080933,797.968628 797.515137,796.976074 
	C791.419067,793.111633 784.459595,797.746216 783.053589,804.012024 
	C781.373962,811.496948 781.594910,819.004150 783.471252,826.507202 
	C788.799866,847.814392 796.246765,868.477905 802.717896,889.432739 
	C804.173706,894.147095 806.878418,898.796326 809.884155,903.081238 
	C811.956055,906.034729 814.355591,906.627197 817.500488,906.512878 
	C840.992615,905.659241 864.494080,905.417175 888.000000,905.500000 
"/>
<path fill="none" opacity="1.000000" stroke="#000000" stroke-linecap="round" stroke-linejoin="round" stroke-width="10.000000"
	d="
M5.000000,721.000000 
	C12.166667,721.166626 19.393665,720.815857 26.483376,721.642578 
	C33.875427,722.504395 38.364769,719.218018 42.013451,713.508606 
	C49.704716,701.473511 55.396511,688.354370 62.471920,675.983948 
	C67.285515,667.567993 72.159691,659.156433 76.345245,650.425781 
	C78.109978,646.744751 79.012863,642.541748 78.131638,637.974609 
	C76.415314,629.079285 71.487129,625.396362 63.018394,628.058533 
	C57.852192,629.682495 53.347881,632.556641 49.988129,636.991028 
	C48.222809,639.320923 45.794525,640.717407 43.000000,641.500000 
"/>
<path fill="none" opacity="1.000000" stroke="#000000" stroke-linecap="round" stroke-linejoin="round" stroke-width="10.000000"
	d="
M757.500000,1024.500000 
	C756.000000,1024.500000 754.500000,1024.500000 753.000000,1024.500000 
	C753.000000,1024.166626 753.060791,1023.820007 752.991272,1023.501892 
	C749.115601,1005.761353 754.253601,987.766357 751.487915,970.001892 
	C750.016113,960.548096 750.217834,950.937744 748.593384,941.483948 
	C747.891235,937.397949 748.623779,933.175171 747.610352,928.973389 
	C746.280334,923.458862 740.022888,916.603516 734.494629,916.054077 
	C730.513916,915.658386 727.990356,918.032959 726.519287,921.508179 
	C724.770325,925.640015 722.926025,929.757874 721.586914,934.027222 
	C720.731873,936.753418 719.491150,939.042542 717.500000,941.000000 
"/>
<path fill="none" opacity="1.000000" stroke="#000000" stroke-linecap="round" stroke-linejoin="round" stroke-width="10.000000"
	d="
M322.500000,118.500000 
	C326.294006,119.245323 329.515594,120.941566 332.548248,123.441467 
	C340.277771,129.813065 349.459534,133.900177 358.003387,138.994324 
	C363.660706,142.367416 368.605316,146.612167 373.568146,150.921509 
	C379.350800,155.942657 381.635651,162.638977 383.405914,169.524200 
	C385.368225,177.156403 379.320557,185.278061 370.002197,188.506348 
	C364.487061,190.417038 358.724335,190.636337 352.996979,190.943726 
	C350.485840,191.078506 348.217957,191.675613 345.996185,192.742035 
	C343.091034,194.136505 344.326813,196.797150 343.984802,198.997635 
	C343.458435,202.384567 342.029022,204.880157 338.000000,204.500000 
"/>
<path fill="none" opacity="1.000000" stroke="#000000" stroke-linecap="round" stroke-linejoin="round" stroke-width="10.000000"
	d="
M171.000000,54.000000 
	C170.071182,54.680904 170.265289,55.861000 170.559235,56.471478 
	C177.020859,69.890854 184.696335,82.684975 201.025772,84.801094 
	C217.798859,86.974693 234.018951,84.178314 248.512741,74.519112 
	C252.648819,71.762665 257.383820,70.240662 261.997894,68.494431 
	C264.532043,67.535347 267.230316,67.403908 268.919830,69.562737 
	C271.628845,73.024284 275.229340,75.736450 277.082245,79.963951 
	C278.465759,83.120483 282.625519,83.431847 284.616730,86.422272 
	C286.204926,88.807449 288.833344,90.500008 291.000000,92.500008 
"/>
<path fill="none" opacity="1.000000" stroke="#000000" stroke-linecap="round" stroke-linejoin="round" stroke-width="11.000000"
	d="
M203.500000,341.000000 
	C202.393265,337.900970 202.217667,334.728424 202.573517,332.137817 
	C197.203018,325.237396 189.349411,327.048309 182.479141,326.161682 
	C166.878693,324.148468 151.150269,323.150970 135.505310,321.451050 
	C123.502678,320.146912 111.578918,318.160126 99.502762,317.452911 
	C95.813385,317.236847 92.754959,319.037842 89.554184,320.155212 
	C87.214928,320.971771 88.104790,323.901184 88.000000,326.000000 
"/>
<path fill="none" opacity="1.000000" stroke="#000000" stroke-linecap="round" stroke-linejoin="round" stroke-width="6.000000"
	d="
M1.500000,359.500000 
	C3.653872,366.358368 3.183671,373.505707 3.384895,380.503296 
	C3.897430,398.326721 3.594051,416.173218 4.082897,433.997742 
	C4.416898,446.176270 5.021861,458.333344 4.000000,470.500000 
"/>
<path fill="none" opacity="1.000000" stroke="#000000" stroke-linecap="round" stroke-linejoin="round" stroke-width="8.000000"
	d="
M639.500000,915.000000 
	C635.511597,915.888977 631.057617,914.927063 627.523621,917.532043 
	C620.497437,922.711060 619.761047,932.297302 624.992371,940.504883 
	C633.093079,953.214294 642.662048,964.878601 649.786438,978.348511 
	C654.858093,987.937317 660.710388,997.323975 667.357178,1006.108032 
	C669.601929,1009.074646 673.904968,1010.235168 674.500000,1014.500000 
"/>
<path fill="none" opacity="1.000000" stroke="#000000" stroke-linecap="round" stroke-linejoin="round" stroke-width="8.000000"
	d="
M717.250000,949.500000 
	C717.430359,944.522217 714.073486,940.693054 712.844727,936.401306 
	C709.305908,924.041382 703.997070,912.430420 699.368347,900.551331 
	C696.404175,892.944275 692.406372,885.699524 688.413208,878.548462 
	C685.876282,874.005188 679.347473,872.306885 674.000000,874.000061 
	C668.283875,875.810120 666.974915,879.263733 665.799316,885.461914 
	C663.334167,898.459656 671.386108,907.199768 677.034119,916.980286 
	C680.177368,922.423340 683.666687,927.666687 687.000000,933.000000 
"/>
<path fill="none" opacity="1.000000" stroke="#000000" stroke-linecap="round" stroke-linejoin="round" stroke-width="10.000000"
	d="
M353.000000,717.500000 
	C336.833344,717.333313 320.665649,716.970886 304.500275,717.054810 
	C288.165649,717.139587 271.834198,717.720154 255.499741,717.983826 
	C241.276367,718.213440 227.173416,716.108582 212.995834,715.621033 
	C206.687164,715.404114 200.300003,716.265686 194.022522,717.158386 
	C192.373169,717.392883 191.000000,716.985535 189.500000,717.000000 
"/>
<path fill="none" opacity="1.000000" stroke="#000000" stroke-linecap="round" stroke-linejoin="round" stroke-width="10.000000"
	d="
M968.500000,609.000000 
	C958.943298,605.882507 949.285522,613.134338 948.934204,620.496887 
	C948.728455,624.808777 949.514648,628.923828 950.541504,632.989502 
	C955.352417,652.038330 959.263855,671.316895 965.441528,690.019287 
	C968.099976,698.067627 973.030212,704.901550 976.597778,712.453796 
	C977.462585,714.284546 978.013245,716.364624 979.124390,717.910583 
	C980.473328,719.787292 980.017029,721.299500 978.925110,722.427490 
	C977.412598,723.989685 977.392822,725.696045 977.522034,727.498413 
	C977.963867,733.660156 978.609741,739.778809 978.112061,746.008972 
	C977.788391,750.060730 979.771912,751.532471 983.999878,751.489319 
	C997.500183,751.351501 1011.000000,751.166626 1024.500000,751.000000 
"/>
<path fill="none" opacity="1.000000" stroke="#000000" stroke-linecap="round" stroke-linejoin="round" stroke-width="11.000000"
	d="
M221.000000,915.500000 
	C225.932159,914.514954 229.053558,909.537109 226.362106,906.108215 
	C224.180099,903.328308 220.682724,901.523804 216.995300,901.035461 
	C194.656250,898.077026 172.200607,896.020081 149.989029,892.061523 
	C143.578979,890.919250 137.005020,890.214294 131.000000,894.000000 
"/>
<path fill="none" opacity="1.000000" stroke="#000000" stroke-linecap="round" stroke-linejoin="round" stroke-width="10.000000"
	d="
M890.000000,839.000000 
	C890.030518,836.882629 890.487732,834.995239 891.309631,832.924438 
	C892.654053,829.536987 894.679260,825.752991 891.545959,821.962036 
	C890.076355,820.183960 891.564880,818.003174 891.528564,815.999512 
	C891.286255,802.663513 892.249207,789.286011 890.452881,776.006348 
	C889.593811,769.655823 888.568115,763.349792 883.558960,758.439819 
	C879.864990,754.819092 875.350769,754.319641 871.040405,755.198120 
	C866.922791,756.037292 864.700623,759.940430 864.120850,764.017212 
	C863.758057,766.568237 862.722351,768.361206 861.000000,770.000000 
"/>
<path fill="none" opacity="1.000000" stroke="#000000" stroke-linecap="round" stroke-linejoin="round" stroke-width="9.000000"
	d="
M170.000000,57.000000 
	C167.583359,56.854252 165.233002,57.290802 163.527908,59.027401 
	C156.009613,66.684624 147.861893,73.744781 141.483551,82.487999 
	C134.710098,91.772797 131.110550,102.098236 129.315140,113.470818 
	C127.683151,123.808304 130.728760,130.793503 139.936325,135.621429 
	C142.196838,136.806717 143.666672,139.500000 145.500000,141.500000 
"/>
<path fill="none" opacity="1.000000" stroke="#000000" stroke-linecap="round" stroke-linejoin="round" stroke-width="10.000000"
	d="
M515.000000,580.500000 
	C520.929199,574.452515 528.895874,574.215210 536.501831,573.011719 
	C552.362000,570.502075 568.244507,568.144836 584.013550,565.069397 
	C588.090149,564.274292 592.335388,564.034912 596.499573,564.063660 
	C604.570435,564.119324 609.479126,567.431335 605.923279,576.469849 
	C605.566895,577.375916 605.668213,578.166992 605.500000,579.000000 
"/>
<path fill="none" opacity="1.000000" stroke="#000000" stroke-linecap="round" stroke-linejoin="round" stroke-width="9.000000"
	d="
M863.750000,820.000000 
	C862.402710,812.013184 863.420593,803.999084 863.306519,796.002747 
	C863.194641,788.156799 862.686157,779.920105 860.144470,772.623840 
	C857.897400,766.173279 853.119751,760.091919 845.953247,757.636475 
	C842.808960,756.559204 839.657593,758.168762 836.961792,760.454956 
	C832.682800,764.083618 831.997681,769.696167 829.000000,774.000000 
"/>
<path fill="none" opacity="1.000000" stroke="#000000" stroke-linecap="round" stroke-linejoin="round" stroke-width="9.000000"
	d="
M361.000000,428.500000 
	C363.082031,439.866302 372.130615,444.657349 381.017853,449.467010 
	C390.781708,454.751129 401.009460,457.181427 412.017090,453.551788 
	C412.719116,453.320282 413.730957,453.687500 414.490204,454.022217 
	C423.596161,458.036774 432.366547,455.560425 440.983643,452.454620 
	C451.964172,448.496979 461.559784,442.301575 467.302063,431.890808 
	C469.323730,428.225555 471.481781,425.636963 474.934448,423.398865 
	C481.534607,419.120544 484.484009,412.051270 486.942413,404.979980 
	C491.188812,392.765839 492.659027,380.304108 489.555634,367.486542 
	C488.157990,361.714050 484.713287,357.170013 481.353699,352.607727 
	C480.605957,351.592255 479.636078,350.514343 479.582458,349.495667 
	C478.707062,332.869904 468.308960,322.762451 455.448303,314.581299 
	C449.194000,310.602661 442.053650,308.320923 435.008881,305.973297 
	C427.739166,303.550690 420.614899,304.461884 413.506042,306.520874 
	C411.632599,307.063477 409.986450,307.049683 407.974945,306.616241 
	C395.660583,303.962646 383.953522,306.102997 373.566010,313.098022 
	C364.742432,319.039886 356.283997,325.521637 351.889740,335.953552 
	C350.088837,340.228973 349.846649,344.648895 349.119141,349.019836 
	C348.771881,351.105865 348.476715,352.911713 347.014374,354.513123 
	C336.177521,366.380280 335.485443,380.436401 339.136292,394.965759 
	C341.206604,403.205048 343.760925,411.462952 348.958344,418.530640 
	C349.947754,419.876129 350.728638,421.345337 351.987518,422.513458 
	C359.304352,429.303192 363.413879,429.075470 371.978912,420.977692 
	C377.623169,415.641357 383.152405,410.194244 389.750000,406.000000 
"/>
<path fill="none" opacity="1.000000" stroke="#000000" stroke-linecap="round" stroke-linejoin="round" stroke-width="11.000000"
	d="
M615.250000,777.000000 
	C615.665710,770.658813 612.439941,766.796326 605.998535,766.536560 
	C587.673096,765.797485 569.362061,764.356567 551.000793,765.022461 
	C545.183167,765.233398 539.321899,765.513733 534.500000,769.500000 
"/>
<path fill="none" opacity="1.000000" stroke="#000000" stroke-linecap="round" stroke-linejoin="round" stroke-width="9.000000"
	d="
M947.500000,117.000000 
	C945.129944,114.213516 942.151794,113.316872 938.497864,113.433907 
	C931.964966,113.643166 925.433899,113.565262 918.994324,114.973938 
	C917.187988,115.369072 915.161926,115.701462 914.076904,117.061371 
	C911.808228,119.904938 908.803101,120.799156 905.505493,121.525078 
	C887.491638,125.490623 871.160828,142.719131 868.013489,161.002319 
	C867.804504,162.216248 868.308716,163.455612 867.030334,164.535873 
	C861.651245,169.081161 860.206299,175.282623 859.426514,181.991455 
	C857.550659,198.130280 860.713928,213.009018 868.889832,227.064087 
	C871.571960,231.674850 876.611206,233.742447 879.201599,237.695526 
	C881.627075,241.396942 882.140320,246.391754 885.993286,249.508331 
	C898.166565,259.355133 911.802063,265.832794 927.503174,267.469391 
	C931.543762,267.890533 935.412842,266.741058 938.972351,264.945221 
	C941.737610,263.550110 944.281311,263.040466 947.513733,263.362030 
	C960.283569,264.632355 971.243774,259.809082 980.959961,251.950485 
	C984.705688,248.920929 987.970947,245.302124 991.507874,242.008408 
	C995.444336,238.342621 996.908081,233.709473 997.000000,228.500000 
"/>
<path fill="none" opacity="1.000000" stroke="#000000" stroke-linecap="round" stroke-linejoin="round" stroke-width="9.000000"
	d="
M725.500000,122.500000 
	C733.652100,123.380379 741.832275,122.902008 750.000061,122.992355 
	C767.333130,123.184090 784.666687,123.333328 802.000000,123.500000 
"/>
<path fill="none" opacity="1.000000" stroke="#000000" stroke-linecap="round" stroke-linejoin="round" stroke-width="10.000000"
	d="
M251.000000,181.750000 
	C257.343201,182.927704 254.366333,176.392242 257.109375,174.862122 
	C253.430847,169.510132 248.243439,167.515778 242.523880,165.914703 
	C226.122772,161.323517 209.850479,156.274200 193.491211,151.530289 
	C187.297394,149.734177 183.885971,151.525253 182.059311,157.518082 
	C181.083664,160.718903 179.173370,162.341003 176.000000,162.750000 
"/>
<path fill="none" opacity="1.000000" stroke="#000000" stroke-linecap="round" stroke-linejoin="round" stroke-width="9.000000"
	d="
M655.500000,383.500000 
	C667.666687,384.833344 679.841675,386.095428 691.997620,387.520142 
	C704.008484,388.927856 716.000000,390.500000 728.000000,392.000000 
"/>
<path fill="none" opacity="1.000000" stroke="#000000" stroke-linecap="round" stroke-linejoin="round" stroke-width="8.000000"
	d="
M912.000000,120.500000 
	C914.169495,122.825806 916.888123,123.507919 919.999023,123.559143 
	C922.503845,123.600388 925.390625,123.473938 927.430115,124.623978 
	C934.909607,128.841766 940.767395,124.711731 945.289124,120.284607 
	C950.630920,115.054680 956.097595,115.086159 961.967468,117.095016 
	C973.881592,121.172333 984.022156,128.229233 992.440002,137.554169 
	C996.065735,141.570618 998.025940,146.726547 998.906616,152.015549 
	C999.802856,157.397995 1001.605225,161.919601 1005.387634,166.101639 
	C1011.403809,172.753632 1012.715820,181.280685 1013.033936,189.998764 
	C1013.249817,195.915146 1012.646484,201.741882 1011.459656,207.491684 
	C1009.877930,215.154648 1005.223022,220.831589 999.633911,226.140991 
	C997.120483,228.528732 995.003296,227.346542 993.039917,226.844040 
	C990.216919,226.121506 987.309448,224.766327 985.068298,222.917206 
	C978.831787,217.771759 971.150330,215.872299 964.062378,212.614243 
	C961.804199,211.576248 960.708313,212.741608 959.546143,213.565155 
	C954.108765,217.418335 948.046082,220.798630 943.699463,225.677658 
	C938.276978,231.764252 932.760803,230.024246 927.033142,227.910217 
	C920.886292,225.641464 914.878845,222.903229 909.043335,219.915375 
	C905.261475,217.979050 903.064941,219.147629 900.436035,221.939789 
	C894.453247,228.293991 888.336609,234.592728 880.000000,238.000000 
"/>
<path fill="none" opacity="1.000000" stroke="#000000" stroke-linecap="round" stroke-linejoin="round" stroke-width="8.000000"
	d="
M1024.500000,942.500000 
	C1018.553223,943.790833 1012.528381,944.092041 1006.504456,943.457947 
	C1000.972351,942.875671 995.824341,943.715637 990.999146,946.498474 
	C979.624817,953.058105 969.246216,960.715332 961.949829,971.967468 
	C960.308533,974.498474 958.409363,977.408875 958.716125,979.974182 
	C959.548706,986.938110 955.657227,991.920959 952.360535,996.907837 
	C947.685059,1003.980286 947.747192,1011.721741 947.664185,1019.501770 
	C947.649475,1020.881165 947.673340,1022.517761 948.075317,1024.124390 
	C949.447876,1025.021240 950.989319,1024.358643 952.500000,1024.250000 
"/>
<path fill="none" opacity="1.000000" stroke="#000000" stroke-linecap="round" stroke-linejoin="round" stroke-width="10.000000"
	d="
M6.000000,571.000000 
	C10.862358,570.441956 13.699057,573.987671 16.966883,576.542358 
	C18.427473,577.684204 19.640858,578.447754 21.508574,577.517212 
	C31.693825,572.442871 41.063286,579.338074 41.544121,591.498230 
	C42.092442,605.364990 38.907551,619.289062 40.864143,632.947815 
	C42.112583,641.663086 38.300812,649.615662 39.750000,658.000000 
"/>
<path fill="none" opacity="1.000000" stroke="#000000" stroke-linecap="round" stroke-linejoin="round" stroke-width="9.000000"
	d="
M737.000000,255.000031 
	C739.333313,254.500031 741.645264,253.836792 744.003601,253.527420 
	C756.132141,251.936462 760.726929,261.165680 759.388184,269.481995 
	C757.873169,278.893433 755.806885,288.248505 753.350586,297.460144 
	C752.352905,301.201477 752.542358,304.500000 753.500000,308.000000 
"/>
<path fill="none" opacity="1.000000" stroke="#000000" stroke-linecap="round" stroke-linejoin="round" stroke-width="8.000000"
	d="
M803.500000,1024.500000 
	C803.473938,1021.829163 803.731812,1019.286072 801.580994,1016.926147 
	C798.973694,1014.065552 797.987244,1010.176331 797.052673,1006.486633 
	C795.230225,999.291809 793.366638,996.771545 789.000000,996.500061 
	C783.059631,996.130676 780.565430,998.355469 777.411865,1004.957886 
	C774.255554,1011.566223 775.944153,1017.833313 777.500000,1024.250000 
"/>
<path fill="none" opacity="1.000000" stroke="#000000" stroke-linecap="round" stroke-linejoin="round" stroke-width="10.000000"
	d="
M19.000000,578.500000 
	C13.494904,597.459229 11.826377,616.848389 12.500000,636.500000 
"/>
<path fill="none" opacity="1.000000" stroke="#000000" stroke-linecap="round" stroke-linejoin="round" stroke-width="9.000000"
	d="
M584.500000,4.750000 
	C585.227783,5.445694 586.482605,5.259249 586.577393,6.995778 
	C587.441345,22.827574 587.293640,38.686802 586.676697,54.487373 
	C586.503601,58.919235 586.849121,62.643856 588.500000,66.500000 
"/>
<path fill="none" opacity="1.000000" stroke="#000000" stroke-linecap="round" stroke-linejoin="round" stroke-width="10.000000"
	d="
M377.250000,737.000000 
	C374.350647,737.085693 372.572388,735.130432 370.461548,733.551392 
	C364.174072,728.848267 357.572632,724.527039 353.500641,717.500061 
	C355.126373,715.255920 355.736542,712.749023 355.504791,709.999573 
	C354.971161,703.669006 355.585449,697.378967 354.378448,690.929199 
	C353.386841,685.630371 355.058533,679.582336 354.355896,674.018188 
	C352.977417,663.102295 354.047546,652.141602 353.303467,641.418274 
	C349.615509,639.382812 345.882385,640.169434 342.522736,640.656799 
	C336.028168,641.598938 329.331085,639.720886 322.947327,642.373230 
	C321.644165,642.914673 319.670715,641.568909 317.999329,641.543518 
	C308.117950,641.393433 298.235138,641.395264 288.500763,643.503479 
	C286.197418,644.002380 284.345154,642.322449 281.996674,642.402344 
	C274.338898,642.662964 266.646515,642.146973 259.004730,642.583069 
	C247.664871,643.230164 236.333374,642.854553 224.999756,642.978210 
	C215.334244,643.083679 205.666672,643.000000 196.000000,643.000000 
	C194.666672,643.000000 193.009949,642.488770 192.057648,643.091125 
	C188.506851,645.337280 187.218872,642.869446 185.750000,640.500000 
"/>
<path fill="none" opacity="1.000000" stroke="#000000" stroke-linecap="round" stroke-linejoin="round" stroke-width="7.000000"
	d="
M1016.000000,944.500000 
	C1018.323242,958.756287 1015.589355,973.244629 1017.982422,987.502930 
	C1018.616638,991.281616 1019.428040,994.989319 1021.000000,998.500000 
"/>
<path fill="none" opacity="1.000000" stroke="#000000" stroke-linecap="round" stroke-linejoin="round" stroke-width="9.000000"
	d="
M372.500000,1013.000000 
	C403.500000,1013.000000 434.500000,1013.010437 465.500000,1012.994934 
	C477.833344,1012.988708 490.146881,1012.297485 502.506012,1012.870239 
	C513.144226,1013.363159 523.844604,1012.737183 534.500305,1012.723022 
	C543.189575,1012.711487 551.836426,1012.264221 560.498169,1011.949158 
	C562.570984,1011.873779 563.396912,1012.351257 564.113708,1014.461365 
	C565.253357,1017.816162 564.848877,1021.148438 565.000000,1024.500000 
"/>
<path fill="none" opacity="1.000000" stroke="#000000" stroke-linecap="round" stroke-linejoin="round" stroke-width="2.000000"
	d="
M4.000000,573.500000 
	C1.577564,576.436035 1.494806,579.952576 1.496833,583.500000 
	C1.504641,597.166687 1.500000,610.833313 1.500000,624.500000 
"/>
<path fill="none" opacity="1.000000" stroke="#000000" stroke-linecap="round" stroke-linejoin="round" stroke-width="8.000000"
	d="
M75.500000,6.750000 
	C69.776260,9.546536 69.375397,15.660200 67.050026,20.523918 
	C64.384178,26.099775 62.555614,32.007801 60.934643,37.982269 
	C60.540554,39.434772 59.506069,40.821617 58.471745,41.974651 
	C52.134232,49.039547 44.939560,55.154495 36.442356,59.384193 
	C32.530830,61.331253 28.306053,63.459839 23.482571,62.060055 
	C22.604856,61.805344 21.276064,62.020832 20.536428,62.550842 
	C15.820411,65.930260 10.479878,66.220413 5.000000,66.000000 
"/>
<path fill="none" opacity="1.000000" stroke="#000000" stroke-linecap="round" stroke-linejoin="round" stroke-width="9.000000"
	d="
M705.000000,294.500000 
	C702.730042,280.438019 705.230347,266.485809 706.063599,252.503784 
	C706.318237,248.230011 704.993652,244.832474 702.572937,241.447830 
	C700.766235,238.921661 699.683350,236.222321 696.020691,235.407135 
	C686.172607,233.215302 681.488708,236.218918 678.869263,245.964859 
	C677.626709,250.587906 677.797180,255.754837 674.500000,259.750000 
"/>
<path fill="none" opacity="1.000000" stroke="#000000" stroke-linecap="round" stroke-linejoin="round" stroke-width="9.000000"
	d="
M948.500000,4.750000 
	C951.149353,6.663720 950.843689,9.921726 951.941284,12.524750 
	C955.811646,21.703106 959.758362,30.740122 968.966370,36.058273 
	C969.479553,36.354687 970.175171,36.437130 970.601379,37.457664 
	C975.818604,49.951153 987.407776,54.716015 998.513000,59.972492 
	C1004.184204,62.656872 1010.009766,64.303246 1016.527405,63.155651 
	C1019.066772,62.708530 1021.575256,65.365730 1024.500000,65.000000 
"/>
<path fill="none" opacity="1.000000" stroke="#000000" stroke-linecap="round" stroke-linejoin="round" stroke-width="11.000000"
	d="
M227.500000,906.000000 
	C233.381866,903.540405 239.297791,903.882812 245.526566,904.824219 
	C251.066681,905.661560 256.842621,905.201477 262.497284,904.940979 
	C267.705597,904.701050 272.336884,905.904236 276.500000,909.000000 
"/>
<path fill="none" opacity="1.000000" stroke="#000000" stroke-linecap="round" stroke-linejoin="round" stroke-width="6.000000"
	d="
M63.000000,27.500000 
	C54.000000,26.251476 45.119820,26.112413 35.961464,27.164568 
	C28.845507,27.982080 21.791998,30.180641 14.500000,29.500000 
"/>
<path fill="none" opacity="1.000000" stroke="#000000" stroke-linecap="round" stroke-linejoin="round" stroke-width="16.000000"
	d="
M1024.500000,569.500000 
	C1024.500000,581.666687 1024.315918,593.837097 1024.565308,605.998657 
	C1024.729126,613.981934 1024.403076,621.833679 1022.000000,629.500000 
"/>
<path fill="none" opacity="1.000000" stroke="#000000" stroke-linecap="round" stroke-linejoin="round" stroke-width="6.000000"
	d="
M959.000000,987.000000 
	C966.353455,988.333801 973.118835,990.548401 979.689270,994.700500 
	C985.626221,998.452271 993.177307,999.636292 999.993530,1002.018555 
	C1002.035400,1002.732117 1004.000000,1003.666687 1006.000000,1004.500061 
"/>
<path fill="none" opacity="1.000000" stroke="#000000" stroke-linecap="round" stroke-linejoin="round" stroke-width="9.000000"
	d="
M977.500000,643.500000 
	C973.526855,633.891418 972.212646,623.714355 970.932556,613.508484 
	C970.661194,611.345398 968.151306,609.597595 969.975037,606.982605 
	C973.068115,602.547424 972.870789,596.359985 978.917358,593.334839 
	C986.936523,589.322815 994.433899,592.242371 995.457275,601.005005 
	C996.798096,612.484680 997.872559,623.996338 998.955566,635.504211 
	C999.109558,637.140686 998.666748,638.833313 998.500061,640.500000 
"/>
<path fill="none" opacity="1.000000" stroke="#000000" stroke-linecap="round" stroke-linejoin="round" stroke-width="8.000000"
	d="
M497.000031,910.500061 
	C494.166687,911.833374 491.364471,913.238220 488.494415,914.487183 
	C477.795441,919.142822 466.753296,919.801758 455.510498,916.958435 
	C452.191284,916.118958 449.617950,916.523987 446.943481,918.937378 
	C440.450531,924.796570 433.666687,930.333374 427.000031,936.000000 
"/>
<path fill="none" opacity="1.000000" stroke="#000000" stroke-linecap="round" stroke-linejoin="round" stroke-width="10.000000"
	d="
M919.500000,363.000000 
	C921.198120,361.923035 923.091980,361.986420 925.000000,361.989716 
	C936.833313,362.010162 948.668457,362.125244 960.499390,361.957581 
	C968.886108,361.838715 977.275391,362.690369 985.512268,362.844696 
	C992.787415,362.980957 1000.531494,362.835968 1007.993103,361.942566 
	C1013.416992,361.293182 1017.808838,364.828003 1022.996826,365.068207 
	C1025.704468,365.193542 1024.435547,367.651184 1024.440674,369.000214 
	C1024.524292,391.166565 1024.500000,413.333344 1024.500000,435.500000 
	C1024.500000,443.833344 1024.500000,452.166656 1024.500000,460.500061 
	C1010.324890,456.432129 995.780640,459.985779 981.509033,458.417908 
	C972.184509,457.393555 962.837280,458.233978 953.435852,456.981689 
	C947.698364,456.217468 941.169312,457.388733 934.999512,457.455536 
	C921.667786,457.600006 908.327454,457.743225 895.001831,457.423798 
	C884.157593,457.163849 873.281311,458.359314 862.444092,455.730591 
	C858.243408,454.711670 854.974731,459.223999 851.561462,461.588715 
	C848.819336,463.488434 846.570251,466.086090 843.000000,466.500000 
"/>
<path fill="none" opacity="1.000000" stroke="#000000" stroke-linecap="round" stroke-linejoin="round" stroke-width="10.000000"
	d="
M344.000000,193.500000 
	C340.903503,189.234482 335.984314,188.561478 331.486053,188.154053 
	C323.758026,187.454086 316.276794,185.334793 308.514893,184.788422 
	C305.809174,184.597961 303.333862,185.048843 301.044373,185.664932 
	C297.310608,186.669662 298.834473,190.906738 297.500000,193.500000 
"/>
<path fill="none" opacity="1.000000" stroke="#000000" stroke-linecap="round" stroke-linejoin="round" stroke-width="8.000000"
	d="
M664.500000,894.000000 
	C662.625671,893.256775 660.684204,892.796204 658.970032,891.540894 
	C653.633179,887.632629 647.937195,888.279419 643.020203,891.530518 
	C638.127808,894.765381 636.991272,902.723267 637.889282,908.018799 
	C639.568909,917.923645 648.209229,922.856567 653.033997,930.478455 
	C657.517822,937.561829 663.720703,943.682678 665.000000,952.500000 
"/>
<path fill="none" opacity="1.000000" stroke="#000000" stroke-linecap="round" stroke-linejoin="round" stroke-width="10.000000"
	d="
M299.000000,186.500000 
	C296.708679,183.352081 293.481720,181.201675 289.966431,180.107895 
	C282.409119,177.756454 274.680695,175.943771 266.993256,174.027115 
	C263.825623,173.237350 260.602386,173.112183 257.500000,174.500000 
"/>
<path fill="none" opacity="1.000000" stroke="#000000" stroke-linecap="round" stroke-linejoin="round" stroke-width="9.000000"
	d="
M1024.500000,721.000000 
	C1012.667725,721.242981 1000.824036,720.497498 988.997864,721.473938 
	C986.132507,721.710571 983.238831,721.636719 980.500000,720.500000 
"/>
<path fill="none" opacity="1.000000" stroke="#000000" stroke-linecap="round" stroke-linejoin="round" stroke-width="11.000000"
	d="
M247.000000,331.500000 
	C243.471130,329.332886 239.731186,328.290375 235.497620,328.425751 
	C230.674561,328.580017 225.823029,328.310303 221.002533,327.964661 
	C214.561630,327.502869 208.510513,328.463959 203.000000,332.000000 
"/>
<path fill="none" opacity="1.000000" stroke="#000000" stroke-linecap="round" stroke-linejoin="round" stroke-width="7.000000"
	d="
M410.500000,308.000000 
	C411.797119,322.055023 412.295197,336.138428 412.000000,350.250000 
"/>
<path fill="none" opacity="1.000000" stroke="#000000" stroke-linecap="round" stroke-linejoin="round" stroke-width="12.000000"
	d="
M130.000000,902.000000 
	C130.166672,901.833313 130.468948,901.675598 130.480545,901.498718 
	C131.067184,892.559265 129.671707,890.857117 120.497375,890.029114 
	C113.343849,889.383545 106.167755,888.983643 98.999512,888.507324 
	C95.722404,888.289612 92.665710,888.963196 90.000000,891.000000 
"/>
<path fill="none" opacity="1.000000" stroke="#000000" stroke-linecap="round" stroke-linejoin="round" stroke-width="7.000000"
	d="
M443.500000,874.500000 
	C444.342621,882.787415 446.517792,890.830322 447.981354,899.003357 
	C448.990906,904.640991 448.876160,910.449585 450.500000,916.000000 
"/>
<path fill="none" opacity="1.000000" stroke="#000000" stroke-linecap="round" stroke-linejoin="round" stroke-width="8.000000"
	d="
M730.500000,298.500000 
	C728.472778,295.333344 730.210510,292.069489 730.627625,289.017426 
	C732.136841,277.973145 734.112488,266.990570 736.022766,256.003967 
	C736.978271,250.508499 731.677429,238.506973 727.000000,235.999969 
	C723.331665,234.033813 716.509094,234.884918 713.544678,238.041931 
	C710.995850,240.756256 708.833313,243.833328 706.500000,246.750000 
"/>
<path fill="none" opacity="1.000000" stroke="#000000" stroke-linecap="round" stroke-linejoin="round" stroke-width="9.000000"
	d="
M1024.000000,581.000000 
	C1021.409546,579.211365 1018.570618,577.857605 1015.935486,576.096497 
	C1006.318237,569.669067 996.293701,576.261475 995.434875,584.993591 
	C995.157288,587.816345 993.953918,590.503540 992.500000,593.000000 
"/>
<path fill="none" opacity="1.000000" stroke="#000000" stroke-linecap="round" stroke-linejoin="round" stroke-width="8.000000"
	d="
M826.500000,525.500000 
	C826.545166,539.016846 826.075623,552.552734 828.000000,566.000000 
"/>
<path fill="none" opacity="1.000000" stroke="#000000" stroke-linecap="round" stroke-linejoin="round" stroke-width="12.000000"
	d="
M533.250000,779.000000 
	C536.679138,771.612427 533.339294,765.917542 524.997253,765.564697 
	C517.677063,765.255127 510.329468,765.360168 503.001770,765.563599 
	C499.719208,765.654724 496.712524,767.094055 494.000000,769.000000 
"/>
<path fill="none" opacity="1.000000" stroke="#000000" stroke-linecap="round" stroke-linejoin="round" stroke-width="11.000000"
	d="
M655.500000,775.500000 
	C655.500000,769.240906 658.083984,765.725708 665.013733,765.171265 
	C671.872314,764.622437 678.667419,763.202332 685.501465,763.116638 
	C698.349060,762.955688 696.459717,765.111511 695.500000,773.500000 
"/>
<path fill="none" opacity="1.000000" stroke="#000000" stroke-linecap="round" stroke-linejoin="round" stroke-width="11.000000"
	d="
M88.500000,320.500000 
	C83.823578,316.115540 77.925438,315.926575 72.004585,315.443726 
	C64.463120,314.828735 56.942848,313.261475 49.500000,316.000000 
"/>
<path fill="none" opacity="1.000000" stroke="#000000" stroke-linecap="round" stroke-linejoin="round" stroke-width="8.000000"
	d="
M515.500000,124.500000 
	C517.094360,136.524658 521.513245,147.952606 522.962402,160.179688 
	C530.309753,164.563736 538.659790,166.766861 546.602234,169.725632 
	C550.807068,171.292053 551.812561,173.773834 551.897217,177.002701 
	C552.115906,185.344833 553.571899,193.622971 553.059021,202.003616 
	C552.949524,203.793427 552.511963,204.795456 551.078308,206.086929 
	C541.909729,214.345703 531.497803,218.734055 518.997620,217.524399 
	C517.181335,217.348618 515.333313,217.500000 513.500000,217.500000 
"/>
<path fill="none" opacity="1.000000" stroke="#000000" stroke-linecap="round" stroke-linejoin="round" stroke-width="8.000000"
	d="
M232.000000,468.500000 
	C222.058594,470.937103 212.225281,473.874268 201.999237,474.993042 
	C201.505157,475.047089 200.795990,474.782440 200.529953,475.031952 
	C194.584015,480.607941 189.448441,477.488647 184.517410,473.478607 
	C179.003876,468.994873 172.796768,465.549988 167.029129,461.458923 
	C164.152634,459.418640 161.754135,459.035431 158.449142,460.910370 
	C149.021103,466.258881 140.333344,472.526337 132.500000,480.000000 
"/>
<path fill="none" opacity="1.000000" stroke="#000000" stroke-linecap="round" stroke-linejoin="round" stroke-width="11.000000"
	d="
M655.250000,769.500000 
	C650.731567,767.346619 646.546143,765.109131 640.932312,766.771423 
	C636.948242,767.950989 632.325134,767.166931 628.002197,766.955078 
	C623.269104,766.723145 619.311523,768.164001 616.000000,771.500000 
"/>
<path fill="none" opacity="1.000000" stroke="#000000" stroke-linecap="round" stroke-linejoin="round" stroke-width="8.000000"
	d="
M349.500000,352.000000 
	C359.195282,353.460022 366.789917,359.385986 374.987793,364.021576 
	C375.580902,364.356964 375.941803,365.081238 376.508911,365.487579 
	C383.321320,370.369171 385.972321,370.268097 392.502960,365.003662 
	C397.488037,360.985168 402.646942,357.166931 407.447906,352.940796 
	C410.600403,350.165771 413.787903,350.058319 416.967651,352.051605 
	C425.230621,357.231323 433.285553,362.742523 441.537170,367.941010 
	C443.356720,369.087250 443.176392,370.584320 442.949768,371.991913 
	C441.028564,383.924408 440.583344,395.947906 440.500000,408.000000 
"/>
<path fill="none" opacity="1.000000" stroke="#000000" stroke-linecap="round" stroke-linejoin="round" stroke-width="7.000000"
	d="
M192.500000,479.000000 
	C192.820145,485.055725 189.807846,490.347656 188.324646,495.953613 
	C186.458267,503.007843 184.924942,510.352814 180.500000,516.500000 
"/>
<path fill="none" opacity="1.000000" stroke="#000000" stroke-linecap="round" stroke-linejoin="round" stroke-width="10.000000"
	d="
M183.500000,152.500000 
	C180.381683,149.068298 176.638657,146.985214 172.027802,145.883667 
	C167.236420,144.738983 162.626282,142.769470 158.016266,140.958603 
	C155.541031,139.986328 152.998459,139.713318 150.509048,140.064194 
	C145.394348,140.785095 144.717484,141.949692 145.000000,148.000000 
"/>
<path fill="none" opacity="1.000000" stroke="#000000" stroke-linecap="round" stroke-linejoin="round" stroke-width="6.000000"
	d="
M971.000000,36.500000 
	C975.487366,34.421303 977.377319,29.850443 980.419128,26.428108 
	C987.578735,18.372671 989.777588,17.868668 998.992798,24.010767 
	C1006.597534,29.079435 1014.964417,31.950670 1024.000000,33.000000 
"/>
<path fill="none" opacity="1.000000" stroke="#000000" stroke-linecap="round" stroke-linejoin="round" stroke-width="8.000000"
	d="
M479.000000,351.000000 
	C466.852478,356.354309 455.434021,363.252441 443.000000,368.000000 
"/>
<path fill="none" opacity="1.000000" stroke="#000000" stroke-linecap="round" stroke-linejoin="round" stroke-width="8.000000"
	d="
M1000.000000,160.000000 
	C988.710754,164.618790 978.734802,171.545395 968.532349,178.050690 
	C965.504395,179.981354 963.226807,180.012039 960.457092,177.548203 
	C953.003479,170.917542 945.605286,164.215759 937.051086,158.917480 
	C934.389587,157.268951 932.137939,157.482880 930.033386,159.045013 
	C920.291138,166.276505 910.714294,173.730988 900.960999,180.947281 
	C898.942139,182.441025 899.381348,184.283752 899.555176,185.994385 
	C900.651733,196.780060 903.089050,207.346664 905.000000,218.000000 
"/>
<path fill="none" opacity="1.000000" stroke="#000000" stroke-linecap="round" stroke-linejoin="round" stroke-width="6.000000"
	d="
M45.500000,970.000000 
	C34.348221,977.740784 22.847479,984.846252 10.000000,989.500000 
"/>
<path fill="none" opacity="1.000000" stroke="#000000" stroke-linecap="round" stroke-linejoin="round" stroke-width="11.000000"
	d="
M515.000000,589.500000 
	C515.000000,589.333313 514.983948,589.164917 515.002258,589.000244 
	C515.973572,580.277527 512.879578,577.372803 503.997284,578.478271 
	C499.012299,579.098755 494.008453,579.750916 488.997314,579.920044 
	C485.038452,580.053589 482.132629,582.164917 479.000000,584.000000 
"/>
<path fill="none" opacity="1.000000" stroke="#000000" stroke-linecap="round" stroke-linejoin="round" stroke-width="8.000000"
	d="
M385.500000,370.000000 
	C387.585205,374.883209 385.360168,380.000458 386.390350,385.022491 
	C387.394806,389.919006 387.363220,395.018799 388.046844,399.993561 
	C388.523102,403.459473 389.933075,406.319885 393.464905,408.070801 
	C399.190277,410.909119 404.393280,414.648621 409.512207,418.483704 
	C412.507233,420.727600 415.320282,421.417267 419.080933,419.133270 
	C424.791901,415.664612 430.811584,412.651642 436.926544,409.840240 
	C439.692932,408.568329 441.708954,408.707123 443.991943,410.014099 
	C450.465607,413.720245 456.825928,417.594849 462.516907,422.480316 
	C464.409698,424.105194 466.500000,425.500000 468.500000,427.000000 
"/>
<path fill="none" opacity="1.000000" stroke="#000000" stroke-linecap="round" stroke-linejoin="round" stroke-width="8.000000"
	d="
M854.000000,585.500000 
	C851.665955,597.499878 849.331848,609.499695 847.039307,621.286194 
	C837.297852,625.205811 827.541687,628.786621 818.497314,633.995361 
	C816.568909,635.106018 814.985413,635.361572 812.935974,633.573425 
	C806.780518,628.202820 800.285889,623.222717 794.047363,617.944031 
	C793.024536,617.078491 792.419495,615.716980 792.425964,613.999695 
	C792.458069,605.463257 793.528503,597.000549 793.945740,588.497314 
	C794.116455,585.019043 795.442932,582.799866 798.455994,580.929138 
	C807.110291,575.556091 816.390137,571.454224 825.501892,567.003845 
	C828.861145,565.363098 831.585938,567.262085 833.954102,569.060486 
	C840.751038,574.222229 847.333313,579.666687 854.000000,585.000000 
"/>
<path fill="none" opacity="1.000000" stroke="#000000" stroke-linecap="round" stroke-linejoin="round" stroke-width="8.000000"
	d="
M792.000000,616.000000 
	C779.971863,621.110413 768.499695,627.332703 757.000000,633.500000 
"/>
<path fill="none" opacity="1.000000" stroke="#000000" stroke-linecap="round" stroke-linejoin="round" stroke-width="9.000000"
	d="
M353.000000,690.500000 
	C324.666656,690.666687 296.333160,690.810913 268.000183,691.023499 
	C263.624451,691.056335 259.291229,690.880676 255.000000,690.000000 
"/>
<path fill="none" opacity="1.000000" stroke="#000000" stroke-linecap="round" stroke-linejoin="round" stroke-width="7.000000"
	d="
M463.000000,177.500000 
	C472.166656,178.500000 481.318359,179.687729 490.506317,180.420807 
	C495.098663,180.787216 497.888550,182.364777 499.619049,186.955109 
	C502.695221,195.114899 506.010529,203.266724 510.173157,210.905640 
	C512.919800,215.946060 512.736084,220.644608 510.352905,224.917969 
	C506.121552,232.505402 504.511963,240.691238 503.000000,249.000000 
"/>
<path fill="none" opacity="1.000000" stroke="#000000" stroke-linecap="round" stroke-linejoin="round" stroke-width="7.000000"
	d="
M538.000000,18.500000 
	C522.343262,19.597162 506.666260,18.881041 490.999817,18.962746 
	C464.833862,19.099209 438.665771,19.121426 412.500519,18.928186 
	C404.338135,18.867905 396.207001,17.345425 388.000000,18.000000 
"/>
<path fill="none" opacity="1.000000" stroke="#000000" stroke-linecap="round" stroke-linejoin="round" stroke-width="8.000000"
	d="
M815.000000,635.500000 
	C812.922302,646.909851 814.226562,658.564697 812.500000,670.000000 
"/>
<path fill="none" opacity="1.000000" stroke="#000000" stroke-linecap="round" stroke-linejoin="round" stroke-width="8.000000"
	d="
M147.500000,514.000000 
	C144.782272,511.192200 143.368378,507.743744 142.491318,504.002045 
	C140.574432,495.824158 136.449951,488.529694 132.875870,481.059387 
	C130.984726,477.106689 126.351303,476.621674 122.499794,476.614838 
	C114.048233,476.599854 105.839973,474.766937 97.500000,474.000000 
"/>
<path fill="none" opacity="1.000000" stroke="#000000" stroke-linecap="round" stroke-linejoin="round" stroke-width="15.000000"
	d="
M5.250000,983.000000 
	C9.031304,987.290039 8.869336,991.969238 8.276799,997.529480 
	C7.329454,1006.419312 7.083225,1015.500000 8.000000,1024.500000 
"/>
<path fill="none" opacity="1.000000" stroke="#000000" stroke-linecap="round" stroke-linejoin="round" stroke-width="9.000000"
	d="
M323.000000,667.500000 
	C311.510498,666.608337 300.001251,667.080872 288.500000,667.000000 
"/>
<path fill="none" opacity="1.000000" stroke="#000000" stroke-linecap="round" stroke-linejoin="round" stroke-width="10.000000"
	d="
M371.500000,5.500000 
	C371.500000,18.666666 371.500000,31.833334 371.500000,45.000000 
	C371.500000,46.000000 371.437134,47.004631 371.510345,47.999237 
	C371.931915,53.724972 373.816223,54.764309 379.038177,52.591770 
	C380.116913,52.142982 381.306488,51.715782 381.943939,50.953133 
	C385.722626,46.432121 390.722076,46.372528 396.000763,46.446796 
	C407.998383,46.615597 420.009491,46.796806 431.997253,46.413731 
	C443.233307,46.054672 454.268402,48.938549 465.500092,48.001137 
	C477.682465,46.984383 489.824402,49.219547 501.999268,48.487694 
	C513.994141,47.766647 525.991699,48.740761 538.010742,48.282520 
	C544.043457,48.052525 550.291504,49.472027 556.499817,49.521923 
	C559.289734,49.544346 561.991394,49.342964 564.500000,48.000000 
"/>
<path fill="none" opacity="1.000000" stroke="#000000" stroke-linecap="round" stroke-linejoin="round" stroke-width="8.000000"
	d="
M505.000000,876.500000 
	C505.570892,885.050964 502.382294,892.736633 499.517731,900.506531 
	C498.734711,902.630310 497.917969,904.796875 497.593170,907.013672 
	C497.398468,908.342590 497.744904,909.588989 498.808929,911.131775 
	C504.566559,919.479736 511.509064,926.864502 517.500000,935.000000 
"/>
<path fill="none" opacity="1.000000" stroke="#000000" stroke-linecap="round" stroke-linejoin="round" stroke-width="8.000000"
	d="
M539.000000,862.000000 
	C528.892151,866.084473 518.668274,869.899780 508.998230,874.996643 
	C505.473694,876.854309 502.211975,875.757874 499.542389,873.450928 
	C492.686859,867.526978 484.872498,862.912415 477.882690,857.142090 
	C473.589478,853.597839 472.867554,853.108704 467.493378,856.990845 
	C460.520355,862.028137 453.429352,866.905579 446.543671,872.058350 
	C444.519897,873.572815 442.969727,873.851685 440.469299,873.102478 
	C430.403564,870.086304 420.534943,866.262573 410.000000,865.000000 
"/>
<path fill="none" opacity="1.000000" stroke="#000000" stroke-linecap="round" stroke-linejoin="round" stroke-width="8.000000"
	d="
M472.000000,820.500000 
	C472.166656,831.666687 472.333344,842.833313 472.500000,854.000000 
"/>
<path fill="none" opacity="1.000000" stroke="#000000" stroke-linecap="round" stroke-linejoin="round" stroke-width="9.000000"
	d="
M805.500000,800.000000 
	C807.624512,796.670593 807.352112,793.129517 806.509705,789.497742 
	C804.245239,779.734253 807.229187,774.244690 816.500000,771.000061 
	C821.267273,769.331604 828.925049,773.236084 830.516968,777.994324 
	C835.245544,792.127258 836.627014,806.706604 836.500000,821.500000 
"/>
<path fill="none" opacity="1.000000" stroke="#000000" stroke-linecap="round" stroke-linejoin="round" stroke-width="9.000000"
	d="
M287.500000,666.499939 
	C275.666656,666.166626 263.834808,665.679749 251.999359,665.566589 
	C246.336411,665.512512 240.666672,666.166687 235.000000,666.500061 
"/>
<path fill="none" opacity="1.000000" stroke="#000000" stroke-linecap="round" stroke-linejoin="round" stroke-width="7.000000"
	d="
M831.500000,1024.500000 
	C830.819580,1019.175842 828.053528,1015.225525 823.495056,1012.508301 
	C819.474365,1010.111633 814.725525,1010.464294 811.015686,1013.519104 
	C808.644897,1015.471313 806.951416,1018.221069 804.000000,1019.500000 
"/>
<path fill="none" opacity="1.000000" stroke="#000000" stroke-linecap="round" stroke-linejoin="round" stroke-width="9.000000"
	d="
M887.000000,573.000000 
	C877.662231,577.408447 867.951294,580.781982 858.006226,583.522644 
	C856.793823,583.856689 855.666626,584.499939 854.500000,584.999939 
"/>
<path fill="none" opacity="1.000000" stroke="#000000" stroke-linecap="round" stroke-linejoin="round" stroke-width="8.000000"
	d="
M761.500000,565.000000 
	C772.932251,570.308838 783.171265,577.658813 794.000000,584.000000 
"/>
<path fill="none" opacity="1.000000" stroke="#000000" stroke-linecap="round" stroke-linejoin="round" stroke-width="10.000000"
	d="
M189.000000,644.500000 
	C186.937958,650.573242 187.837631,656.888794 188.296188,662.977722 
	C188.494476,665.610718 188.995285,668.002686 187.998108,670.499268 
	C187.020035,672.948059 187.707474,675.502808 187.498749,677.999878 
	C186.899673,685.166870 188.527100,692.253052 187.742310,699.526123 
	C187.146286,705.049927 188.134933,710.947327 188.406601,716.528870 
	C188.667389,721.886658 188.223801,727.880005 187.366135,733.479492 
	C186.703979,737.802490 176.787964,742.863403 172.000000,742.000000 
"/>
<path fill="none" opacity="1.000000" stroke="#000000" stroke-linecap="round" stroke-linejoin="round" stroke-width="9.000000"
	d="
M41.500000,748.500000 
	C39.071911,748.557800 36.627892,748.180603 34.466530,749.959351 
	C32.776089,751.350525 30.553186,750.996765 28.499998,750.997986 
	C20.666668,751.002869 12.833333,751.000000 5.000000,751.000000 
"/>
<path fill="none" opacity="1.000000" stroke="#000000" stroke-linecap="round" stroke-linejoin="round" stroke-width="9.000000"
	d="
M1024.000000,408.000000 
	C1014.710632,409.565216 1005.391785,409.347321 995.996948,409.137482 
	C981.842590,408.821350 967.656921,408.505890 953.500000,409.500000 
"/>
<path fill="none" opacity="1.000000" stroke="#000000" stroke-linecap="round" stroke-linejoin="round" stroke-width="9.000000"
	d="
M1013.750000,385.000000 
	C1005.000000,385.737488 996.181335,385.047516 987.518433,384.623322 
	C978.000183,384.157288 968.464844,383.782501 959.006348,384.159180 
	C942.001709,384.836365 924.996155,385.343109 908.003357,384.878204 
	C895.663696,384.540619 883.332581,384.733582 870.999451,384.532074 
	C868.002991,384.483124 865.000000,384.833313 862.000000,385.000000 
"/>
<path fill="none" opacity="1.000000" stroke="#000000" stroke-linecap="round" stroke-linejoin="round" stroke-width="9.000000"
	d="
M863.500000,435.500000 
	C893.162537,434.596191 922.833557,435.202148 952.500000,435.000000 
"/>
<path fill="none" opacity="1.000000" stroke="#000000" stroke-linecap="round" stroke-linejoin="round" stroke-width="9.000000"
	d="
M1015.000000,435.000000 
	C994.500000,435.000000 974.000000,435.000000 953.500000,435.000000 
"/>
<path fill="none" opacity="1.000000" stroke="#000000" stroke-linecap="round" stroke-linejoin="round" stroke-width="8.000000"
	d="
M200.000000,541.500000 
	C196.521667,538.815979 194.634872,534.858093 192.013916,531.489197 
	C190.766266,529.885498 189.411819,528.289062 188.542755,526.479492 
	C184.038864,517.101562 175.741364,515.010376 166.500656,515.083008 
	C162.751373,515.112366 159.124985,514.257996 155.533401,513.759399 
	C150.317932,513.035400 147.287537,514.119507 144.900208,518.950684 
	C141.522552,525.785950 136.041794,531.398193 132.933624,538.470825 
	C132.403397,539.677246 131.000015,540.500000 130.000015,541.500000 
"/>
<path fill="none" opacity="1.000000" stroke="#000000" stroke-linecap="round" stroke-linejoin="round" stroke-width="8.000000"
	d="
M952.500000,409.500000 
	C948.546631,410.785889 944.491821,409.659851 940.492798,409.822601 
	C925.510803,410.432373 910.499939,410.327332 895.500000,410.501984 
	C884.666077,410.628113 873.821838,410.086792 863.000000,411.000000 
"/>
<path fill="none" opacity="1.000000" stroke="#000000" stroke-linecap="round" stroke-linejoin="round" stroke-width="9.000000"
	d="
M753.500000,4.750000 
	C755.960693,8.680904 755.497009,13.214071 755.927979,17.507229 
	C756.544128,23.645502 756.666687,29.833334 757.000000,36.000000 
"/>
<path fill="none" opacity="1.000000" stroke="#000000" stroke-linecap="round" stroke-linejoin="round" stroke-width="8.000000"
	d="
M12.500000,4.750000 
	C14.275669,8.088179 13.509273,11.524685 13.034560,15.004714 
	C12.420119,19.509071 10.552987,24.101490 13.494927,28.503391 
	C13.700381,28.810802 14.060926,29.261103 13.967410,29.486477 
	C8.847803,41.824665 17.832050,50.778282 21.511837,60.995735 
	C21.584105,61.196404 21.833334,61.333332 22.000000,61.500000 
"/>
<path fill="none" opacity="1.000000" stroke="#000000" stroke-linecap="round" stroke-linejoin="round" stroke-width="8.000000"
	d="
M414.500000,421.500000 
	C414.117767,430.022308 411.672791,438.376648 412.472900,447.002502 
	C412.656830,448.985443 412.500000,451.000000 412.500000,453.000000 
"/>
<path fill="none" opacity="1.000000" stroke="#000000" stroke-linecap="round" stroke-linejoin="round" stroke-width="9.000000"
	d="
M189.500000,692.000000 
	C191.166672,691.833313 192.831985,691.537048 194.500198,691.519836 
	C213.666550,691.322083 232.833359,691.169800 251.999878,690.987549 
	C252.682968,690.981018 253.499313,691.330566 254.490173,689.665649 
	C254.540604,682.500000 252.610474,674.500000 254.000000,666.500000 
"/>
<path fill="none" opacity="1.000000" stroke="#000000" stroke-linecap="round" stroke-linejoin="round" stroke-width="10.000000"
	d="
M964.500000,180.500000 
	C964.741211,190.891907 963.810791,201.208221 962.500000,211.500000 
"/>
<path fill="none" opacity="1.000000" stroke="#000000" stroke-linecap="round" stroke-linejoin="round" stroke-width="6.000000"
	d="
M936.500000,231.000000 
	C937.945190,241.533890 942.420105,251.383636 943.500000,262.000000 
"/>
<path fill="none" opacity="1.000000" stroke="#000000" stroke-linecap="round" stroke-linejoin="round" stroke-width="8.000000"
	d="
M868.500000,163.500000 
	C879.757874,167.867691 889.021912,175.522446 899.000000,182.000000 
"/>
<path fill="none" opacity="1.000000" stroke="#000000" stroke-linecap="round" stroke-linejoin="round" stroke-width="7.000000"
	d="
M553.500000,205.000000 
	C563.778137,210.811081 574.911194,215.173660 584.000000,223.000000 
"/>
<path fill="none" opacity="1.000000" stroke="#000000" stroke-linecap="round" stroke-linejoin="round" stroke-width="8.000000"
	d="
M811.500000,4.750000 
	C810.219055,10.613280 807.955627,16.493254 810.562256,22.472853 
	C811.847961,25.422258 809.689758,27.254299 808.932739,29.477104 
	C806.270996,37.292751 806.880005,45.531109 805.500000,53.500000 
"/>
<path fill="none" opacity="1.000000" stroke="#000000" stroke-linecap="round" stroke-linejoin="round" stroke-width="10.000000"
	d="
M219.500000,667.000000 
	C209.666672,666.255798 199.833328,666.120361 190.000000,667.000000 
"/>
<path fill="none" opacity="1.000000" stroke="#000000" stroke-linecap="round" stroke-linejoin="round" stroke-width="6.000000"
	d="
M933.000000,127.500000 
	C931.168823,134.274887 933.136414,140.896042 934.147278,147.477386 
	C934.653625,150.773819 933.816345,153.833328 934.000000,157.000000 
"/>
<path fill="none" opacity="1.000000" stroke="#000000" stroke-linecap="round" stroke-linejoin="round" stroke-width="10.000000"
	d="
M565.000000,5.000000 
	C565.000000,19.166666 565.000000,33.333332 565.000000,48.051338 
	C570.719849,53.181538 576.604309,58.599789 585.000000,60.000000 
"/>
<path fill="none" opacity="1.000000" stroke="#000000" stroke-linecap="round" stroke-linejoin="round" stroke-width="8.000000"
	d="
M579.500000,149.000000 
	C571.201965,156.525284 561.784424,162.603531 553.009094,169.511581 
	C552.273499,170.090683 551.666687,170.833328 551.000000,171.500000 
"/>
<path fill="none" opacity="1.000000" stroke="#000000" stroke-linecap="round" stroke-linejoin="round" stroke-width="9.000000"
	d="
M917.500000,362.500031 
	C913.000000,362.333344 908.500671,362.048187 903.999878,362.022919 
	C892.000244,361.955566 879.999878,361.970856 868.000061,362.011414 
	C861.271912,362.034180 860.446716,362.849915 860.513672,369.499847 
	C860.631165,381.167023 860.319885,392.871124 861.174500,404.487152 
	C861.778076,412.692810 860.704163,420.873901 861.585510,428.990723 
	C862.531067,437.698486 860.799744,446.333344 861.500000,455.000000 
"/>
<path fill="none" opacity="1.000000" stroke="#000000" stroke-linecap="round" stroke-linejoin="round" stroke-width="7.000000"
	d="
M190.000000,418.500000 
	C185.667038,423.584229 179.154739,423.530914 173.500381,425.501099 
	C170.313141,426.611603 167.036423,427.277802 163.912003,428.821960 
	C161.171051,430.176575 161.282303,431.871002 161.518265,433.997986 
	C162.441544,442.320251 161.691513,450.669495 162.000000,459.000000 
"/>
<path fill="none" opacity="1.000000" stroke="#000000" stroke-linecap="round" stroke-linejoin="round" stroke-width="7.000000"
	d="
M538.500000,4.500000 
	C539.558655,18.833334 538.648743,33.166668 538.500000,47.500000 
"/>
<path fill="none" opacity="1.000000" stroke="#000000" stroke-linecap="round" stroke-linejoin="round" stroke-width="8.000000"
	d="
M352.000000,666.000000 
	C342.666656,666.333313 333.333344,666.666687 324.000000,667.000000 
"/>
<path fill="none" opacity="1.000000" stroke="#000000" stroke-linecap="round" stroke-linejoin="round" stroke-width="8.000000"
	d="
M508.000000,4.000000 
	C506.944946,9.138008 507.678741,14.333789 507.516632,19.500521 
	C507.229156,28.664211 508.020966,37.848866 507.000000,47.000000 
"/>
<path fill="none" opacity="1.000000" stroke="#000000" stroke-linecap="round" stroke-linejoin="round" stroke-width="6.000000"
	d="
M388.000000,3.000000 
	C386.669586,13.982368 388.436157,25.009291 387.520844,36.001736 
	C387.240234,39.371849 387.512451,42.732086 388.500000,46.000000 
"/>
<path fill="none" opacity="1.000000" stroke="#000000" stroke-linecap="round" stroke-linejoin="round" stroke-width="8.000000"
	d="
M522.500000,161.000000 
	C513.881714,167.660782 505.586304,174.705933 497.500000,182.000000 
"/>
<path fill="none" opacity="1.000000" stroke="#000000" stroke-linecap="round" stroke-linejoin="round" stroke-width="10.000000"
	d="
M216.000000,809.500000 
	C211.409897,814.306274 206.370575,818.565063 201.070084,822.592224 
	C198.078369,824.865234 195.095184,825.856934 191.500000,825.500000 
"/>
<path fill="none" opacity="1.000000" stroke="#000000" stroke-linecap="round" stroke-linejoin="round" stroke-width="9.000000"
	d="
M847.500000,621.500000 
	C856.211853,628.585938 865.230408,635.345154 872.000000,644.500000 
"/>
<path fill="none" opacity="1.000000" stroke="#000000" stroke-linecap="round" stroke-linejoin="round" stroke-width="7.000000"
	d="
M408.000000,19.500000 
	C406.367889,28.000000 408.347961,36.500000 408.000000,45.000000 
"/>
<path fill="none" opacity="1.000000" stroke="#000000" stroke-linecap="round" stroke-linejoin="round" stroke-width="7.000000"
	d="
M440.000000,4.000000 
	C440.000000,13.166667 439.950684,22.333712 440.020966,31.499840 
	C440.055756,36.036964 440.066193,40.554287 439.000000,45.000000 
"/>
<path fill="none" opacity="1.000000" stroke="#000000" stroke-linecap="round" stroke-linejoin="round" stroke-width="9.000000"
	d="
M34.000000,722.500000 
	C36.926517,730.758423 37.870850,739.288940 37.500000,748.000000 
"/>
<path fill="none" opacity="1.000000" stroke="#000000" stroke-linecap="round" stroke-linejoin="round" stroke-width="10.000000"
	d="
M287.500000,644.500000 
	C287.907623,660.498474 289.461212,676.531372 288.252411,692.481262 
	C287.621002,700.812805 290.667908,708.430481 290.500000,716.500000 
"/>
<path fill="none" opacity="1.000000" stroke="#000000" stroke-linecap="round" stroke-linejoin="round" stroke-width="7.000000"
	d="
M564.000000,18.500000 
	C555.666687,18.666668 547.333313,18.833334 539.000000,19.000002 
"/>
<path fill="none" opacity="1.000000" stroke="#000000" stroke-linecap="round" stroke-linejoin="round" stroke-width="9.000000"
	d="
M1018.000000,365.000000 
	C1015.944519,367.845032 1015.658691,371.064392 1015.398621,374.492310 
	C1014.850952,381.708618 1015.338501,388.807098 1015.782959,396.013397 
	C1016.561096,408.632050 1016.083435,421.334412 1015.920654,433.998993 
	C1015.892456,436.191467 1016.369141,437.053925 1018.500183,437.008148 
	C1020.332642,436.968750 1022.166687,437.000000 1024.000000,437.000000 
"/>
<path fill="none" opacity="1.000000" stroke="#000000" stroke-linecap="round" stroke-linejoin="round" stroke-width="9.000000"
	d="
M986.500000,385.500000 
	C985.663086,394.666656 986.579834,403.858551 986.265869,412.991943 
	C986.019165,420.169739 987.220032,427.357819 986.000000,434.500000 
"/>
<path fill="none" opacity="1.000000" stroke="#000000" stroke-linecap="round" stroke-linejoin="round" stroke-width="9.000000"
	d="
M920.000000,410.500000 
	C920.500488,425.662994 920.822510,440.827972 920.500000,456.000000 
"/>
<path fill="none" opacity="1.000000" stroke="#000000" stroke-linecap="round" stroke-linejoin="round" stroke-width="9.000000"
	d="
M952.500000,385.000000 
	C953.566895,408.660339 952.736084,432.334015 953.000000,456.000000 
"/>
<path fill="none" opacity="1.000000" stroke="#000000" stroke-linecap="round" stroke-linejoin="round" stroke-width="9.000000"
	d="
M888.000000,363.000000 
	C886.455627,374.130524 887.060486,385.326843 887.029541,396.500092 
	C887.017029,400.999573 887.333374,405.500000 887.500000,410.000000 
"/>
<path fill="none" opacity="1.000000" stroke="#000000" stroke-linecap="round" stroke-linejoin="round" stroke-width="8.000000"
	d="
M778.500000,4.499998 
	C779.250000,14.333331 780.000000,24.166664 780.750000,33.999996 
"/>
<path fill="none" opacity="1.000000" stroke="#000000" stroke-linecap="round" stroke-linejoin="round" stroke-width="9.000000"
	d="
M886.999939,411.000000 
	C887.166626,426.000000 887.333313,441.000000 887.499939,456.000000 
"/>
<path fill="none" opacity="1.000000" stroke="#000000" stroke-linecap="round" stroke-linejoin="round" stroke-width="9.000000"
	d="
M917.500000,358.500000 
	C917.929382,359.809326 917.010803,361.125397 918.393860,362.599579 
	C920.802490,365.167023 919.995300,368.757721 919.997131,372.000000 
	C920.004272,384.500000 920.000000,397.000000 920.000000,409.500000 
"/>
<path fill="none" opacity="1.000000" stroke="#000000" stroke-linecap="round" stroke-linejoin="round" stroke-width="9.000000"
	d="
M322.500000,643.500000 
	C321.830719,649.689270 322.083435,655.785950 322.829346,662.020447 
	C323.956757,671.443604 324.843201,680.955627 324.500000,690.500000 
"/>
<path fill="none" opacity="1.000000" stroke="#000000" stroke-linecap="round" stroke-linejoin="round" stroke-width="10.000000"
	d="
M305.000000,132.500000 
	C308.803558,128.477966 314.409882,127.045097 318.139069,122.617119 
	C322.557831,117.370323 322.617310,114.498375 316.482330,111.031242 
	C314.933563,110.155968 313.221161,109.391647 311.490356,109.048653 
	C304.779633,107.718788 301.309875,102.766541 297.978088,97.513901 
	C295.475739,93.568916 293.780823,93.746078 289.951965,96.942459 
	C284.880402,101.176270 279.703461,105.487503 272.500000,105.500000 
"/>
<path fill="none" opacity="1.000000" stroke="#000000" stroke-linecap="round" stroke-linejoin="round" stroke-width="10.000000"
	d="
M986.500000,435.500000 
	C986.500000,442.833344 986.500000,450.166656 986.500000,457.500000 
"/>
<path fill="none" opacity="1.000000" stroke="#000000" stroke-linecap="round" stroke-linejoin="round" stroke-width="9.000000"
	d="
M253.500000,644.500000 
	C252.685852,651.500000 252.735687,658.500000 253.500000,665.500000 
"/>
<path fill="none" opacity="1.000000" stroke="#000000" stroke-linecap="round" stroke-linejoin="round" stroke-width="10.000000"
	d="
M955.000000,363.000000 
	C953.094238,369.872314 952.138611,376.857758 952.500000,384.000000 
"/>
<path fill="none" opacity="1.000000" stroke="#000000" stroke-linecap="round" stroke-linejoin="round" stroke-width="10.000000"
	d="
M516.000000,487.500000 
	C519.416016,490.750671 523.028015,493.775055 526.054749,497.454956 
	C528.406677,500.314423 531.648682,501.691620 535.500000,501.000000 
"/>
<path fill="none" opacity="1.000000" stroke="#000000" stroke-linecap="round" stroke-linejoin="round" stroke-width="9.000000"
	d="
M1017.000000,437.500000 
	C1017.128235,444.334259 1016.669678,451.182861 1017.500000,458.000000 
"/>
<path fill="none" opacity="1.000000" stroke="#000000" stroke-linecap="round" stroke-linejoin="round" stroke-width="9.000000"
	d="
M985.500000,364.000000 
	C985.333374,366.166656 984.567627,368.502014 985.120605,370.466034 
	C986.402161,375.017456 985.854736,379.480682 985.500000,384.000000 
"/>
<path fill="none" opacity="1.000000" stroke="#000000" stroke-linecap="round" stroke-linejoin="round" stroke-width="9.000000"
	d="
M324.000000,691.500000 
	C325.094238,695.717102 324.475952,699.934265 323.385803,703.969177 
	C322.754547,706.305664 323.625580,708.333313 323.500000,710.500000 
"/>
<path fill="none" opacity="1.000000" stroke="#000000" stroke-linecap="round" stroke-linejoin="round" stroke-width="8.000000"
	d="
M253.500000,691.500000 
	C253.425583,697.835754 253.990082,704.188354 253.000000,710.500000 
"/>
<path fill="none" opacity="1.000000" stroke="#000000" stroke-linecap="round" stroke-linejoin="round" stroke-width="9.000000"
	d="
M144.500000,416.500000 
	C145.214050,418.662079 146.738358,420.572693 148.553055,421.380890 
	C153.400375,423.539673 157.111725,427.250702 161.500000,430.000000 
"/>
<path fill="none" opacity="1.000000" stroke="#000000" stroke-linecap="round" stroke-linejoin="round" stroke-width="8.000000"
	d="
M1022.000000,45.000000 
	C1019.311829,48.370266 1018.231323,52.154919 1018.401917,56.503849 
	C1018.479431,58.481197 1017.500000,60.500004 1017.000000,62.500004 
"/>
<path fill="none" opacity="1.000000" stroke="#000000" stroke-linecap="round" stroke-linejoin="round" stroke-width="10.000000"
	d="
M277.000000,82.000000 
	C273.120422,86.435249 267.642975,88.633644 263.003082,92.004242 
	C261.037842,93.431862 258.825897,93.689980 256.500000,93.500000 
"/>
<path fill="none" opacity="1.000000" stroke="#000000" stroke-linecap="round" stroke-linejoin="round" stroke-width="10.000000"
	d="
M167.500000,239.000000 
	C164.224091,243.057434 160.325623,246.483276 156.568207,250.071426 
	C154.126160,252.403442 151.645325,253.198395 148.500000,252.500000 
"/>
<path fill="none" opacity="1.000000" stroke="#000000" stroke-linecap="round" stroke-linejoin="round" stroke-width="7.000000"
	d="
M989.500000,3.750000 
	C986.180969,8.558276 985.110413,13.794842 986.500000,19.500000 
"/>
<path fill="none" opacity="1.000000" stroke="#000000" stroke-linecap="round" stroke-linejoin="round" stroke-width="7.000000"
	d="
M407.000000,4.000000 
	C407.166687,8.833333 407.333344,13.666666 407.500000,18.500000 
"/>
<path fill="none" opacity="1.000000" stroke="#000000" stroke-linecap="round" stroke-linejoin="round" stroke-width="7.000000"
	d="
M472.000000,4.000000 
	C472.000000,8.833333 472.000000,13.666667 472.000000,18.500000 
"/>
<path fill="none" opacity="1.000000" stroke="#000000" stroke-linecap="round" stroke-linejoin="round" stroke-width="7.000000"
	d="
M387.000000,18.000000 
	C382.333344,18.500000 377.666656,19.000000 373.000000,19.500000 
"/>
<path fill="none" opacity="1.000000" stroke="#000000" stroke-linecap="round" stroke-linejoin="round" stroke-width="7.000000"
	d="
M472.000000,19.500000 
	C472.230804,28.498812 471.483337,37.515739 472.500000,46.500000 
"/>
<path fill="none" opacity="1.000000" stroke="#000000" stroke-linecap="round" stroke-linejoin="round" stroke-width="3.000000"
	d="
M441.500000,1014.000000 
	C441.457367,1017.527710 442.145264,1021.124939 440.500000,1024.500000 
"/>
<path fill="none" opacity="1.000000" stroke="#000000" stroke-linecap="round" stroke-linejoin="round" stroke-width="5.000000"
	d="
M388.999969,1014.000000 
	C388.666656,1017.500000 388.333313,1021.000000 387.999969,1024.500000 
"/>
<path fill="none" opacity="1.000000" stroke="#000000" stroke-linecap="round" stroke-linejoin="round" stroke-width="3.000000"
	d="
M373.500000,54.000000 
	C371.341003,56.036400 370.168121,58.467255 370.500000,61.500000 
"/>
<path fill="none" opacity="1.000000" stroke="#000000" stroke-linecap="round" stroke-linejoin="round" stroke-width="3.000000"
	d="
M696.000000,774.500000 
	C697.106934,776.766174 696.216125,779.175049 696.500000,781.500000 
"/>
<path fill="none" opacity="1.000000" stroke="#000000" stroke-linecap="round" stroke-linejoin="round" stroke-width="3.000000"
	d="
M304.500000,95.000000 
	C302.123627,95.031967 299.687317,94.644485 297.500000,96.000000 
"/>
<path fill="none" opacity="1.000000" stroke="#000000" stroke-linecap="round" stroke-linejoin="round" stroke-width="3.000000"
	d="
M657.000000,777.500000 
	C658.955811,779.601562 657.581970,782.178772 658.000000,784.500000 
"/>
<path fill="none" opacity="1.000000" stroke="#000000" stroke-linecap="round" stroke-linejoin="round" stroke-width="3.000000"
	d="
M294.000000,195.000000 
	C292.243988,196.017319 290.326782,195.261398 288.500000,195.500000 
"/>
</svg>