<svg version="1.1" id="Layer_1" xmlns="http://www.w3.org/2000/svg" xmlns:xlink="http://www.w3.org/1999/xlink" x="0px" y="0px"
	 width="100%" viewBox="0 0 1024 1024" enable-background="new 0 0 1024 1024" xml:space="preserve">
<path fill="none" opacity="1.000000" stroke="#000000" stroke-linecap="round" stroke-linejoin="round" stroke-width="11.000000"
	d="
M752.000000,234.000000 
	C740.833313,234.000000 729.666260,234.062943 718.500122,233.984406 
	C703.832947,233.881241 689.166992,233.616623 674.499817,233.529999 
	C670.000977,233.503448 665.501099,233.885132 660.999634,233.981903 
	C657.958496,234.047287 656.507874,235.419632 655.873657,238.473755 
	C655.515869,240.196793 655.536194,241.843399 655.534241,243.500046 
	C655.489746,281.500000 655.204956,319.503357 655.637085,357.498444 
	C655.824768,373.999268 655.773071,390.500671 656.019531,406.999695 
	C656.036987,408.168579 656.445190,409.329865 656.481506,410.500580 
	C656.688782,417.189728 659.692627,418.049286 665.000122,418.026764 
	C681.999817,417.954681 699.000854,417.896820 715.999695,418.035034 
	C728.018188,418.132751 740.014221,417.845703 752.000000,417.000000 
"/>
<path fill="none" opacity="1.000000" stroke="#000000" stroke-linecap="round" stroke-linejoin="round" stroke-width="11.000000"
	d="
M229.000000,785.500000 
	C230.835739,787.874390 231.050949,790.619446 231.025391,793.500244 
	C230.952942,801.666260 231.603775,809.889038 230.856430,817.986755 
	C229.774948,829.705200 231.772430,841.324768 231.057983,853.003540 
	C230.691208,858.998901 230.010117,859.916016 224.000122,860.007996 
	C153.335464,861.089050 82.666405,860.220703 11.999989,860.497070 
	C6.497048,860.518616 4.925370,859.036194 4.505013,853.499634 
	C4.467273,853.002502 4.503752,852.499939 4.499458,852.000000 
	C4.333430,832.666687 4.157174,813.333374 4.011312,793.999939 
	C3.991796,791.413086 3.566572,788.759399 5.441577,786.452515 
	C5.855318,785.943481 6.401157,785.081177 5.563947,783.952576 
	C3.242591,780.823242 4.019194,777.054993 4.015393,773.500000 
	C3.987054,747.000000 3.840504,720.498291 4.124774,694.001343 
	C4.187073,688.194397 2.146512,682.173767 5.383682,676.434387 
	C6.269611,674.863708 3.906332,673.138916 3.920119,670.999512 
	C4.053289,650.333679 4.044482,629.666443 3.939375,609.000305 
	C3.927283,606.622681 5.491954,605.052856 6.005676,603.001892 
	C78.333336,603.000000 150.666672,603.000000 223.000000,603.000000 
	C229.900055,603.000000 231.091690,604.065674 230.966614,610.999390 
	C230.819305,619.166138 231.619308,627.355530 230.482742,635.497620 
	C230.219620,637.382629 229.740051,639.237427 229.458008,640.624512 
	C225.833328,642.474121 222.668579,640.919922 219.499695,640.934570 
	C194.166916,641.051758 168.833328,641.000000 143.500000,641.000000 
	C135.561462,641.000000 134.528732,641.958374 134.514175,650.000000 
	C134.473450,672.499939 134.435104,695.000244 134.517624,717.499939 
	C134.606247,741.666931 134.994690,765.833801 134.921539,789.999756 
	C134.891769,799.834534 133.967560,809.669373 135.009552,819.498962 
	C135.633636,825.386169 136.796051,826.478149 142.500015,826.490051 
	C156.999954,826.520203 171.514267,826.897705 185.995636,826.378357 
	C198.338394,825.935852 210.667206,826.209045 223.000397,826.027466 
	C224.997513,825.998108 227.000000,826.333313 229.000000,826.500000 
"/>
<path fill="none" opacity="1.000000" stroke="#000000" stroke-linecap="round" stroke-linejoin="round" stroke-width="11.000000"
	d="
M1021.000000,1024.250000 
	C1022.162720,1024.364746 1023.325500,1024.479614 1024.500000,1024.595459 
	C1024.500000,994.000000 1024.500000,963.500000 1024.500000,933.037476 
	C1017.083801,929.453186 1009.280579,930.778442 1001.498596,930.924561 
	C987.336914,931.190369 973.166687,931.000000 959.000000,931.000000 
	C907.666687,931.000000 856.333313,931.000000 805.000000,931.000000 
	C797.247864,931.000000 797.098572,931.249390 796.980103,938.999695 
	C796.709900,956.667358 795.723267,974.350647 796.224915,991.993591 
	C796.533997,1002.861450 795.108704,1013.666687 796.000000,1024.500000 
"/>
<path fill="none" opacity="1.000000" stroke="#000000" stroke-linecap="round" stroke-linejoin="round" stroke-width="11.000000"
	d="
M6.000000,458.500000 
	C3.766459,460.333252 3.469127,462.802002 3.475167,465.500061 
	C3.520687,485.833282 3.486449,506.166656 3.508057,526.500000 
	C3.514751,532.798706 4.759874,534.000000 11.000000,534.000000 
	C81.666664,534.000000 152.333328,534.000000 223.000000,534.000000 
	C230.752121,534.000000 231.000000,533.752136 231.000000,526.000000 
	C231.000000,510.166656 231.020065,494.333282 230.982574,478.500031 
	C230.975327,475.437836 231.511307,472.297211 229.569138,469.452789 
	C229.103439,468.770782 229.308304,467.455353 229.529205,466.506805 
	C232.162476,455.199860 231.595749,443.826080 229.862640,432.521057 
	C229.423309,429.655273 231.162582,427.673309 231.118637,424.998047 
	C230.872299,410.002106 231.000000,395.000000 231.000000,380.000000 
	C231.000000,379.833344 231.031906,379.659302 230.995438,379.501038 
	C228.398926,368.233276 232.128677,356.750305 229.918625,345.516022 
	C228.916428,340.421661 229.636841,335.535309 229.796005,330.493561 
	C230.332123,313.510498 230.027130,296.499939 229.987244,279.500031 
	C229.970169,272.220978 228.695358,271.001465 221.500000,271.001251 
	C149.666672,270.999176 77.833336,271.000000 6.307044,271.000000 
	C4.066844,273.718567 3.944465,276.784088 3.959501,280.000183 
	C4.043656,297.999786 3.992512,316.000000 4.008377,334.000000 
	C4.010658,336.587524 3.532595,339.266541 5.466211,341.528870 
	C5.865839,341.996429 6.204546,343.121979 5.944299,343.456696 
	C2.068515,348.441498 4.038209,354.108459 4.027553,359.500061 
	C3.969577,388.833282 4.000000,418.166656 4.000000,447.500000 
	C4.000000,448.000000 3.994100,448.500092 4.000884,449.000000 
	C4.106007,456.746918 5.898114,458.426086 13.492900,456.963135 
	C39.623936,451.929626 58.501770,431.806000 60.016815,404.000916 
	C60.095028,402.565460 59.169369,400.430115 62.000000,400.500000 
"/>
<path fill="none" opacity="1.000000" stroke="#000000" stroke-linecap="round" stroke-linejoin="round" stroke-width="11.000000"
	d="
M275.500000,571.000000 
	C303.500000,571.000000 331.500000,571.000000 359.500000,571.000000 
	C361.000000,571.000000 362.570740,570.710815 363.986053,571.056946 
	C367.513245,571.919617 369.533844,573.564392 369.630066,577.997192 
	C370.484009,617.331482 369.529510,656.670105 370.117798,695.998230 
	C370.302307,708.332397 370.364166,720.666382 370.484253,733.000183 
	C370.543182,739.052185 369.528961,740.025696 363.500031,739.994202 
	C333.999969,739.840210 304.500000,739.666626 275.000000,739.500000 
"/>
<path fill="none" opacity="1.000000" stroke="#000000" stroke-linecap="round" stroke-linejoin="round" stroke-width="11.000000"
	d="
M1024.500000,676.500000 
	C1024.500000,654.166687 1024.427246,631.832764 1024.587891,609.500610 
	C1024.609009,606.550354 1023.720032,605.244690 1021.015747,604.446594 
	C1017.720703,603.474182 1014.413086,602.995667 1011.000000,602.995972 
	C941.666687,603.001343 872.333191,603.051086 803.000183,602.902405 
	C797.493713,602.890564 794.602356,605.475403 794.909607,611.005005 
	C795.288147,617.817322 794.209656,624.785583 795.215088,631.467651 
	C796.289917,638.611206 795.494446,645.479553 795.097900,652.505554 
	C794.666504,660.147888 794.031494,667.988647 795.230286,675.463074 
	C796.964294,686.274109 794.949097,696.849243 794.731506,707.494507 
	C794.580994,714.856384 795.144714,722.164185 795.065613,729.500732 
	C794.988403,736.662781 795.249695,743.848267 795.293396,751.001282 
	C795.340088,758.647034 794.753601,766.350403 795.091309,773.995972 
	C795.615234,785.859131 793.598755,797.667358 794.573730,809.493896 
	C795.014160,814.837036 794.120056,820.288574 796.313660,825.577271 
	C797.007080,827.249023 795.117432,829.824768 795.068726,832.001526 
	C794.893616,839.830933 794.908142,847.668274 795.043152,855.499268 
	C795.100769,858.839233 796.965210,860.695496 800.500366,860.506531 
	C801.331299,860.462158 802.166687,860.500000 803.000000,860.500000 
	C872.333313,860.500000 941.666687,860.491577 1011.000000,860.518738 
	C1015.676025,860.520569 1020.373047,860.883606 1024.500000,856.565063 
	C1024.500000,797.333557 1024.500000,737.166809 1024.500000,677.000000 
"/>
<path fill="none" opacity="1.000000" stroke="#000000" stroke-linecap="round" stroke-linejoin="round" stroke-width="12.000000"
	d="
M1024.250000,6.499999 
	C1024.333374,8.166666 1024.489258,9.833317 1024.489624,11.500001 
	C1024.502075,71.833336 1024.440674,132.166870 1024.636597,192.499557 
	C1024.649292,196.431412 1023.053040,197.499191 1019.994934,197.966736 
	C1018.692078,198.165924 1017.333313,198.000000 1016.000000,198.000000 
	C999.666687,198.000000 983.328491,197.742615 967.000854,198.047043 
	C912.668152,199.060120 858.332458,198.137070 804.000549,198.569748 
	C797.904968,198.618301 795.610352,197.652130 796.000305,190.500015 
	C796.454834,182.163956 794.998413,173.760315 797.388184,165.467773 
	C798.225037,162.563751 795.678833,159.768204 795.878906,156.492599 
	C796.284424,149.850693 796.506042,143.116150 795.846924,136.515289 
	C795.273804,130.775223 797.573975,125.351837 796.246643,119.444580 
	C795.070190,114.208923 796.494568,108.443970 795.879333,103.013672 
	C795.042297,95.625473 796.265991,88.338058 796.045288,80.998634 
	C795.835022,74.004959 796.023193,66.999886 795.988770,60.000053 
	C795.974487,57.092518 796.479797,54.092281 794.530579,51.477207 
	C794.151550,50.968800 793.813599,49.979866 794.052734,49.527908 
	C797.976562,42.111652 794.751770,34.080765 796.111816,26.520111 
	C797.358093,19.592026 795.266541,12.833333 796.000000,6.000000 
"/>
<path fill="none" opacity="1.000000" stroke="#000000" stroke-linecap="round" stroke-linejoin="round" stroke-width="12.000000"
	d="
M7.750000,7.500000 
	C7.833333,7.916667 8.137190,8.536621 7.967828,8.720343 
	C3.441459,13.630466 4.513932,19.687485 4.509534,25.500008 
	C4.488346,53.499992 4.498426,81.500000 4.501620,109.500000 
	C4.502125,113.934044 4.655925,118.336090 6.458981,122.517685 
	C6.764289,123.225761 7.497850,123.957649 6.545324,125.039894 
	C3.879041,128.069244 4.480914,131.880585 4.509499,135.499924 
	C4.655613,154.000092 4.825374,172.500076 5.003891,190.999969 
	C5.075999,198.472534 6.123360,199.500000 13.500000,199.500000 
	C83.000000,199.500000 152.500122,199.443832 221.999786,199.597260 
	C228.141556,199.610809 231.249680,198.253113 231.035553,190.499023 
	C230.860779,184.170517 231.339020,177.811295 230.929260,171.504593 
	C230.082565,158.473328 231.273117,145.499283 231.487183,132.499786 
	C231.528961,129.963104 232.115219,127.132446 230.426804,125.059616 
	C228.323853,122.477890 230.577545,120.336250 230.529770,117.999390 
	C230.431000,113.168076 229.938339,108.251312 230.629471,103.518906 
	C231.710861,96.114243 230.403763,88.833977 230.483124,81.499817 
	C230.560654,74.333992 229.999908,67.123116 230.619339,60.010391 
	C231.508255,49.802986 230.050323,39.668030 230.477051,29.499037 
	C230.583298,26.967333 230.773743,24.394773 229.532089,21.983473 
	C229.157990,21.256954 228.730087,20.019577 229.068237,19.549036 
	C232.098465,15.332458 230.661819,10.548665 231.000000,6.000000 
"/>
<path fill="none" opacity="1.000000" stroke="#000000" stroke-linecap="round" stroke-linejoin="round" stroke-width="12.000000"
	d="
M1024.500000,342.500000 
	C1024.500000,321.833344 1024.500000,301.166656 1024.500000,280.500000 
	C1024.500000,273.834839 1022.781677,272.005554 1015.999268,271.510071 
	C1015.004578,271.437408 1014.000000,271.500000 1013.000000,271.500000 
	C948.833313,271.500000 884.666687,271.486725 820.500000,271.521759 
	C814.499939,271.525024 808.498657,271.795837 802.500427,272.012482 
	C798.110474,272.170990 796.970215,273.304962 797.032471,277.999573 
	C797.151794,286.999847 796.844238,295.994141 797.383545,305.006958 
	C797.800354,311.972046 796.584229,319.045258 797.123840,325.990387 
	C798.176880,339.543457 796.093323,352.978821 796.400452,366.502258 
	C796.805237,384.326416 796.500000,402.166656 796.500000,420.000000 
	C796.500000,434.000000 796.560303,448.000336 796.485840,461.999939 
	C796.373230,483.166870 796.148376,504.333221 796.008789,525.500061 
	C795.950012,534.405457 798.301575,534.067993 804.500061,534.059692 
	C874.833252,533.965637 945.166687,533.992615 1015.500000,534.024231 
	C1018.615234,534.025635 1021.657043,533.942322 1024.500000,532.338501 
	C1024.500000,469.333344 1024.500000,406.166656 1024.500000,343.000000 
"/>
<path fill="none" opacity="1.000000" stroke="#000000" stroke-linecap="round" stroke-linejoin="round" stroke-width="11.000000"
	d="
M750.500000,937.000000 
	C739.000000,936.168884 727.506287,936.276794 715.996826,936.945557 
	C711.534973,937.204712 710.421570,939.496033 710.453918,943.500366 
	C710.571045,957.999451 710.625305,972.501465 710.458801,986.999512 
	C710.334351,997.835266 709.823120,1008.666382 709.511169,1019.500305 
	C709.465271,1021.095215 709.201172,1022.733215 710.641541,1024.375000 
	C724.166687,1024.375000 738.333313,1024.375000 752.317200,1024.375000 
	C753.939636,1019.833313 752.471313,1015.416931 752.480347,1010.999939 
	C752.523987,989.666748 752.509583,968.333313 752.489136,947.000000 
	C752.486267,943.971924 752.935059,940.881042 751.509033,937.995544 
	C751.277771,937.527466 750.888428,936.885071 751.040588,936.516724 
	C755.222046,926.392517 752.755615,915.804749 752.680176,905.502319 
	C752.640991,900.155701 752.725769,894.849731 752.870605,889.496521 
	C753.149963,879.175171 753.933899,868.855896 753.100159,858.491943 
	C752.558777,851.762878 752.271851,851.001343 745.500000,851.001160 
	C671.000000,850.999268 596.499146,850.824951 522.000916,851.186340 
	C510.661072,851.241333 499.343903,850.526001 487.997040,850.913513 
	C476.510437,851.305786 465.000000,851.000000 453.500000,851.000000 
	C442.166656,851.000000 430.833344,851.000000 419.500000,851.000000 
	C408.000000,851.000000 396.500000,851.000000 385.000000,851.000000 
	C373.666656,851.000000 362.333344,851.000000 351.000000,851.000000 
	C339.500000,851.000000 328.000000,851.000000 316.500000,851.000000 
	C305.166656,851.000000 293.830902,851.139038 282.501068,850.939636 
	C277.065918,850.844055 274.471161,852.058960 274.287659,858.493958 
	C273.978485,869.335266 273.253296,880.276123 274.383240,890.959473 
	C275.058838,897.347046 273.416534,903.355774 274.060089,909.493713 
	C274.707581,915.668640 273.995361,921.865356 274.571075,927.993347 
	C275.778900,940.848633 273.994293,953.656250 274.409180,966.502930 
	C274.823212,979.322876 274.500000,992.166687 274.500000,1005.000000 
	C274.500000,1011.419250 274.500000,1017.838440 274.500000,1024.375000 
	C289.166656,1024.375000 302.833344,1024.375000 317.000000,1024.375000 
	C317.000000,1020.500671 317.022217,1016.750122 316.996399,1013.000000 
	C316.836975,989.833313 316.673340,966.666626 316.495483,943.500061 
	C316.450073,937.580994 315.418976,936.529053 309.499969,936.510071 
	C298.500092,936.474792 287.500000,936.500000 276.500000,936.500000 
"/>
<path fill="none" opacity="1.000000" stroke="#000000" stroke-linecap="round" stroke-linejoin="round" stroke-width="11.000000"
	d="
M751.000000,526.500000 
	C748.663635,525.181824 746.138733,524.974548 743.500000,524.975647 
	C669.500000,525.006042 595.498718,524.783630 521.501343,525.223267 
	C509.825195,525.292603 498.181335,524.427185 486.495880,524.897278 
	C474.848053,525.365845 463.166656,525.000000 451.500000,525.000000 
	C439.833344,525.000000 428.166656,525.000000 416.500000,525.000000 
	C405.000000,525.000000 393.500000,525.000000 382.000000,525.000000 
	C370.333344,525.000000 358.666656,525.000000 347.000000,525.000000 
	C335.333344,525.000000 323.660187,525.241150 312.001923,524.927856 
	C301.659363,524.649963 291.339935,524.164673 280.997467,524.967346 
	C275.021393,525.431091 273.096436,526.523193 273.123535,532.499451 
	C273.180237,545.002686 271.971558,557.557251 274.388123,570.021667 
	C274.973785,573.042542 274.054626,576.332214 274.022705,579.500244 
	C273.950470,586.666199 273.446259,593.885498 274.115356,600.989136 
	C275.504700,615.739624 272.336273,630.285461 272.881226,645.004395 
	C273.423492,659.651001 272.640045,674.346008 273.156067,688.994507 
	C273.403778,696.026428 272.962646,702.999878 272.993469,710.000000 
	C273.023529,716.833191 272.987488,723.666748 273.006500,730.500000 
	C273.013550,733.038269 272.579132,735.693726 274.054565,737.964539 
	C274.528259,738.693665 274.575989,739.344543 274.473877,739.995911 
	C272.520477,752.457336 273.968750,765.003601 273.500671,777.500000 
	C273.344086,781.680969 275.756989,783.088745 279.499878,782.995422 
	C285.500305,782.845825 291.499939,782.524658 297.500000,782.521729 
	C367.000000,782.487732 436.501282,782.713867 505.998779,782.298340 
	C518.174011,782.225586 530.322388,783.003906 542.503052,782.590454 
	C554.655762,782.177979 566.833313,782.500000 579.000000,782.500000 
	C591.333313,782.500000 603.666687,782.500000 616.000000,782.500000 
	C628.166687,782.500000 640.333313,782.500000 652.500000,782.500000 
	C664.666687,782.500000 676.833313,782.500000 689.000000,782.500000 
	C701.166687,782.500000 713.333679,782.443542 725.499878,782.522095 
	C732.333984,782.566162 739.165894,782.894165 746.000244,782.981812 
	C752.093445,783.059998 753.412842,781.748718 753.480774,775.499817 
	C753.562256,768.000671 753.523499,760.499878 753.491577,753.000061 
	C753.470947,748.148010 752.923584,743.234314 752.897766,738.497803 
	C752.870117,733.431335 753.597168,728.158936 753.418457,723.002808 
	C753.129089,714.653015 754.753479,706.218872 751.705383,697.924500 
	C750.844727,695.582581 753.104492,692.537354 753.084473,689.499451 
	C752.930725,666.167114 753.504578,642.815552 752.683716,619.511169 
	C752.446350,612.771851 752.947754,606.165039 753.033630,599.500427 
	C753.130249,592.000244 753.796387,584.360413 753.132874,577.033264 
	C752.444519,569.432190 753.491150,562.002625 753.088074,554.495300 
	C752.686462,547.016846 752.895325,539.497742 753.055725,532.001221 
	C753.113281,529.311829 749.689331,526.764893 752.750000,524.000000 
"/>
<path fill="none" opacity="1.000000" stroke="#000000" stroke-linecap="round" stroke-linejoin="round" stroke-width="11.000000"
	d="
M275.000000,233.000000 
	C301.994659,234.030350 329.000580,233.248352 355.999939,233.506790 
	C368.299011,233.624512 369.967316,235.201202 369.978485,247.500015 
	C370.028076,302.166626 370.006287,356.833344 369.990234,411.500000 
	C369.988647,416.927887 368.922852,417.985443 363.500000,417.990509 
	C339.833344,418.012573 316.166626,418.022034 292.500031,417.984344 
	C286.665009,417.975037 280.876495,416.156433 275.000000,417.500000 
"/>
<path fill="none" opacity="1.000000" stroke="#000000" stroke-linecap="round" stroke-linejoin="round" stroke-width="11.000000"
	d="
M752.500000,234.000000 
	C755.503967,227.008026 753.521484,219.665665 753.917419,212.495438 
	C754.081604,209.522919 753.156006,206.506927 753.038635,203.498489 
	C752.824585,198.012024 751.983948,197.016800 746.500000,197.009659 
	C727.333313,196.984711 708.162903,196.752869 689.000732,197.046509 
	C632.334473,197.914871 575.666016,197.217926 519.000854,197.619507 
	C513.994446,197.654968 508.999603,197.574341 504.000061,197.578079 
	C436.999969,197.628113 370.000031,197.851624 302.999969,197.975403 
	C295.166931,197.989883 287.333984,197.598557 279.499786,197.523392 
	C274.069946,197.471283 273.073608,198.495255 273.017303,204.000183 
	C272.945740,210.999451 272.404602,218.066452 273.176208,224.980331 
	C273.874786,231.240067 272.962189,237.333206 272.993408,243.500031 
	C273.023804,249.499878 272.593842,255.533813 273.089966,261.492523 
	C273.952545,271.852783 272.642853,282.167664 273.013763,292.499512 
	C273.160706,296.593842 272.743500,300.594116 271.494110,304.498108 
	C271.283325,305.156677 270.666595,305.453400 270.920227,306.518982 
	C273.861389,318.874603 272.489960,331.494324 272.944153,344.002014 
	C273.240326,352.157928 272.442139,360.383667 273.172668,368.484436 
	C273.780731,375.227112 272.963806,381.833252 272.993500,388.500031 
	C273.023163,395.166565 272.987274,401.833374 273.006470,408.499969 
	C273.013794,411.038239 272.562317,413.705902 274.054779,415.963806 
	C274.650391,416.864929 274.665344,417.767120 274.449829,418.484955 
	C271.329681,428.878662 273.704712,439.508667 273.035736,450.002289 
	C272.801025,453.683533 275.001984,455.116089 278.500427,455.015259 
	C281.164886,454.938446 283.833344,455.000000 286.500000,455.000000 
	C359.666656,455.000000 432.834137,455.170197 505.999176,454.823761 
	C517.505127,454.769318 528.990601,455.459503 540.502686,455.081177 
	C551.823730,454.709076 563.166687,455.000000 574.500000,455.000000 
	C586.000000,455.000000 597.500000,455.000000 609.000000,455.000000 
	C620.333313,455.000000 631.666687,455.000000 643.000000,455.000000 
	C654.500000,455.000000 666.000000,455.000000 677.500000,455.000000 
	C688.833313,455.000000 700.166687,455.000000 711.500000,455.000000 
	C723.000000,455.000000 734.500000,455.000000 746.000000,455.000000 
	C748.083801,455.000000 750.167603,455.000000 752.134094,455.000000 
	C754.029602,449.955017 754.145996,445.359253 753.655151,440.484375 
	C753.226929,436.231781 753.240784,431.850494 753.865173,427.480743 
	C754.279968,424.578156 754.776306,421.341766 753.001221,418.499237 
	C751.472290,416.050720 754.122559,414.315948 754.079468,411.998535 
	C753.893616,402.001984 754.899841,391.886078 753.653687,382.043854 
	C752.936157,376.376709 753.693848,370.994080 753.604858,365.498291 
	C753.521484,360.344269 752.991577,355.175873 754.305054,349.950989 
	C754.946899,347.397919 752.795532,344.551422 752.919739,341.496735 
	C753.305664,332.005646 752.992554,322.478485 753.591003,313.005737 
	C754.255981,302.480621 753.687683,291.964172 753.218811,281.512604 
	C752.907104,274.564941 754.246887,267.851593 754.043030,260.998718 
	C753.844910,254.337936 753.984619,247.666611 754.008423,241.000031 
	C754.016602,238.703674 754.094910,236.414001 752.500000,234.500000 
"/>
<path fill="none" opacity="1.000000" stroke="#000000" stroke-linecap="round" stroke-linejoin="round" stroke-width="12.000000"
	d="
M797.000000,826.500000 
	C804.313843,825.476868 811.694763,825.726562 818.994019,826.112671 
	C831.336975,826.765625 843.666870,826.321899 856.000305,826.475342 
	C865.832092,826.597656 875.666748,826.523376 885.499939,826.490784 
	C890.931213,826.472717 892.106201,825.497559 891.960022,820.001038 
	C890.949463,782.003052 892.077820,743.993835 891.367798,706.002441 
	C891.031311,687.996826 891.289307,669.998840 891.000305,652.000000 
	C890.997620,651.833374 890.993958,651.666443 891.000854,651.500061 
	C891.435425,641.000000 891.435486,641.000000 881.000000,641.000000 
	C858.500000,641.000000 835.999939,641.031067 813.500061,640.977173 
	C808.166382,640.964417 802.833313,640.666687 797.500000,640.500000 
"/>
<path fill="none" opacity="1.000000" stroke="#000000" stroke-linecap="round" stroke-linejoin="round" stroke-width="11.000000"
	d="
M6.500000,931.000000 
	C78.166664,931.000000 149.833328,930.988586 221.500000,931.014709 
	C230.302490,931.017944 230.059845,934.017700 230.032227,939.500183 
	C229.944977,956.833008 230.005737,974.166687 229.993683,991.500000 
	C229.991913,994.038147 230.420898,996.693726 228.945435,998.964539 
	C228.471725,999.693665 228.324707,1000.423706 228.541656,1000.983887 
	C231.521545,1008.678833 229.336945,1016.677063 230.000000,1024.500000 
"/>
<path fill="none" opacity="1.000000" stroke="#000000" stroke-linecap="round" stroke-linejoin="round" stroke-width="11.000000"
	d="
M348.500000,6.500000 
	C347.705200,14.319969 347.440216,22.223663 348.160583,29.985096 
	C349.063507,39.713688 347.533539,49.321312 347.914703,59.003357 
	C348.301178,68.821480 348.000000,78.666664 348.000000,88.500000 
	C348.000000,98.166664 347.996460,107.833336 348.001160,117.500000 
	C348.004578,124.505196 348.494812,124.998398 355.500000,124.998734 
	C404.666656,125.001122 453.833344,124.990105 503.000000,125.012466 
	C509.166687,125.015266 515.290344,124.277283 521.512207,124.872559 
	C527.622925,125.457199 533.833313,125.000000 540.000000,125.000000 
	C546.166687,125.000000 552.333313,125.000000 558.500000,125.000000 
	C564.666687,125.000000 570.833313,125.000000 577.000000,125.000000 
	C583.333313,125.000000 589.666687,125.000000 596.000000,125.000000 
	C602.166687,125.000000 608.333313,125.000000 614.500000,125.000000 
	C620.666687,125.000000 626.833313,125.000000 633.000000,125.000000 
	C639.166687,125.000000 645.333313,125.000000 651.500000,125.000000 
	C657.666687,125.000000 663.833313,125.000000 670.000000,125.000000 
	C678.066345,125.000000 678.500000,124.566368 678.500000,116.500000 
	C678.500000,99.666664 678.542908,82.833168 678.477051,66.000092 
	C678.453613,59.999531 678.972351,53.836338 677.795166,48.041615 
	C676.337769,40.867809 678.074097,34.000412 678.013367,26.999884 
	C677.952637,20.000410 678.000000,13.000000 678.000000,6.000000 
"/>
<path fill="none" opacity="1.000000" stroke="#000000" stroke-linecap="round" stroke-linejoin="round" stroke-width="12.000000"
	d="
M134.500000,6.500000 
	C134.500000,11.166667 134.516815,15.833404 134.497345,20.499989 
	C134.335358,59.333340 134.138535,98.166580 134.026459,137.000076 
	C134.006744,143.832870 134.349792,150.666321 134.494751,157.500107 
	C134.609192,162.896591 136.122421,164.487045 141.500000,164.490677 
	C170.666672,164.510300 199.833328,164.500000 229.000000,164.500000 
"/>
<path fill="none" opacity="1.000000" stroke="#000000" stroke-linecap="round" stroke-linejoin="round" stroke-width="12.000000"
	d="
M891.500000,6.500000 
	C891.500000,43.333332 891.457825,80.166740 891.522949,116.999962 
	C891.545654,129.833542 891.756653,142.668320 892.031372,155.499329 
	C892.175232,162.221588 890.517883,163.438065 884.003418,163.621338 
	C857.500732,164.366989 830.999268,163.736221 804.500488,164.040726 
	C802.330261,164.065659 800.166687,164.666687 798.000000,165.000015 
"/>
<path fill="none" opacity="1.000000" stroke="#000000" stroke-linecap="round" stroke-linejoin="round" stroke-width="12.000000"
	d="
M750.500000,898.000000 
	C721.511841,899.362854 692.503174,898.942566 663.500000,898.999329 
	C656.118164,899.013794 655.500000,899.628174 655.500000,907.000000 
	C655.500000,946.166687 655.500000,985.333313 655.500000,1024.500000 
"/>
<path fill="none" opacity="1.000000" stroke="#000000" stroke-linecap="round" stroke-linejoin="round" stroke-width="11.000000"
	d="
M370.500000,1024.500000 
	C370.500000,1016.333313 370.533508,1008.166504 370.494080,1000.000000 
	C370.342041,968.499939 370.173889,936.999939 369.993774,905.500061 
	C369.958801,899.384644 369.068817,898.508118 363.000000,898.504395 
	C343.500000,898.492554 323.999817,898.551880 304.500092,898.477417 
	C295.166229,898.441772 285.833344,898.166687 276.500000,898.000000 
"/>
<path fill="none" opacity="1.000000" stroke="#000000" stroke-linecap="round" stroke-linejoin="round" stroke-width="11.000000"
	d="
M275.000000,377.000000 
	C285.999359,376.790833 297.005341,377.400940 308.002533,376.531921 
	C315.251678,375.959076 316.000000,375.312286 316.000000,368.000000 
	C316.000000,338.833344 316.001678,309.666656 315.998749,280.500000 
	C315.998077,273.726715 315.273254,273.003876 308.500000,273.001190 
	C297.333344,272.996796 286.166656,273.000000 275.000000,273.000000 
"/>
<path fill="none" opacity="1.000000" stroke="#000000" stroke-linecap="round" stroke-linejoin="round" stroke-width="12.000000"
	d="
M751.500000,273.500000 
	C740.166687,273.500000 728.833252,273.475220 717.500061,273.510132 
	C711.581055,273.528381 710.514832,274.581116 710.510315,280.500000 
	C710.487854,310.166656 710.490723,339.833344 710.508911,369.500000 
	C710.512024,374.632080 711.418518,375.841431 716.001038,375.961060 
	C726.997864,376.248138 737.999817,376.347382 749.000305,376.476288 
	C749.998169,376.488007 751.000000,376.166687 752.000000,376.000031 
"/>
<path fill="none" opacity="1.000000" stroke="#000000" stroke-linecap="round" stroke-linejoin="round" stroke-width="11.000000"
	d="
M796.500000,784.500000 
	C808.653992,785.591858 820.834534,784.739075 833.000183,784.991516 
	C837.104370,785.076782 838.052124,782.560608 838.028198,778.999817 
	C837.952026,767.666992 838.000000,756.333313 838.000000,745.000000 
	C838.000000,726.666687 837.829468,708.330750 838.103577,690.001526 
	C838.186035,684.486572 835.519409,681.731689 829.996887,681.897095 
	C819.163025,682.221619 808.318909,682.196960 797.500000,683.000000 
"/>
<path fill="none" opacity="1.000000" stroke="#000000" stroke-linecap="round" stroke-linejoin="round" stroke-width="12.000000"
	d="
M798.000000,123.000000 
	C809.500000,122.666672 821.000854,122.359276 832.499634,121.987991 
	C837.517578,121.825958 838.486755,120.773392 838.490784,115.499992 
	C838.510864,89.166672 838.483826,62.833305 838.526245,36.500042 
	C838.530273,34.002003 838.484802,31.523146 838.903748,28.984114 
	C839.830811,23.365805 836.790039,20.018723 831.000122,20.034494 
	C824.333008,20.052654 817.667175,20.432320 810.999817,20.464657 
	C806.667419,20.485670 802.333313,20.166668 798.000000,20.000000 
"/>
<path fill="none" opacity="1.000000" stroke="#000000" stroke-linecap="round" stroke-linejoin="round" stroke-width="11.000000"
	d="
M228.500000,20.500000 
	C217.677597,19.622696 206.832199,19.964161 196.000595,20.064405 
	C189.468140,20.124861 187.966415,21.964146 188.007629,28.499952 
	C188.154785,51.833408 188.372742,75.166496 188.471634,98.500122 
	C188.495636,104.165977 188.067032,109.832634 188.027130,115.500191 
	C187.984467,121.560822 188.984848,122.433350 194.999908,122.507507 
	C206.416901,122.648270 217.833328,122.833336 229.250000,123.000000 
"/>
<path fill="none" opacity="1.000000" stroke="#000000" stroke-linecap="round" stroke-linejoin="round" stroke-width="11.000000"
	d="
M1024.000000,342.500000 
	C998.508728,343.215515 979.467346,357.008667 970.070862,379.529572 
	C963.877625,394.373230 963.559937,409.849030 970.219727,424.399445 
	C976.570618,438.275116 987.155090,448.674835 1001.993835,454.017212 
	C1009.124390,456.584442 1016.261597,458.879608 1024.000000,457.500000 
"/>
<path fill="none" opacity="1.000000" stroke="#000000" stroke-linecap="round" stroke-linejoin="round" stroke-width="12.000000"
	d="
M275.000000,698.000000 
	C285.833344,697.833374 296.674805,697.866882 307.497009,697.426514 
	C314.219849,697.153015 315.033661,695.921387 315.046906,690.000122 
	C315.101013,665.833191 315.344696,641.666748 315.492554,617.499939 
	C315.532806,610.919617 314.080627,609.503845 307.500000,609.501160 
	C297.000000,609.496826 286.500000,609.500000 276.000000,609.500000 
"/>
<path fill="none" opacity="1.000000" stroke="#000000" stroke-linecap="round" stroke-linejoin="round" stroke-width="10.000000"
	d="
M513.500000,708.500000 
	C538.731567,709.737122 565.222534,691.951721 569.560425,663.509216 
	C572.988831,641.029663 564.890503,623.835388 547.031555,610.457825 
	C535.601440,601.895996 522.949097,599.996948 508.987732,600.781738 
	C494.742920,601.582520 482.422302,606.273438 472.104462,615.615356 
	C463.676361,623.246338 458.408356,633.122375 456.517456,644.502930 
	C452.708160,667.429016 460.041260,686.054688 479.080353,699.385254 
	C489.070618,706.380127 500.475281,710.097229 513.000000,709.000000 
"/>
<path fill="none" opacity="1.000000" stroke="#000000" stroke-linecap="round" stroke-linejoin="round" stroke-width="10.000000"
	d="
M512.500000,270.000000 
	C506.078339,271.603149 499.396088,271.167542 492.960541,273.385498 
	C469.711304,281.398041 453.764801,303.451233 455.179565,328.489868 
	C456.346863,349.149536 467.399475,364.618103 485.591888,373.818298 
	C507.485291,384.890076 534.299744,382.983307 553.514954,365.015991 
	C576.521423,343.503632 576.708862,305.484344 551.582458,284.401703 
	C540.384399,275.005798 527.714417,270.965668 513.500000,270.500000 
"/>
<path fill="none" opacity="1.000000" stroke="#000000" stroke-linecap="round" stroke-linejoin="round" stroke-width="11.000000"
	d="
M1024.000000,10.500000 
	C994.511597,13.838153 975.857849,32.379780 970.853271,59.973389 
	C968.491028,72.998222 970.673523,84.785278 977.045837,95.973885 
	C983.132019,106.660156 991.668701,114.960983 1003.023743,119.945953 
	C1009.654724,122.856979 1016.658081,124.595627 1024.000000,124.500000 
"/>
<path fill="none" opacity="1.000000" stroke="#000000" stroke-linecap="round" stroke-linejoin="round" stroke-width="11.000000"
	d="
M751.000000,570.500000 
	C724.171082,571.381287 697.333557,570.867493 670.500000,570.997864 
	C667.333374,571.013306 664.166565,571.016602 661.000000,570.995483 
	C657.623962,570.972961 655.976868,572.623962 655.994995,576.000000 
	C656.016418,579.999939 656.000000,584.000000 656.000000,588.000000 
	C656.000000,636.166687 655.994080,684.333313 656.021179,732.500000 
	C656.022339,734.500061 656.333313,736.500000 656.500000,738.500000 
"/>
<path fill="none" opacity="1.000000" stroke="#000000" stroke-linecap="round" stroke-linejoin="round" stroke-width="10.000000"
	d="
M1024.000000,676.500000 
	C1008.117249,674.806641 995.835815,681.720764 984.965759,692.465393 
	C974.457764,702.852234 969.696594,715.649170 969.605591,730.000671 
	C969.424255,758.592346 992.291016,787.468018 1024.000000,785.000000 
"/>
<path fill="none" opacity="1.000000" stroke="#000000" stroke-linecap="round" stroke-linejoin="round" stroke-width="11.000000"
	d="
M8.500000,9.000000 
	C13.241606,12.850121 19.138992,14.417315 24.534716,16.925310 
	C42.206234,25.139242 51.107147,39.668026 54.998802,58.000256 
	C57.554050,70.037132 57.066605,81.781555 51.495045,92.997536 
	C43.515129,109.061752 30.462301,118.964722 13.478784,123.927391 
	C11.636117,124.465828 9.500000,124.000000 7.500000,124.000000 
"/>
<path fill="none" opacity="1.000000" stroke="#000000" stroke-linecap="round" stroke-linejoin="round" stroke-width="10.000000"
	d="
M6.000000,676.500000 
	C18.139097,675.835083 28.082441,681.415466 36.904236,688.617310 
	C51.247807,700.326904 58.458565,715.889099 57.405060,734.494629 
	C55.981747,759.631042 35.220520,785.029480 6.500000,785.000000 
"/>
<path fill="none" opacity="1.000000" stroke="#000000" stroke-linecap="round" stroke-linejoin="round" stroke-width="10.000000"
	d="
M512.500000,927.500000 
	C499.219147,925.694641 487.480957,929.881958 477.056549,937.576599 
	C462.393555,948.399963 454.983032,963.643616 454.218719,981.509338 
	C453.693756,993.780945 457.462494,1005.422607 465.010895,1015.491821 
	C465.930603,1016.718689 467.308929,1017.686584 467.945068,1019.026062 
	C470.344543,1024.078613 474.393951,1025.327759 479.500000,1024.500000 
"/>
<path fill="none" opacity="1.000000" stroke="#000000" stroke-linecap="round" stroke-linejoin="round" stroke-width="11.000000"
	d="
M514.000000,1024.500000 
	C514.000000,992.163208 514.000000,959.826477 514.000000,927.042419 
	C522.515625,923.145935 544.347107,930.754395 555.478760,942.520081 
	C566.323425,953.982727 572.046509,967.592468 572.006104,983.500000 
	C571.965515,999.441895 564.384521,1012.217651 554.095764,1024.500000 
	C552.168701,1024.500000 549.334351,1024.500000 546.500000,1024.500000 
"/>
<path fill="none" opacity="1.000000" stroke="#000000" stroke-linecap="round" stroke-linejoin="round" stroke-width="11.000000"
	d="
M227.500000,338.000000 
	C216.479507,336.814423 205.502274,338.444092 194.500122,338.518097 
	C180.999619,338.608917 167.496872,338.711243 154.001480,339.057678 
	C148.291534,339.204254 146.471024,340.282013 146.458450,346.499908 
	C146.434174,358.500214 146.785034,370.550690 145.806549,382.484131 
	C145.007553,392.228760 146.921692,401.828430 146.034149,411.503143 
	C145.783249,414.237915 146.329193,417.044128 144.556366,419.540039 
	C144.157974,420.100922 143.719696,420.891296 144.419983,422.048431 
	C147.218536,426.672699 146.479568,431.917053 146.494232,437.000031 
	C146.516342,444.666595 146.513794,452.333374 146.491577,459.999969 
	C146.484924,462.296295 146.405106,464.585999 148.000000,466.500000 
"/>
<path fill="none" opacity="1.000000" stroke="#000000" stroke-linecap="round" stroke-linejoin="round" stroke-width="11.000000"
	d="
M805.500000,469.000000 
	C806.691406,470.721924 808.483765,469.961853 810.000061,469.965912 
	C829.333252,470.017639 848.671021,470.243286 867.998230,469.900726 
	C878.156189,469.720673 880.208801,470.432404 880.462646,457.499268 
	C880.652344,447.836334 880.500000,438.166656 880.500000,428.500000 
	C880.500000,428.333344 880.459412,428.154297 880.505798,428.001770 
	C883.412537,418.445770 878.796326,409.034180 879.953674,399.494385 
	C880.283508,396.775787 879.634888,393.931763 881.469116,391.476929 
	C881.848511,390.969177 882.166809,390.022705 881.950439,389.521393 
	C878.101929,380.605560 879.997803,371.193207 879.540466,361.997986 
	C879.308960,357.342834 879.443787,352.665833 879.512756,348.000183 
	C879.625366,340.383789 877.302795,339.705750 870.998474,339.572998 
	C853.169556,339.197632 835.333130,339.042206 817.500122,339.067749 
	C811.291382,339.076630 805.158691,338.480530 799.000000,338.000000 
"/>
<path fill="none" opacity="1.000000" stroke="#000000" stroke-linecap="round" stroke-linejoin="round" stroke-width="12.000000"
	d="
M228.500000,372.500000 
	C219.230637,374.062256 209.843277,374.161407 200.497437,374.399323 
	C194.011948,374.564484 191.243561,376.123596 191.353195,383.502167 
	C191.551208,396.825897 191.637695,410.163483 191.236267,423.507111 
	C191.058609,429.412323 191.263153,431.250824 199.001480,431.060028 
	C208.995407,430.813629 219.000000,431.000000 229.000000,431.000000 
"/>
<path fill="none" opacity="1.000000" stroke="#000000" stroke-linecap="round" stroke-linejoin="round" stroke-width="12.000000"
	d="
M750.500000,610.500000 
	C744.252563,608.534119 737.834167,609.782593 731.498474,609.540161 
	C726.339355,609.342712 721.166626,609.487671 716.000000,609.503479 
	C710.753784,609.519531 709.051270,611.310791 709.512085,616.498901 
	C710.310303,625.483948 710.577087,634.486389 710.492004,643.499939 
	C710.355164,658.000183 710.140991,672.499817 710.025940,687.000183 
	C710.007446,689.332031 710.333374,691.666687 710.500000,694.000000 
"/>
<path fill="none" opacity="1.000000" stroke="#000000" stroke-linecap="round" stroke-linejoin="round" stroke-width="11.000000"
	d="
M798.000000,432.000000 
	C807.642883,430.977509 817.319763,430.967346 827.000000,430.990845 
	C833.298950,431.006134 835.069641,429.297546 834.978943,423.000305 
	C834.779602,409.167206 835.483887,395.328400 834.558594,381.496094 
	C834.305908,377.719086 833.048340,375.864288 829.015198,375.374603 
	C825.015503,374.888977 821.086548,373.972778 817.000122,373.960876 
	C810.666382,373.942444 804.333313,373.666656 798.000000,373.500000 
"/>
<path fill="none" opacity="1.000000" stroke="#000000" stroke-linecap="round" stroke-linejoin="round" stroke-width="11.000000"
	d="
M513.500000,271.000000 
	C513.666687,307.166656 513.833374,343.333344 514.000000,379.500000 
"/>
<path fill="none" opacity="1.000000" stroke="#000000" stroke-linecap="round" stroke-linejoin="round" stroke-width="11.000000"
	d="
M229.000000,682.000000 
	C217.868256,683.503479 206.673187,682.881653 195.500031,683.002197 
	C189.384460,683.068176 188.478836,683.931152 188.509018,689.999939 
	C188.655746,719.500061 188.827377,749.000061 189.005325,778.499939 
	C189.038513,784.002686 189.999344,784.863281 195.499603,785.014343 
	C205.831604,785.297974 216.181137,784.349365 226.501526,785.486084 
	C228.326553,785.687134 229.247299,784.526428 230.030182,783.015625 
	C231.200027,780.758118 231.140610,778.363464 230.966095,776.002502 
	C230.520538,769.975159 230.905151,764.001648 231.141068,757.985901 
	C231.345886,752.762573 231.038498,747.336487 231.008408,741.999939 
	C230.972687,735.666870 230.466980,729.277954 231.117477,723.012207 
	C232.264008,711.968628 230.907089,700.987854 230.727600,690.004456 
	C230.615524,683.147217 231.179535,676.335693 231.031387,669.499329 
	C230.886978,662.835754 230.945999,656.166016 231.025177,649.500305 
	C231.059402,646.619141 230.835739,643.874390 229.000000,641.500000 
"/>
<path fill="none" opacity="1.000000" stroke="#000000" stroke-linecap="round" stroke-linejoin="round" stroke-width="11.000000"
	d="
M513.500000,527.000000 
	C512.419434,550.826965 512.802490,574.674438 513.160034,598.497620 
	C513.410400,615.176758 512.242859,631.841919 513.047668,648.497681 
	C513.933594,666.832703 513.821716,685.184448 513.312195,703.494751 
	C512.894043,718.520386 513.676208,733.498474 513.578186,748.500488 
	C513.508484,759.164551 514.166687,769.833313 514.500000,780.500000 
"/>
<path fill="none" opacity="1.000000" stroke="#000000" stroke-linecap="round" stroke-linejoin="round" stroke-width="12.000000"
	d="
M654.000000,738.500000 
	C660.242920,740.550720 666.612976,739.638367 673.000732,739.583862 
	C697.332275,739.375977 721.666687,739.507019 746.000000,739.485962 
	C747.838684,739.484375 749.728210,739.843384 751.500000,739.000000 
"/>
<path fill="none" opacity="1.000000" stroke="#000000" stroke-linecap="round" stroke-linejoin="round" stroke-width="10.000000"
	d="
M228.000000,1000.500000 
	C223.888809,999.473267 219.703583,999.475220 215.499969,999.482910 
	C194.833359,999.520569 174.166672,999.500122 153.500000,999.499817 
	C151.059265,999.499817 148.564148,999.243835 146.500000,1001.000000 
"/>
<path fill="none" opacity="1.000000" stroke="#000000" stroke-linecap="round" stroke-linejoin="round" stroke-width="11.000000"
	d="
M142.500000,467.500000 
	C171.162598,468.367004 199.833069,467.878601 228.500000,468.000000 
"/>
<path fill="none" opacity="1.000000" stroke="#000000" stroke-linecap="round" stroke-linejoin="round" stroke-width="12.000000"
	d="
M793.500000,50.000000 
	C788.362122,48.940941 783.157593,49.481991 778.002197,49.597267 
	C774.611145,49.673088 773.461365,52.258060 773.478638,55.500114 
	C773.535400,66.166473 773.433350,76.833954 773.532288,87.499702 
	C773.572815,91.862335 775.175110,93.487793 779.499573,93.450584 
	C784.540649,93.407204 789.513367,93.966003 794.500000,94.500000 
"/>
<path fill="none" opacity="1.000000" stroke="#000000" stroke-linecap="round" stroke-linejoin="round" stroke-width="12.000000"
	d="
M232.500000,94.500000 
	C237.515686,94.401901 242.435242,93.251808 247.502792,93.410774 
	C251.141846,93.524925 252.389328,90.655846 252.467865,87.499199 
	C252.720749,77.334679 253.031860,67.164528 252.922363,57.000835 
	C252.860870,51.295116 251.719742,49.333790 245.499542,49.480343 
	C241.168610,49.582386 236.833328,49.500000 232.500000,49.500000 
"/>
<path fill="none" opacity="1.000000" stroke="#000000" stroke-linecap="round" stroke-linejoin="round" stroke-width="11.000000"
	d="
M60.500000,400.500000 
	C59.669262,390.484650 57.610329,380.926361 52.584473,371.952698 
	C42.417770,353.800110 26.529287,345.217926 6.500000,343.000000 
"/>
<path fill="none" opacity="1.000000" stroke="#000000" stroke-linecap="round" stroke-linejoin="round" stroke-width="11.000000"
	d="
M793.000000,714.500000 
	C788.360291,713.579041 783.667175,714.150940 778.999939,714.002869 
	C775.572693,713.894165 773.986267,715.714111 774.010986,718.999939 
	C774.095032,730.167603 773.695374,741.340332 774.473999,752.501831 
	C774.726746,756.124207 777.022278,756.955200 780.000122,756.986877 
	C784.666321,757.036560 789.333313,757.000000 794.000000,757.000000 
"/>
<path fill="none" opacity="1.000000" stroke="#000000" stroke-linecap="round" stroke-linejoin="round" stroke-width="12.000000"
	d="
M270.000000,306.000031 
	C265.833344,306.166687 261.665649,306.312012 257.500275,306.505890 
	C253.122055,306.709686 251.775711,308.155365 251.485382,312.499023 
	C250.792221,322.869965 252.625275,333.149384 252.531357,343.500275 
	C252.496506,347.339996 255.251022,348.694031 258.503571,348.955505 
	C262.822388,349.302765 267.166656,349.333313 271.500000,349.499969 
"/>
<path fill="none" opacity="1.000000" stroke="#000000" stroke-linecap="round" stroke-linejoin="round" stroke-width="11.000000"
	d="
M755.000000,349.500000 
	C759.166687,349.166656 763.332214,348.591431 767.500305,348.572845 
	C771.149841,348.556580 772.570801,346.864166 773.029297,343.503998 
	C774.481201,332.863922 773.999023,322.171814 773.915955,311.500641 
	C773.891846,308.400696 772.506531,306.285309 768.522583,305.810455 
	C764.090637,305.282227 759.833313,306.497559 755.500000,306.000000 
"/>
<path fill="none" opacity="1.000000" stroke="#000000" stroke-linecap="round" stroke-linejoin="round" stroke-width="12.000000"
	d="
M232.000000,757.000000 
	C235.666672,757.000000 239.336563,757.096741 242.999146,756.974243 
	C247.116409,756.836548 249.658508,755.377563 250.121155,750.511536 
	C251.055664,740.682312 251.853531,730.860962 251.432037,721.002930 
	C251.206161,715.720154 249.509384,714.457520 244.000351,714.527832 
	C240.331818,714.574646 236.666672,713.267578 233.000000,714.500000 
"/>
<path fill="none" opacity="1.000000" stroke="#000000" stroke-linecap="round" stroke-linejoin="round" stroke-width="11.000000"
	d="
M514.000000,853.000000 
	C514.000000,872.833313 513.970032,892.666748 514.022766,912.499939 
	C514.034729,917.000366 514.333374,921.500000 514.500061,926.000000 
"/>
<path fill="none" opacity="1.000000" stroke="#000000" stroke-linecap="round" stroke-linejoin="round" stroke-width="11.000000"
	d="
M514.500000,381.000000 
	C513.387085,399.824951 514.277161,418.667542 514.011108,437.500153 
	C513.938110,442.665771 514.000000,447.833344 514.000000,453.000000 
"/>
<path fill="none" opacity="1.000000" stroke="#000000" stroke-linecap="round" stroke-linejoin="round" stroke-width="12.000000"
	d="
M513.250000,6.000000 
	C514.173462,24.837788 512.755676,43.666752 513.033936,62.499500 
	C513.171936,71.835724 514.211121,81.187340 513.857727,90.494598 
	C513.445984,101.337929 513.732788,112.167686 513.500000,123.000000 
"/>
<path fill="none" opacity="1.000000" stroke="#000000" stroke-linecap="round" stroke-linejoin="round" stroke-width="11.000000"
	d="
M571.000000,6.250000 
	C569.197510,12.536945 568.000061,18.992699 564.037292,24.526701 
	C553.973145,38.581448 540.932190,47.885674 523.494202,49.951035 
	C506.264160,51.991768 489.802521,50.193359 475.487335,39.016224 
	C464.656738,30.559807 457.613678,19.807976 455.000000,6.250000 
"/>
<path fill="none" opacity="1.000000" stroke="#000000" stroke-linecap="round" stroke-linejoin="round" stroke-width="12.000000"
	d="
M512.000000,199.500000 
	C512.333313,223.000000 512.666687,246.500000 513.000000,270.000000 
"/>
<path fill="none" opacity="1.000000" stroke="#000000" stroke-linecap="round" stroke-linejoin="round" stroke-width="8.000000"
	d="
M4.750001,928.500000 
	C5.166667,929.333313 6.161919,930.450623 5.913237,930.957397 
	C2.172492,938.579895 3.961145,946.699768 4.185687,954.494629 
	C4.550801,967.169434 3.776075,979.866821 4.643985,992.490112 
	C5.380666,1003.204773 3.783933,1013.833313 4.500000,1024.500000 
"/>
<path fill="none" opacity="1.000000" stroke="#000000" stroke-linecap="round" stroke-linejoin="round" stroke-width="12.000000"
	d="
M675.500000,38.500000 
	C667.244568,36.859528 658.810730,37.471184 650.497803,36.519432 
	C645.671509,35.966866 644.055786,34.516823 644.044312,29.499899 
	C644.029419,23.000315 644.379517,16.500587 644.462219,9.999518 
	C644.479370,8.650099 645.263306,6.794690 643.000000,6.250000 
"/>
<path fill="none" opacity="1.000000" stroke="#000000" stroke-linecap="round" stroke-linejoin="round" stroke-width="11.000000"
	d="
M382.000000,6.000000 
	C382.000000,14.000000 381.907227,22.001534 382.039398,29.999350 
	C382.105011,33.968117 380.390289,36.209557 376.498047,36.470852 
	C367.670929,37.063442 358.833344,37.499996 350.000000,37.999996 
"/>
<path fill="none" opacity="1.000000" stroke="#000000" stroke-linecap="round" stroke-linejoin="round" stroke-width="10.000000"
	d="
M1024.000000,1005.000000 
	C1006.065308,1003.332764 991.892883,1011.087769 979.566772,1023.068665 
	C976.919678,1025.641602 974.126282,1023.784668 971.500000,1024.500000 
"/>
<path fill="none" opacity="1.000000" stroke="#000000" stroke-linecap="round" stroke-linejoin="round" stroke-width="10.000000"
	d="
M52.500000,1024.500000 
	C50.333332,1024.500000 48.166668,1024.500000 45.999649,1024.500488 
	C40.891167,1015.781189 32.739468,1010.708374 23.970160,1006.563110 
	C18.467196,1003.961853 12.854375,1001.343018 6.500000,1001.500000 
"/>
<path fill="none" opacity="1.000000" stroke="#000000" stroke-linecap="round" stroke-linejoin="round" stroke-width="10.000000"
	d="
M798.000000,999.000000 
	C799.666687,999.166687 801.332031,999.463806 803.000183,999.480103 
	C823.166565,999.677429 843.333130,999.861084 863.500122,999.973633 
	C866.999084,999.993164 870.501709,999.696228 873.999573,999.492249 
	C877.931396,999.263000 879.691711,1000.886658 879.556641,1005.001831 
	C879.343567,1011.494873 879.500000,1018.000000 879.500000,1024.500000 
"/>
<path fill="none" opacity="1.000000" stroke="#000000" stroke-linecap="round" stroke-linejoin="round" stroke-width="11.000000"
	d="
M144.000000,389.500000 
	C134.752853,389.500000 129.372726,393.445435 129.000000,400.500000 
	C128.318039,413.407349 132.995010,420.019653 143.500000,421.000000 
"/>
<path fill="none" opacity="1.000000" stroke="#000000" stroke-linecap="round" stroke-linejoin="round" stroke-width="11.000000"
	d="
M883.000000,418.500000 
	C890.806946,418.361328 894.041626,413.615265 895.436157,405.489044 
	C896.652283,398.402191 893.770935,392.459442 888.472717,390.576843 
	C886.644287,389.927185 884.500000,390.166656 882.500000,389.999969 
"/>
<path fill="none" opacity="1.000000" stroke="#000000" stroke-linecap="round" stroke-linejoin="round" stroke-width="12.000000"
	d="
M706.500000,693.750000 
	C708.032288,694.717285 709.910278,693.385864 711.721008,695.289795 
	C713.129944,696.771240 716.344849,697.029724 718.999756,697.044434 
	C729.667053,697.103699 740.333313,697.333313 751.000000,697.500000 
"/>
<path fill="none" opacity="1.000000" stroke="#000000" stroke-linecap="round" stroke-linejoin="round" stroke-width="11.000000"
	d="
M145.000000,994.500000 
	C145.333344,1004.500000 145.666672,1014.500000 146.000000,1024.500000 
"/>
<path fill="none" opacity="1.000000" stroke="#000000" stroke-linecap="round" stroke-linejoin="round" stroke-width="3.000000"
	d="
M655.000000,893.500000 
	C655.411377,895.487000 653.995789,897.778503 656.000000,899.500000 
"/>
</svg>